  0
SECTION
  2
HEADER
  9
$ACADVER
  1
AC1014
  9
$HANDSEED
  5
FFFF
  9
$MEASUREMENT
 70
     1
  0
ENDSEC
  0
SECTION
  2
TABLES
  0
TABLE
  2
VPORT
  5
8
330
0
100
AcDbSymbolTable
 70
     4
  0
VPORT
  5
2E
330
8
100
AcDbSymbolTableRecord
100
AcDbViewportTableRecord
  2
*ACTIVE
 70
     0
 10
0.0
 20
0.0
 11
1.0
 21
1.0
 12
210.0
 22
148.5
 13
0.0
 23
0.0
 14
10.0
 24
10.0
 15
10.0
 25
10.0
 16
0.0
 26
0.0
 36
1.0
 17
0.0
 27
0.0
 37
0.0
 40
341.0
 41
1.24
 42
50.0
 43
0.0
 44
0.0
 50
0.0
 51
0.0
 71
     0
 72
   100
 73
     1
 74
     3
 75
     0
 76
     0
 77
     0
 78
     0
  0
ENDTAB
  0
TABLE
  2
LTYPE
  5
5
330
0
100
AcDbSymbolTable
 70
     1
  0
LTYPE
  5
14
330
5
100
AcDbSymbolTableRecord
100
AcDbLinetypeTableRecord
  2
BYBLOCK
 70
     0
  3

 72
    65
 73
     0
 40
0.0
  0
LTYPE
  5
15
330
5
100
AcDbSymbolTableRecord
100
AcDbLinetypeTableRecord
  2
BYLAYER
 70
     0
  3

 72
    65
 73
     0
 40
0.0
  0
LTYPE
  5
16
330
5
100
AcDbSymbolTableRecord
100
AcDbLinetypeTableRecord
  2
CONTINUOUS
 70
     0
  3
Solid line
 72
    65
 73
     0
 40
0.0
  0
ENDTAB
  0
TABLE
  2
LAYER
  5
2
100
AcDbSymbolTable
 70
1
  0
LAYER
  5
50
100
AcDbSymbolTableRecord
100
AcDbLayerTableRecord
  2
0
 70
0
  6
CONTINUOUS
  0
ENDTAB
  0
TABLE
  2
STYLE
  5
3
330
0
100
AcDbSymbolTable
 70
     1
  0
STYLE
  5
11
330
3
100
AcDbSymbolTableRecord
100
AcDbTextStyleTableRecord
  2
STANDARD
 70
     0
 40
0.0
 41
1.0
 50
0.0
 71
     0
 42
2.5
  3
txt
  4

  0
ENDTAB
  0
TABLE
  2
VIEW
  5
6
330
0
100
AcDbSymbolTable
 70
     0
  0
ENDTAB
  0
TABLE
  2
UCS
  5
7
330
0
100
AcDbSymbolTable
 70
     0
  0
ENDTAB
  0
TABLE
  2
APPID
  5
9
330
0
100
AcDbSymbolTable
 70
     2
  0
APPID
  5
12
330
9
100
AcDbSymbolTableRecord
100
AcDbRegAppTableRecord
  2
ACAD
 70
     0
  0
ENDTAB
  0
TABLE
  2
DIMSTYLE
  5
A
330
0
100
AcDbSymbolTable
 70
     1
  0
DIMSTYLE
105
27
330
A
100
AcDbSymbolTableRecord
100
AcDbDimStyleTableRecord
  2
ISO-25
 70
     0
  3

  4

  5

  6

  7

 40
1.0
 41
2.5
 42
0.625
 43
3.75
 44
1.25
 45
0.0
 46
0.0
 47
0.0
 48
0.0
140
2.5
141
2.5
142
0.0
143
0.03937007874016
144
1.0
145
0.0
146
1.0
147
0.625
 71
     0
 72
     0
 73
     0
 74
     0
 75
     0
 76
     0
 77
     1
 78
     8
170
     0
171
     3
172
     1
173
     0
174
     0
175
     0
176
     0
177
     0
178
     0
270
     2
271
     2
272
     2
273
     2
274
     3
340
11
275
     0
280
     0
281
     0
282
     0
283
     0
284
     8
285
     0
286
     0
287
     3
288
     0
  0
ENDTAB
  0
TABLE
  2
BLOCK_RECORD
  5
1
330
0
100
AcDbSymbolTable
 70
     1
  0
BLOCK_RECORD
  5
1F
330
1
100
AcDbSymbolTableRecord
100
AcDbBlockTableRecord
  2
*MODEL_SPACE
  0
BLOCK_RECORD
  5
1B
330
1
100
AcDbSymbolTableRecord
100
AcDbBlockTableRecord
  2
*PAPER_SPACE
  0
ENDTAB
  0
ENDSEC
  0
SECTION
  2
BLOCKS
  0
BLOCK
  5
20
330
1F
100
AcDbEntity
  8
0
100
AcDbBlockBegin
  2
*MODEL_SPACE
 70
     0
 10
0.0
 20
0.0
 30
0.0
  3
*MODEL_SPACE
  1

  0
ENDBLK
  5
21
330
1F
100
AcDbEntity
  8
0
100
AcDbBlockEnd
  0
BLOCK
  5
1C
330
1B
100
AcDbEntity
 67
     1
  8
0
100
AcDbBlockBegin
  2
*PAPER_SPACE
  1

  0
ENDBLK
  5
1D
330
1B
100
AcDbEntity
 67
     1
  8
0
100
AcDbBlockEnd
  0
ENDSEC
  0
SECTION
  2
ENTITIES
  0
LWPOLYLINE
  5
100
100
AcDbEntity
  8
0
 62
7
100
AcDbPolyline
 90
28
 70
1
 10
-95.343100
 20
121.000000
 30
0.0
 10
95.343100
 20
121.000000
 30
0.0
 10
101.000000
 20
115.343000
 30
0.0
 10
109.000000
 20
115.343000
 30
0.0
 10
114.657000
 20
121.000000
 30
0.0
 10
114.657000
 20
129.000000
 30
0.0
 10
109.000000
 20
134.656900
 30
0.0
 10
109.000000
 20
325.343100
 30
0.0
 10
114.657000
 20
331.000000
 30
0.0
 10
114.657000
 20
339.000000
 30
0.0
 10
109.000000
 20
344.657000
 30
0.0
 10
101.000000
 20
344.657000
 30
0.0
 10
95.343100
 20
339.000000
 30
0.0
 10
-95.343100
 20
339.000000
 30
0.0
 10
-101.000000
 20
344.657000
 30
0.0
 10
-109.000000
 20
344.657000
 30
0.0
 10
-114.657000
 20
339.000000
 30
0.0
 10
-114.657000
 20
331.000000
 30
0.0
 10
-109.000000
 20
325.343100
 30
0.0
 10
-109.000000
 20
239.656850
 30
0.0
 10
-114.657000
 20
234.000000
 30
0.0
 10
-114.657000
 20
226.000000
 30
0.0
 10
-109.000000
 20
220.343150
 30
0.0
 10
-109.000000
 20
134.656900
 30
0.0
 10
-114.657000
 20
129.000000
 30
0.0
 10
-114.657000
 20
121.000000
 30
0.0
 10
-109.000000
 20
115.343000
 30
0.0
 10
-101.000000
 20
115.343000
 30
0.0
  0
LWPOLYLINE
  5
101
100
AcDbEntity
  8
0
 62
7
100
AcDbPolyline
 90
24
 70
1
 10
-105.319000
 20
333.534000
 30
0.0
 10
-105.719000
 20
333.683000
 30
0.0
 10
-106.061000
 20
333.939000
 30
0.0
 10
-108.182000
 20
336.061000
 30
0.0
 10
-108.438000
 20
336.402000
 30
0.0
 10
-108.587000
 20
336.802000
 30
0.0
 10
-108.617000
 20
337.228000
 30
0.0
 10
-108.527000
 20
337.646000
 30
0.0
 10
-108.322000
 20
338.020000
 30
0.0
 10
-108.020000
 20
338.322000
 30
0.0
 10
-107.646000
 20
338.527000
 30
0.0
 10
-107.228000
 20
338.617000
 30
0.0
 10
-106.802000
 20
338.587000
 30
0.0
 10
-106.402000
 20
338.438000
 30
0.0
 10
-106.061000
 20
338.182000
 30
0.0
 10
-103.939000
 20
336.061000
 30
0.0
 10
-103.683000
 20
335.719000
 30
0.0
 10
-103.534000
 20
335.319000
 30
0.0
 10
-103.504000
 20
334.893000
 30
0.0
 10
-103.595000
 20
334.476000
 30
0.0
 10
-103.799000
 20
334.101000
 30
0.0
 10
-104.101000
 20
333.799000
 30
0.0
 10
-104.476000
 20
333.595000
 30
0.0
 10
-104.893000
 20
333.504000
 30
0.0
  0
LWPOLYLINE
  5
102
100
AcDbEntity
  8
0
 62
7
100
AcDbPolyline
 90
24
 70
1
 10
104.476000
 20
333.595000
 30
0.0
 10
104.101000
 20
333.799000
 30
0.0
 10
103.799000
 20
334.101000
 30
0.0
 10
103.595000
 20
334.476000
 30
0.0
 10
103.504000
 20
334.893000
 30
0.0
 10
103.534000
 20
335.319000
 30
0.0
 10
103.683000
 20
335.719000
 30
0.0
 10
103.939000
 20
336.061000
 30
0.0
 10
106.061000
 20
338.182000
 30
0.0
 10
106.402000
 20
338.438000
 30
0.0
 10
106.802000
 20
338.587000
 30
0.0
 10
107.228000
 20
338.617000
 30
0.0
 10
107.646000
 20
338.527000
 30
0.0
 10
108.020000
 20
338.322000
 30
0.0
 10
108.322000
 20
338.020000
 30
0.0
 10
108.527000
 20
337.646000
 30
0.0
 10
108.617000
 20
337.228000
 30
0.0
 10
108.587000
 20
336.802000
 30
0.0
 10
108.438000
 20
336.402000
 30
0.0
 10
108.182000
 20
336.061000
 30
0.0
 10
106.061000
 20
333.939000
 30
0.0
 10
105.719000
 20
333.683000
 30
0.0
 10
105.319000
 20
333.534000
 30
0.0
 10
104.893000
 20
333.504000
 30
0.0
  0
LWPOLYLINE
  5
103
100
AcDbEntity
  8
0
 62
7
100
AcDbPolyline
 90
40
 70
1
 10
-15.891100
 20
276.030800
 30
0.0
 10
-16.272500
 20
276.122400
 30
0.0
 10
-16.635000
 20
276.272500
 30
0.0
 10
-16.969500
 20
276.477500
 30
0.0
 10
-17.267800
 20
276.732200
 30
0.0
 10
-17.522500
 20
277.030500
 30
0.0
 10
-17.727500
 20
277.365000
 30
0.0
 10
-17.877600
 20
277.727500
 30
0.0
 10
-17.969200
 20
278.108900
 30
0.0
 10
-18.000000
 20
278.500000
 30
0.0
 10
-17.969200
 20
278.891100
 30
0.0
 10
-17.877600
 20
279.272500
 30
0.0
 10
-17.727500
 20
279.635000
 30
0.0
 10
-17.522500
 20
279.969500
 30
0.0
 10
-17.267800
 20
280.267800
 30
0.0
 10
-16.969500
 20
280.522500
 30
0.0
 10
-16.635000
 20
280.727500
 30
0.0
 10
-16.272500
 20
280.877600
 30
0.0
 10
-15.891100
 20
280.969200
 30
0.0
 10
-15.500000
 20
281.000000
 30
0.0
 10
-15.108900
 20
280.969200
 30
0.0
 10
-14.727500
 20
280.877600
 30
0.0
 10
-14.365000
 20
280.727500
 30
0.0
 10
-14.030500
 20
280.522500
 30
0.0
 10
-13.732200
 20
280.267800
 30
0.0
 10
-13.477500
 20
279.969500
 30
0.0
 10
-13.272500
 20
279.635000
 30
0.0
 10
-13.122400
 20
279.272500
 30
0.0
 10
-13.030800
 20
278.891100
 30
0.0
 10
-13.000000
 20
278.500000
 30
0.0
 10
-13.030800
 20
278.108900
 30
0.0
 10
-13.122400
 20
277.727500
 30
0.0
 10
-13.272500
 20
277.365000
 30
0.0
 10
-13.477500
 20
277.030500
 30
0.0
 10
-13.732200
 20
276.732200
 30
0.0
 10
-14.030500
 20
276.477500
 30
0.0
 10
-14.365000
 20
276.272500
 30
0.0
 10
-14.727500
 20
276.122400
 30
0.0
 10
-15.108900
 20
276.030800
 30
0.0
 10
-15.500000
 20
276.000000
 30
0.0
  0
LWPOLYLINE
  5
104
100
AcDbEntity
  8
0
 62
7
100
AcDbPolyline
 90
40
 70
1
 10
-100.641000
 20
274.030800
 30
0.0
 10
-101.023000
 20
274.122400
 30
0.0
 10
-101.385000
 20
274.272500
 30
0.0
 10
-101.719000
 20
274.477500
 30
0.0
 10
-102.018000
 20
274.732200
 30
0.0
 10
-102.273000
 20
275.030500
 30
0.0
 10
-102.478000
 20
275.365000
 30
0.0
 10
-102.628000
 20
275.727500
 30
0.0
 10
-102.719000
 20
276.108900
 30
0.0
 10
-102.750000
 20
276.500000
 30
0.0
 10
-102.719000
 20
276.891100
 30
0.0
 10
-102.628000
 20
277.272500
 30
0.0
 10
-102.478000
 20
277.635000
 30
0.0
 10
-102.273000
 20
277.969500
 30
0.0
 10
-102.018000
 20
278.267800
 30
0.0
 10
-101.719000
 20
278.522500
 30
0.0
 10
-101.385000
 20
278.727500
 30
0.0
 10
-101.023000
 20
278.877600
 30
0.0
 10
-100.641000
 20
278.969200
 30
0.0
 10
-100.250000
 20
279.000000
 30
0.0
 10
-99.858900
 20
278.969200
 30
0.0
 10
-99.477500
 20
278.877600
 30
0.0
 10
-99.115000
 20
278.727500
 30
0.0
 10
-98.780500
 20
278.522500
 30
0.0
 10
-98.482200
 20
278.267800
 30
0.0
 10
-98.227500
 20
277.969500
 30
0.0
 10
-98.022500
 20
277.635000
 30
0.0
 10
-97.872400
 20
277.272500
 30
0.0
 10
-97.780800
 20
276.891100
 30
0.0
 10
-97.750000
 20
276.500000
 30
0.0
 10
-97.780800
 20
276.108900
 30
0.0
 10
-97.872400
 20
275.727500
 30
0.0
 10
-98.022500
 20
275.365000
 30
0.0
 10
-98.227500
 20
275.030500
 30
0.0
 10
-98.482200
 20
274.732200
 30
0.0
 10
-98.780500
 20
274.477500
 30
0.0
 10
-99.115000
 20
274.272500
 30
0.0
 10
-99.477500
 20
274.122400
 30
0.0
 10
-99.858900
 20
274.030800
 30
0.0
 10
-100.250000
 20
274.000000
 30
0.0
  0
LWPOLYLINE
  5
105
100
AcDbEntity
  8
0
 62
7
100
AcDbPolyline
 90
40
 70
1
 10
-70.141100
 20
274.030800
 30
0.0
 10
-70.522500
 20
274.122400
 30
0.0
 10
-70.885000
 20
274.272500
 30
0.0
 10
-71.219500
 20
274.477500
 30
0.0
 10
-71.517800
 20
274.732200
 30
0.0
 10
-71.772500
 20
275.030500
 30
0.0
 10
-71.977500
 20
275.365000
 30
0.0
 10
-72.127600
 20
275.727500
 30
0.0
 10
-72.219200
 20
276.108900
 30
0.0
 10
-72.250000
 20
276.500000
 30
0.0
 10
-72.219200
 20
276.891100
 30
0.0
 10
-72.127600
 20
277.272500
 30
0.0
 10
-71.977500
 20
277.635000
 30
0.0
 10
-71.772500
 20
277.969500
 30
0.0
 10
-71.517800
 20
278.267800
 30
0.0
 10
-71.219500
 20
278.522500
 30
0.0
 10
-70.885000
 20
278.727500
 30
0.0
 10
-70.522500
 20
278.877600
 30
0.0
 10
-70.141100
 20
278.969200
 30
0.0
 10
-69.750000
 20
279.000000
 30
0.0
 10
-69.358900
 20
278.969200
 30
0.0
 10
-68.977500
 20
278.877600
 30
0.0
 10
-68.615000
 20
278.727500
 30
0.0
 10
-68.280500
 20
278.522500
 30
0.0
 10
-67.982200
 20
278.267800
 30
0.0
 10
-67.727500
 20
277.969500
 30
0.0
 10
-67.522500
 20
277.635000
 30
0.0
 10
-67.372400
 20
277.272500
 30
0.0
 10
-67.280800
 20
276.891100
 30
0.0
 10
-67.250000
 20
276.500000
 30
0.0
 10
-67.280800
 20
276.108900
 30
0.0
 10
-67.372400
 20
275.727500
 30
0.0
 10
-67.522500
 20
275.365000
 30
0.0
 10
-67.727500
 20
275.030500
 30
0.0
 10
-67.982200
 20
274.732200
 30
0.0
 10
-68.280500
 20
274.477500
 30
0.0
 10
-68.615000
 20
274.272500
 30
0.0
 10
-68.977500
 20
274.122400
 30
0.0
 10
-69.358900
 20
274.030800
 30
0.0
 10
-69.750000
 20
274.000000
 30
0.0
  0
LWPOLYLINE
  5
106
100
AcDbEntity
  8
0
 62
7
100
AcDbPolyline
 90
40
 70
1
 10
-15.891100
 20
256.030800
 30
0.0
 10
-16.272500
 20
256.122400
 30
0.0
 10
-16.635000
 20
256.272500
 30
0.0
 10
-16.969500
 20
256.477500
 30
0.0
 10
-17.267800
 20
256.732200
 30
0.0
 10
-17.522500
 20
257.030500
 30
0.0
 10
-17.727500
 20
257.365000
 30
0.0
 10
-17.877600
 20
257.727500
 30
0.0
 10
-17.969200
 20
258.108900
 30
0.0
 10
-18.000000
 20
258.500000
 30
0.0
 10
-17.969200
 20
258.891100
 30
0.0
 10
-17.877600
 20
259.272500
 30
0.0
 10
-17.727500
 20
259.635000
 30
0.0
 10
-17.522500
 20
259.969500
 30
0.0
 10
-17.267800
 20
260.267800
 30
0.0
 10
-16.969500
 20
260.522500
 30
0.0
 10
-16.635000
 20
260.727500
 30
0.0
 10
-16.272500
 20
260.877600
 30
0.0
 10
-15.891100
 20
260.969200
 30
0.0
 10
-15.500000
 20
261.000000
 30
0.0
 10
-15.108900
 20
260.969200
 30
0.0
 10
-14.727500
 20
260.877600
 30
0.0
 10
-14.365000
 20
260.727500
 30
0.0
 10
-14.030500
 20
260.522500
 30
0.0
 10
-13.732200
 20
260.267800
 30
0.0
 10
-13.477500
 20
259.969500
 30
0.0
 10
-13.272500
 20
259.635000
 30
0.0
 10
-13.122400
 20
259.272500
 30
0.0
 10
-13.030800
 20
258.891100
 30
0.0
 10
-13.000000
 20
258.500000
 30
0.0
 10
-13.030800
 20
258.108900
 30
0.0
 10
-13.122400
 20
257.727500
 30
0.0
 10
-13.272500
 20
257.365000
 30
0.0
 10
-13.477500
 20
257.030500
 30
0.0
 10
-13.732200
 20
256.732200
 30
0.0
 10
-14.030500
 20
256.477500
 30
0.0
 10
-14.365000
 20
256.272500
 30
0.0
 10
-14.727500
 20
256.122400
 30
0.0
 10
-15.108900
 20
256.030800
 30
0.0
 10
-15.500000
 20
256.000000
 30
0.0
  0
LWPOLYLINE
  5
107
100
AcDbEntity
  8
0
 62
7
100
AcDbPolyline
 90
40
 70
1
 10
-100.641000
 20
256.030800
 30
0.0
 10
-101.023000
 20
256.122400
 30
0.0
 10
-101.385000
 20
256.272500
 30
0.0
 10
-101.719000
 20
256.477500
 30
0.0
 10
-102.018000
 20
256.732200
 30
0.0
 10
-102.273000
 20
257.030500
 30
0.0
 10
-102.478000
 20
257.365000
 30
0.0
 10
-102.628000
 20
257.727500
 30
0.0
 10
-102.719000
 20
258.108900
 30
0.0
 10
-102.750000
 20
258.500000
 30
0.0
 10
-102.719000
 20
258.891100
 30
0.0
 10
-102.628000
 20
259.272500
 30
0.0
 10
-102.478000
 20
259.635000
 30
0.0
 10
-102.273000
 20
259.969500
 30
0.0
 10
-102.018000
 20
260.267800
 30
0.0
 10
-101.719000
 20
260.522500
 30
0.0
 10
-101.385000
 20
260.727500
 30
0.0
 10
-101.023000
 20
260.877600
 30
0.0
 10
-100.641000
 20
260.969200
 30
0.0
 10
-100.250000
 20
261.000000
 30
0.0
 10
-99.858900
 20
260.969200
 30
0.0
 10
-99.477500
 20
260.877600
 30
0.0
 10
-99.115000
 20
260.727500
 30
0.0
 10
-98.780500
 20
260.522500
 30
0.0
 10
-98.482200
 20
260.267800
 30
0.0
 10
-98.227500
 20
259.969500
 30
0.0
 10
-98.022500
 20
259.635000
 30
0.0
 10
-97.872400
 20
259.272500
 30
0.0
 10
-97.780800
 20
258.891100
 30
0.0
 10
-97.750000
 20
258.500000
 30
0.0
 10
-97.780800
 20
258.108900
 30
0.0
 10
-97.872400
 20
257.727500
 30
0.0
 10
-98.022500
 20
257.365000
 30
0.0
 10
-98.227500
 20
257.030500
 30
0.0
 10
-98.482200
 20
256.732200
 30
0.0
 10
-98.780500
 20
256.477500
 30
0.0
 10
-99.115000
 20
256.272500
 30
0.0
 10
-99.477500
 20
256.122400
 30
0.0
 10
-99.858900
 20
256.030800
 30
0.0
 10
-100.250000
 20
256.000000
 30
0.0
  0
LWPOLYLINE
  5
108
100
AcDbEntity
  8
0
 62
7
100
AcDbPolyline
 90
40
 70
1
 10
-70.141100
 20
256.030800
 30
0.0
 10
-70.522500
 20
256.122400
 30
0.0
 10
-70.885000
 20
256.272500
 30
0.0
 10
-71.219500
 20
256.477500
 30
0.0
 10
-71.517800
 20
256.732200
 30
0.0
 10
-71.772500
 20
257.030500
 30
0.0
 10
-71.977500
 20
257.365000
 30
0.0
 10
-72.127600
 20
257.727500
 30
0.0
 10
-72.219200
 20
258.108900
 30
0.0
 10
-72.250000
 20
258.500000
 30
0.0
 10
-72.219200
 20
258.891100
 30
0.0
 10
-72.127600
 20
259.272500
 30
0.0
 10
-71.977500
 20
259.635000
 30
0.0
 10
-71.772500
 20
259.969500
 30
0.0
 10
-71.517800
 20
260.267800
 30
0.0
 10
-71.219500
 20
260.522500
 30
0.0
 10
-70.885000
 20
260.727500
 30
0.0
 10
-70.522500
 20
260.877600
 30
0.0
 10
-70.141100
 20
260.969200
 30
0.0
 10
-69.750000
 20
261.000000
 30
0.0
 10
-69.358900
 20
260.969200
 30
0.0
 10
-68.977500
 20
260.877600
 30
0.0
 10
-68.615000
 20
260.727500
 30
0.0
 10
-68.280500
 20
260.522500
 30
0.0
 10
-67.982200
 20
260.267800
 30
0.0
 10
-67.727500
 20
259.969500
 30
0.0
 10
-67.522500
 20
259.635000
 30
0.0
 10
-67.372400
 20
259.272500
 30
0.0
 10
-67.280800
 20
258.891100
 30
0.0
 10
-67.250000
 20
258.500000
 30
0.0
 10
-67.280800
 20
258.108900
 30
0.0
 10
-67.372400
 20
257.727500
 30
0.0
 10
-67.522500
 20
257.365000
 30
0.0
 10
-67.727500
 20
257.030500
 30
0.0
 10
-67.982200
 20
256.732200
 30
0.0
 10
-68.280500
 20
256.477500
 30
0.0
 10
-68.615000
 20
256.272500
 30
0.0
 10
-68.977500
 20
256.122400
 30
0.0
 10
-69.358900
 20
256.030800
 30
0.0
 10
-69.750000
 20
256.000000
 30
0.0
  0
LWPOLYLINE
  5
109
100
AcDbEntity
  8
0
 62
7
100
AcDbPolyline
 90
40
 70
1
 10
69.358900
 20
236.530790
 30
0.0
 10
68.977500
 20
236.622360
 30
0.0
 10
68.615000
 20
236.772490
 30
0.0
 10
68.280500
 20
236.977460
 30
0.0
 10
67.982200
 20
237.232240
 30
0.0
 10
67.727500
 20
237.530550
 30
0.0
 10
67.522500
 20
237.865040
 30
0.0
 10
67.372400
 20
238.227460
 30
0.0
 10
67.280800
 20
238.608920
 30
0.0
 10
67.250000
 20
239.000000
 30
0.0
 10
67.280800
 20
239.391080
 30
0.0
 10
67.372400
 20
239.772540
 30
0.0
 10
67.522500
 20
240.135000
 30
0.0
 10
67.727500
 20
240.469500
 30
0.0
 10
67.982200
 20
240.767800
 30
0.0
 10
68.280500
 20
241.022500
 30
0.0
 10
68.615000
 20
241.227500
 30
0.0
 10
68.977500
 20
241.377600
 30
0.0
 10
69.358900
 20
241.469200
 30
0.0
 10
69.750000
 20
241.500000
 30
0.0
 10
70.141100
 20
241.469200
 30
0.0
 10
70.522500
 20
241.377600
 30
0.0
 10
70.885000
 20
241.227500
 30
0.0
 10
71.219500
 20
241.022500
 30
0.0
 10
71.517800
 20
240.767800
 30
0.0
 10
71.772500
 20
240.469500
 30
0.0
 10
71.977500
 20
240.135000
 30
0.0
 10
72.127600
 20
239.772540
 30
0.0
 10
72.219200
 20
239.391080
 30
0.0
 10
72.250000
 20
239.000000
 30
0.0
 10
72.219200
 20
238.608920
 30
0.0
 10
72.127600
 20
238.227460
 30
0.0
 10
71.977500
 20
237.865040
 30
0.0
 10
71.772500
 20
237.530550
 30
0.0
 10
71.517800
 20
237.232240
 30
0.0
 10
71.219500
 20
236.977460
 30
0.0
 10
70.885000
 20
236.772490
 30
0.0
 10
70.522500
 20
236.622360
 30
0.0
 10
70.141100
 20
236.530790
 30
0.0
 10
69.750000
 20
236.500000
 30
0.0
  0
LWPOLYLINE
  5
10a
100
AcDbEntity
  8
0
 62
7
100
AcDbPolyline
 90
40
 70
1
 10
99.858900
 20
236.530790
 30
0.0
 10
99.477500
 20
236.622360
 30
0.0
 10
99.115000
 20
236.772490
 30
0.0
 10
98.780500
 20
236.977460
 30
0.0
 10
98.482200
 20
237.232240
 30
0.0
 10
98.227500
 20
237.530550
 30
0.0
 10
98.022500
 20
237.865040
 30
0.0
 10
97.872400
 20
238.227460
 30
0.0
 10
97.780800
 20
238.608920
 30
0.0
 10
97.750000
 20
239.000000
 30
0.0
 10
97.780800
 20
239.391080
 30
0.0
 10
97.872400
 20
239.772540
 30
0.0
 10
98.022500
 20
240.135000
 30
0.0
 10
98.227500
 20
240.469500
 30
0.0
 10
98.482200
 20
240.767800
 30
0.0
 10
98.780500
 20
241.022500
 30
0.0
 10
99.115000
 20
241.227500
 30
0.0
 10
99.477500
 20
241.377600
 30
0.0
 10
99.858900
 20
241.469200
 30
0.0
 10
100.250000
 20
241.500000
 30
0.0
 10
100.641000
 20
241.469200
 30
0.0
 10
101.023000
 20
241.377600
 30
0.0
 10
101.385000
 20
241.227500
 30
0.0
 10
101.719000
 20
241.022500
 30
0.0
 10
102.018000
 20
240.767800
 30
0.0
 10
102.273000
 20
240.469500
 30
0.0
 10
102.478000
 20
240.135000
 30
0.0
 10
102.628000
 20
239.772540
 30
0.0
 10
102.719000
 20
239.391080
 30
0.0
 10
102.750000
 20
239.000000
 30
0.0
 10
102.719000
 20
238.608920
 30
0.0
 10
102.628000
 20
238.227460
 30
0.0
 10
102.478000
 20
237.865040
 30
0.0
 10
102.273000
 20
237.530550
 30
0.0
 10
102.018000
 20
237.232240
 30
0.0
 10
101.719000
 20
236.977460
 30
0.0
 10
101.385000
 20
236.772490
 30
0.0
 10
101.023000
 20
236.622360
 30
0.0
 10
100.641000
 20
236.530790
 30
0.0
 10
100.250000
 20
236.500000
 30
0.0
  0
LWPOLYLINE
  5
10b
100
AcDbEntity
  8
0
 62
7
100
AcDbPolyline
 90
24
 70
1
 10
-108.000000
 20
228.500000
 30
0.0
 10
-108.423000
 20
228.560780
 30
0.0
 10
-108.811000
 20
228.738130
 30
0.0
 10
-109.134000
 20
229.017715
 30
0.0
 10
-109.364000
 20
229.376892
 30
0.0
 10
-109.485000
 20
229.786530
 30
0.0
 10
-109.485000
 20
230.213470
 30
0.0
 10
-109.364000
 20
230.623108
 30
0.0
 10
-109.134000
 20
230.982285
 30
0.0
 10
-108.811000
 20
231.261870
 30
0.0
 10
-108.423000
 20
231.439220
 30
0.0
 10
-108.000000
 20
231.500000
 30
0.0
 10
-105.000000
 20
231.500000
 30
0.0
 10
-104.577000
 20
231.439220
 30
0.0
 10
-104.189000
 20
231.261870
 30
0.0
 10
-103.866000
 20
230.982285
 30
0.0
 10
-103.636000
 20
230.623108
 30
0.0
 10
-103.515000
 20
230.213470
 30
0.0
 10
-103.515000
 20
229.786530
 30
0.0
 10
-103.636000
 20
229.376892
 30
0.0
 10
-103.866000
 20
229.017715
 30
0.0
 10
-104.189000
 20
228.738130
 30
0.0
 10
-104.577000
 20
228.560780
 30
0.0
 10
-105.000000
 20
228.500000
 30
0.0
  0
LWPOLYLINE
  5
10c
100
AcDbEntity
  8
0
 62
7
100
AcDbPolyline
 90
40
 70
1
 10
69.358900
 20
218.530800
 30
0.0
 10
68.977500
 20
218.622400
 30
0.0
 10
68.615000
 20
218.772500
 30
0.0
 10
68.280500
 20
218.977500
 30
0.0
 10
67.982200
 20
219.232200
 30
0.0
 10
67.727500
 20
219.530500
 30
0.0
 10
67.522500
 20
219.865000
 30
0.0
 10
67.372400
 20
220.227460
 30
0.0
 10
67.280800
 20
220.608920
 30
0.0
 10
67.250000
 20
221.000000
 30
0.0
 10
67.280800
 20
221.391080
 30
0.0
 10
67.372400
 20
221.772540
 30
0.0
 10
67.522500
 20
222.134960
 30
0.0
 10
67.727500
 20
222.469450
 30
0.0
 10
67.982200
 20
222.767760
 30
0.0
 10
68.280500
 20
223.022540
 30
0.0
 10
68.615000
 20
223.227510
 30
0.0
 10
68.977500
 20
223.377640
 30
0.0
 10
69.358900
 20
223.469210
 30
0.0
 10
69.750000
 20
223.500000
 30
0.0
 10
70.141100
 20
223.469210
 30
0.0
 10
70.522500
 20
223.377640
 30
0.0
 10
70.885000
 20
223.227510
 30
0.0
 10
71.219500
 20
223.022540
 30
0.0
 10
71.517800
 20
222.767760
 30
0.0
 10
71.772500
 20
222.469450
 30
0.0
 10
71.977500
 20
222.134960
 30
0.0
 10
72.127600
 20
221.772540
 30
0.0
 10
72.219200
 20
221.391080
 30
0.0
 10
72.250000
 20
221.000000
 30
0.0
 10
72.219200
 20
220.608920
 30
0.0
 10
72.127600
 20
220.227460
 30
0.0
 10
71.977500
 20
219.865000
 30
0.0
 10
71.772500
 20
219.530500
 30
0.0
 10
71.517800
 20
219.232200
 30
0.0
 10
71.219500
 20
218.977500
 30
0.0
 10
70.885000
 20
218.772500
 30
0.0
 10
70.522500
 20
218.622400
 30
0.0
 10
70.141100
 20
218.530800
 30
0.0
 10
69.750000
 20
218.500000
 30
0.0
  0
LWPOLYLINE
  5
10d
100
AcDbEntity
  8
0
 62
7
100
AcDbPolyline
 90
40
 70
1
 10
99.858900
 20
218.530800
 30
0.0
 10
99.477500
 20
218.622400
 30
0.0
 10
99.115000
 20
218.772500
 30
0.0
 10
98.780500
 20
218.977500
 30
0.0
 10
98.482200
 20
219.232200
 30
0.0
 10
98.227500
 20
219.530500
 30
0.0
 10
98.022500
 20
219.865000
 30
0.0
 10
97.872400
 20
220.227460
 30
0.0
 10
97.780800
 20
220.608920
 30
0.0
 10
97.750000
 20
221.000000
 30
0.0
 10
97.780800
 20
221.391080
 30
0.0
 10
97.872400
 20
221.772540
 30
0.0
 10
98.022500
 20
222.134960
 30
0.0
 10
98.227500
 20
222.469450
 30
0.0
 10
98.482200
 20
222.767760
 30
0.0
 10
98.780500
 20
223.022540
 30
0.0
 10
99.115000
 20
223.227510
 30
0.0
 10
99.477500
 20
223.377640
 30
0.0
 10
99.858900
 20
223.469210
 30
0.0
 10
100.250000
 20
223.500000
 30
0.0
 10
100.641000
 20
223.469210
 30
0.0
 10
101.023000
 20
223.377640
 30
0.0
 10
101.385000
 20
223.227510
 30
0.0
 10
101.719000
 20
223.022540
 30
0.0
 10
102.018000
 20
222.767760
 30
0.0
 10
102.273000
 20
222.469450
 30
0.0
 10
102.478000
 20
222.134960
 30
0.0
 10
102.628000
 20
221.772540
 30
0.0
 10
102.719000
 20
221.391080
 30
0.0
 10
102.750000
 20
221.000000
 30
0.0
 10
102.719000
 20
220.608920
 30
0.0
 10
102.628000
 20
220.227460
 30
0.0
 10
102.478000
 20
219.865000
 30
0.0
 10
102.273000
 20
219.530500
 30
0.0
 10
102.018000
 20
219.232200
 30
0.0
 10
101.719000
 20
218.977500
 30
0.0
 10
101.385000
 20
218.772500
 30
0.0
 10
101.023000
 20
218.622400
 30
0.0
 10
100.641000
 20
218.530800
 30
0.0
 10
100.250000
 20
218.500000
 30
0.0
  0
LWPOLYLINE
  5
10e
100
AcDbEntity
  8
0
 62
7
100
AcDbPolyline
 90
40
 70
1
 10
-15.891100
 20
199.030800
 30
0.0
 10
-16.272500
 20
199.122400
 30
0.0
 10
-16.635000
 20
199.272500
 30
0.0
 10
-16.969500
 20
199.477500
 30
0.0
 10
-17.267800
 20
199.732200
 30
0.0
 10
-17.522500
 20
200.030500
 30
0.0
 10
-17.727500
 20
200.365000
 30
0.0
 10
-17.877600
 20
200.727500
 30
0.0
 10
-17.969200
 20
201.108900
 30
0.0
 10
-18.000000
 20
201.500000
 30
0.0
 10
-17.969200
 20
201.891100
 30
0.0
 10
-17.877600
 20
202.272500
 30
0.0
 10
-17.727500
 20
202.635000
 30
0.0
 10
-17.522500
 20
202.969500
 30
0.0
 10
-17.267800
 20
203.267800
 30
0.0
 10
-16.969500
 20
203.522500
 30
0.0
 10
-16.635000
 20
203.727500
 30
0.0
 10
-16.272500
 20
203.877600
 30
0.0
 10
-15.891100
 20
203.969200
 30
0.0
 10
-15.500000
 20
204.000000
 30
0.0
 10
-15.108900
 20
203.969200
 30
0.0
 10
-14.727500
 20
203.877600
 30
0.0
 10
-14.365000
 20
203.727500
 30
0.0
 10
-14.030500
 20
203.522500
 30
0.0
 10
-13.732200
 20
203.267800
 30
0.0
 10
-13.477500
 20
202.969500
 30
0.0
 10
-13.272500
 20
202.635000
 30
0.0
 10
-13.122400
 20
202.272500
 30
0.0
 10
-13.030800
 20
201.891100
 30
0.0
 10
-13.000000
 20
201.500000
 30
0.0
 10
-13.030800
 20
201.108900
 30
0.0
 10
-13.122400
 20
200.727500
 30
0.0
 10
-13.272500
 20
200.365000
 30
0.0
 10
-13.477500
 20
200.030500
 30
0.0
 10
-13.732200
 20
199.732200
 30
0.0
 10
-14.030500
 20
199.477500
 30
0.0
 10
-14.365000
 20
199.272500
 30
0.0
 10
-14.727500
 20
199.122400
 30
0.0
 10
-15.108900
 20
199.030800
 30
0.0
 10
-15.500000
 20
199.000000
 30
0.0
  0
LWPOLYLINE
  5
10f
100
AcDbEntity
  8
0
 62
7
100
AcDbPolyline
 90
40
 70
1
 10
-100.641000
 20
199.030800
 30
0.0
 10
-101.023000
 20
199.122400
 30
0.0
 10
-101.385000
 20
199.272500
 30
0.0
 10
-101.719000
 20
199.477500
 30
0.0
 10
-102.018000
 20
199.732200
 30
0.0
 10
-102.273000
 20
200.030500
 30
0.0
 10
-102.478000
 20
200.365000
 30
0.0
 10
-102.628000
 20
200.727500
 30
0.0
 10
-102.719000
 20
201.108900
 30
0.0
 10
-102.750000
 20
201.500000
 30
0.0
 10
-102.719000
 20
201.891100
 30
0.0
 10
-102.628000
 20
202.272500
 30
0.0
 10
-102.478000
 20
202.635000
 30
0.0
 10
-102.273000
 20
202.969500
 30
0.0
 10
-102.018000
 20
203.267800
 30
0.0
 10
-101.719000
 20
203.522500
 30
0.0
 10
-101.385000
 20
203.727500
 30
0.0
 10
-101.023000
 20
203.877600
 30
0.0
 10
-100.641000
 20
203.969200
 30
0.0
 10
-100.250000
 20
204.000000
 30
0.0
 10
-99.858900
 20
203.969200
 30
0.0
 10
-99.477500
 20
203.877600
 30
0.0
 10
-99.115000
 20
203.727500
 30
0.0
 10
-98.780500
 20
203.522500
 30
0.0
 10
-98.482200
 20
203.267800
 30
0.0
 10
-98.227500
 20
202.969500
 30
0.0
 10
-98.022500
 20
202.635000
 30
0.0
 10
-97.872400
 20
202.272500
 30
0.0
 10
-97.780800
 20
201.891100
 30
0.0
 10
-97.750000
 20
201.500000
 30
0.0
 10
-97.780800
 20
201.108900
 30
0.0
 10
-97.872400
 20
200.727500
 30
0.0
 10
-98.022500
 20
200.365000
 30
0.0
 10
-98.227500
 20
200.030500
 30
0.0
 10
-98.482200
 20
199.732200
 30
0.0
 10
-98.780500
 20
199.477500
 30
0.0
 10
-99.115000
 20
199.272500
 30
0.0
 10
-99.477500
 20
199.122400
 30
0.0
 10
-99.858900
 20
199.030800
 30
0.0
 10
-100.250000
 20
199.000000
 30
0.0
  0
LWPOLYLINE
  5
110
100
AcDbEntity
  8
0
 62
7
100
AcDbPolyline
 90
40
 70
1
 10
-70.141100
 20
199.030800
 30
0.0
 10
-70.522500
 20
199.122400
 30
0.0
 10
-70.885000
 20
199.272500
 30
0.0
 10
-71.219500
 20
199.477500
 30
0.0
 10
-71.517800
 20
199.732200
 30
0.0
 10
-71.772500
 20
200.030500
 30
0.0
 10
-71.977500
 20
200.365000
 30
0.0
 10
-72.127600
 20
200.727500
 30
0.0
 10
-72.219200
 20
201.108900
 30
0.0
 10
-72.250000
 20
201.500000
 30
0.0
 10
-72.219200
 20
201.891100
 30
0.0
 10
-72.127600
 20
202.272500
 30
0.0
 10
-71.977500
 20
202.635000
 30
0.0
 10
-71.772500
 20
202.969500
 30
0.0
 10
-71.517800
 20
203.267800
 30
0.0
 10
-71.219500
 20
203.522500
 30
0.0
 10
-70.885000
 20
203.727500
 30
0.0
 10
-70.522500
 20
203.877600
 30
0.0
 10
-70.141100
 20
203.969200
 30
0.0
 10
-69.750000
 20
204.000000
 30
0.0
 10
-69.358900
 20
203.969200
 30
0.0
 10
-68.977500
 20
203.877600
 30
0.0
 10
-68.615000
 20
203.727500
 30
0.0
 10
-68.280500
 20
203.522500
 30
0.0
 10
-67.982200
 20
203.267800
 30
0.0
 10
-67.727500
 20
202.969500
 30
0.0
 10
-67.522500
 20
202.635000
 30
0.0
 10
-67.372400
 20
202.272500
 30
0.0
 10
-67.280800
 20
201.891100
 30
0.0
 10
-67.250000
 20
201.500000
 30
0.0
 10
-67.280800
 20
201.108900
 30
0.0
 10
-67.372400
 20
200.727500
 30
0.0
 10
-67.522500
 20
200.365000
 30
0.0
 10
-67.727500
 20
200.030500
 30
0.0
 10
-67.982200
 20
199.732200
 30
0.0
 10
-68.280500
 20
199.477500
 30
0.0
 10
-68.615000
 20
199.272500
 30
0.0
 10
-68.977500
 20
199.122400
 30
0.0
 10
-69.358900
 20
199.030800
 30
0.0
 10
-69.750000
 20
199.000000
 30
0.0
  0
LWPOLYLINE
  5
111
100
AcDbEntity
  8
0
 62
7
100
AcDbPolyline
 90
40
 70
1
 10
-100.641000
 20
181.030800
 30
0.0
 10
-101.023000
 20
181.122400
 30
0.0
 10
-101.385000
 20
181.272500
 30
0.0
 10
-101.719000
 20
181.477500
 30
0.0
 10
-102.018000
 20
181.732200
 30
0.0
 10
-102.273000
 20
182.030500
 30
0.0
 10
-102.478000
 20
182.365000
 30
0.0
 10
-102.628000
 20
182.727500
 30
0.0
 10
-102.719000
 20
183.108900
 30
0.0
 10
-102.750000
 20
183.500000
 30
0.0
 10
-102.719000
 20
183.891100
 30
0.0
 10
-102.628000
 20
184.272500
 30
0.0
 10
-102.478000
 20
184.635000
 30
0.0
 10
-102.273000
 20
184.969500
 30
0.0
 10
-102.018000
 20
185.267800
 30
0.0
 10
-101.719000
 20
185.522500
 30
0.0
 10
-101.385000
 20
185.727500
 30
0.0
 10
-101.023000
 20
185.877600
 30
0.0
 10
-100.641000
 20
185.969200
 30
0.0
 10
-100.250000
 20
186.000000
 30
0.0
 10
-99.858900
 20
185.969200
 30
0.0
 10
-99.477500
 20
185.877600
 30
0.0
 10
-99.115000
 20
185.727500
 30
0.0
 10
-98.780500
 20
185.522500
 30
0.0
 10
-98.482200
 20
185.267800
 30
0.0
 10
-98.227500
 20
184.969500
 30
0.0
 10
-98.022500
 20
184.635000
 30
0.0
 10
-97.872400
 20
184.272500
 30
0.0
 10
-97.780800
 20
183.891100
 30
0.0
 10
-97.750000
 20
183.500000
 30
0.0
 10
-97.780800
 20
183.108900
 30
0.0
 10
-97.872400
 20
182.727500
 30
0.0
 10
-98.022500
 20
182.365000
 30
0.0
 10
-98.227500
 20
182.030500
 30
0.0
 10
-98.482200
 20
181.732200
 30
0.0
 10
-98.780500
 20
181.477500
 30
0.0
 10
-99.115000
 20
181.272500
 30
0.0
 10
-99.477500
 20
181.122400
 30
0.0
 10
-99.858900
 20
181.030800
 30
0.0
 10
-100.250000
 20
181.000000
 30
0.0
  0
LWPOLYLINE
  5
112
100
AcDbEntity
  8
0
 62
7
100
AcDbPolyline
 90
40
 70
1
 10
-70.141100
 20
181.030800
 30
0.0
 10
-70.522500
 20
181.122400
 30
0.0
 10
-70.885000
 20
181.272500
 30
0.0
 10
-71.219500
 20
181.477500
 30
0.0
 10
-71.517800
 20
181.732200
 30
0.0
 10
-71.772500
 20
182.030500
 30
0.0
 10
-71.977500
 20
182.365000
 30
0.0
 10
-72.127600
 20
182.727500
 30
0.0
 10
-72.219200
 20
183.108900
 30
0.0
 10
-72.250000
 20
183.500000
 30
0.0
 10
-72.219200
 20
183.891100
 30
0.0
 10
-72.127600
 20
184.272500
 30
0.0
 10
-71.977500
 20
184.635000
 30
0.0
 10
-71.772500
 20
184.969500
 30
0.0
 10
-71.517800
 20
185.267800
 30
0.0
 10
-71.219500
 20
185.522500
 30
0.0
 10
-70.885000
 20
185.727500
 30
0.0
 10
-70.522500
 20
185.877600
 30
0.0
 10
-70.141100
 20
185.969200
 30
0.0
 10
-69.750000
 20
186.000000
 30
0.0
 10
-69.358900
 20
185.969200
 30
0.0
 10
-68.977500
 20
185.877600
 30
0.0
 10
-68.615000
 20
185.727500
 30
0.0
 10
-68.280500
 20
185.522500
 30
0.0
 10
-67.982200
 20
185.267800
 30
0.0
 10
-67.727500
 20
184.969500
 30
0.0
 10
-67.522500
 20
184.635000
 30
0.0
 10
-67.372400
 20
184.272500
 30
0.0
 10
-67.280800
 20
183.891100
 30
0.0
 10
-67.250000
 20
183.500000
 30
0.0
 10
-67.280800
 20
183.108900
 30
0.0
 10
-67.372400
 20
182.727500
 30
0.0
 10
-67.522500
 20
182.365000
 30
0.0
 10
-67.727500
 20
182.030500
 30
0.0
 10
-67.982200
 20
181.732200
 30
0.0
 10
-68.280500
 20
181.477500
 30
0.0
 10
-68.615000
 20
181.272500
 30
0.0
 10
-68.977500
 20
181.122400
 30
0.0
 10
-69.358900
 20
181.030800
 30
0.0
 10
-69.750000
 20
181.000000
 30
0.0
  0
LWPOLYLINE
  5
113
100
AcDbEntity
  8
0
 62
7
100
AcDbPolyline
 90
40
 70
1
 10
-15.891100
 20
179.030800
 30
0.0
 10
-16.272500
 20
179.122400
 30
0.0
 10
-16.635000
 20
179.272500
 30
0.0
 10
-16.969500
 20
179.477500
 30
0.0
 10
-17.267800
 20
179.732200
 30
0.0
 10
-17.522500
 20
180.030500
 30
0.0
 10
-17.727500
 20
180.365000
 30
0.0
 10
-17.877600
 20
180.727500
 30
0.0
 10
-17.969200
 20
181.108900
 30
0.0
 10
-18.000000
 20
181.500000
 30
0.0
 10
-17.969200
 20
181.891100
 30
0.0
 10
-17.877600
 20
182.272500
 30
0.0
 10
-17.727500
 20
182.635000
 30
0.0
 10
-17.522500
 20
182.969500
 30
0.0
 10
-17.267800
 20
183.267800
 30
0.0
 10
-16.969500
 20
183.522500
 30
0.0
 10
-16.635000
 20
183.727500
 30
0.0
 10
-16.272500
 20
183.877600
 30
0.0
 10
-15.891100
 20
183.969200
 30
0.0
 10
-15.500000
 20
184.000000
 30
0.0
 10
-15.108900
 20
183.969200
 30
0.0
 10
-14.727500
 20
183.877600
 30
0.0
 10
-14.365000
 20
183.727500
 30
0.0
 10
-14.030500
 20
183.522500
 30
0.0
 10
-13.732200
 20
183.267800
 30
0.0
 10
-13.477500
 20
182.969500
 30
0.0
 10
-13.272500
 20
182.635000
 30
0.0
 10
-13.122400
 20
182.272500
 30
0.0
 10
-13.030800
 20
181.891100
 30
0.0
 10
-13.000000
 20
181.500000
 30
0.0
 10
-13.030800
 20
181.108900
 30
0.0
 10
-13.122400
 20
180.727500
 30
0.0
 10
-13.272500
 20
180.365000
 30
0.0
 10
-13.477500
 20
180.030500
 30
0.0
 10
-13.732200
 20
179.732200
 30
0.0
 10
-14.030500
 20
179.477500
 30
0.0
 10
-14.365000
 20
179.272500
 30
0.0
 10
-14.727500
 20
179.122400
 30
0.0
 10
-15.108900
 20
179.030800
 30
0.0
 10
-15.500000
 20
179.000000
 30
0.0
  0
LWPOLYLINE
  5
114
100
AcDbEntity
  8
0
 62
7
100
AcDbPolyline
 90
24
 70
1
 10
106.802000
 20
121.413000
 30
0.0
 10
106.402000
 20
121.562000
 30
0.0
 10
106.061000
 20
121.818000
 30
0.0
 10
103.939000
 20
123.939000
 30
0.0
 10
103.683000
 20
124.281000
 30
0.0
 10
103.534000
 20
124.681000
 30
0.0
 10
103.504000
 20
125.107000
 30
0.0
 10
103.595000
 20
125.524000
 30
0.0
 10
103.799000
 20
125.899000
 30
0.0
 10
104.101000
 20
126.201000
 30
0.0
 10
104.476000
 20
126.405000
 30
0.0
 10
104.893000
 20
126.496000
 30
0.0
 10
105.319000
 20
126.466000
 30
0.0
 10
105.719000
 20
126.317000
 30
0.0
 10
106.061000
 20
126.061000
 30
0.0
 10
108.182000
 20
123.939000
 30
0.0
 10
108.438000
 20
123.598000
 30
0.0
 10
108.587000
 20
123.198000
 30
0.0
 10
108.617000
 20
122.772000
 30
0.0
 10
108.527000
 20
122.354000
 30
0.0
 10
108.322000
 20
121.980000
 30
0.0
 10
108.020000
 20
121.678000
 30
0.0
 10
107.646000
 20
121.473000
 30
0.0
 10
107.228000
 20
121.383000
 30
0.0
  0
LWPOLYLINE
  5
115
100
AcDbEntity
  8
0
 62
7
100
AcDbPolyline
 90
24
 70
1
 10
-107.646000
 20
121.473000
 30
0.0
 10
-108.020000
 20
121.678000
 30
0.0
 10
-108.322000
 20
121.980000
 30
0.0
 10
-108.527000
 20
122.354000
 30
0.0
 10
-108.617000
 20
122.772000
 30
0.0
 10
-108.587000
 20
123.198000
 30
0.0
 10
-108.438000
 20
123.598000
 30
0.0
 10
-108.182000
 20
123.939000
 30
0.0
 10
-106.061000
 20
126.061000
 30
0.0
 10
-105.719000
 20
126.317000
 30
0.0
 10
-105.319000
 20
126.466000
 30
0.0
 10
-104.893000
 20
126.496000
 30
0.0
 10
-104.476000
 20
126.405000
 30
0.0
 10
-104.101000
 20
126.201000
 30
0.0
 10
-103.799000
 20
125.899000
 30
0.0
 10
-103.595000
 20
125.524000
 30
0.0
 10
-103.504000
 20
125.107000
 30
0.0
 10
-103.534000
 20
124.681000
 30
0.0
 10
-103.683000
 20
124.281000
 30
0.0
 10
-103.939000
 20
123.939000
 30
0.0
 10
-106.061000
 20
121.818000
 30
0.0
 10
-106.402000
 20
121.562000
 30
0.0
 10
-106.802000
 20
121.413000
 30
0.0
 10
-107.228000
 20
121.383000
 30
0.0
  0
ENDSEC
  0
SECTION
  2
OBJECTS
  0
DICTIONARY
  5
C
330
0
100
AcDbDictionary
  3
ACAD_GROUP
350
D
  3
ACAD_MLINESTYLE
350
17
  0
DICTIONARY
  5
D
330
C
100
AcDbDictionary
  0
DICTIONARY
  5
1A
330
C
100
AcDbDictionary
  0
DICTIONARY
  5
17
330
C
100
AcDbDictionary
  3
STANDARD
350
18
  0
DICTIONARY
  5
19
330
C
100
AcDbDictionary
  0
ENDSEC
  0
EOF
