  0
SECTION
  2
HEADER
  9
$ACADVER
  1
AC1014
  9
$HANDSEED
  5
FFFF
  9
$MEASUREMENT
 70
     1
  0
ENDSEC
  0
SECTION
  2
TABLES
  0
TABLE
  2
VPORT
  5
8
330
0
100
AcDbSymbolTable
 70
     4
  0
VPORT
  5
2E
330
8
100
AcDbSymbolTableRecord
100
AcDbViewportTableRecord
  2
*ACTIVE
 70
     0
 10
0.0
 20
0.0
 11
1.0
 21
1.0
 12
210.0
 22
148.5
 13
0.0
 23
0.0
 14
10.0
 24
10.0
 15
10.0
 25
10.0
 16
0.0
 26
0.0
 36
1.0
 17
0.0
 27
0.0
 37
0.0
 40
341.0
 41
1.24
 42
50.0
 43
0.0
 44
0.0
 50
0.0
 51
0.0
 71
     0
 72
   100
 73
     1
 74
     3
 75
     0
 76
     0
 77
     0
 78
     0
  0
ENDTAB
  0
TABLE
  2
LTYPE
  5
5
330
0
100
AcDbSymbolTable
 70
     1
  0
LTYPE
  5
14
330
5
100
AcDbSymbolTableRecord
100
AcDbLinetypeTableRecord
  2
BYBLOCK
 70
     0
  3

 72
    65
 73
     0
 40
0.0
  0
LTYPE
  5
15
330
5
100
AcDbSymbolTableRecord
100
AcDbLinetypeTableRecord
  2
BYLAYER
 70
     0
  3

 72
    65
 73
     0
 40
0.0
  0
LTYPE
  5
16
330
5
100
AcDbSymbolTableRecord
100
AcDbLinetypeTableRecord
  2
CONTINUOUS
 70
     0
  3
Solid line
 72
    65
 73
     0
 40
0.0
  0
ENDTAB
  0
TABLE
  2
LAYER
  5
2
100
AcDbSymbolTable
 70
1
  0
LAYER
  5
50
100
AcDbSymbolTableRecord
100
AcDbLayerTableRecord
  2
0
 70
0
  6
CONTINUOUS
  0
ENDTAB
  0
TABLE
  2
STYLE
  5
3
330
0
100
AcDbSymbolTable
 70
     1
  0
STYLE
  5
11
330
3
100
AcDbSymbolTableRecord
100
AcDbTextStyleTableRecord
  2
STANDARD
 70
     0
 40
0.0
 41
1.0
 50
0.0
 71
     0
 42
2.5
  3
txt
  4

  0
ENDTAB
  0
TABLE
  2
VIEW
  5
6
330
0
100
AcDbSymbolTable
 70
     0
  0
ENDTAB
  0
TABLE
  2
UCS
  5
7
330
0
100
AcDbSymbolTable
 70
     0
  0
ENDTAB
  0
TABLE
  2
APPID
  5
9
330
0
100
AcDbSymbolTable
 70
     2
  0
APPID
  5
12
330
9
100
AcDbSymbolTableRecord
100
AcDbRegAppTableRecord
  2
ACAD
 70
     0
  0
ENDTAB
  0
TABLE
  2
DIMSTYLE
  5
A
330
0
100
AcDbSymbolTable
 70
     1
  0
DIMSTYLE
105
27
330
A
100
AcDbSymbolTableRecord
100
AcDbDimStyleTableRecord
  2
ISO-25
 70
     0
  3

  4

  5

  6

  7

 40
1.0
 41
2.5
 42
0.625
 43
3.75
 44
1.25
 45
0.0
 46
0.0
 47
0.0
 48
0.0
140
2.5
141
2.5
142
0.0
143
0.03937007874016
144
1.0
145
0.0
146
1.0
147
0.625
 71
     0
 72
     0
 73
     0
 74
     0
 75
     0
 76
     0
 77
     1
 78
     8
170
     0
171
     3
172
     1
173
     0
174
     0
175
     0
176
     0
177
     0
178
     0
270
     2
271
     2
272
     2
273
     2
274
     3
340
11
275
     0
280
     0
281
     0
282
     0
283
     0
284
     8
285
     0
286
     0
287
     3
288
     0
  0
ENDTAB
  0
TABLE
  2
BLOCK_RECORD
  5
1
330
0
100
AcDbSymbolTable
 70
     1
  0
BLOCK_RECORD
  5
1F
330
1
100
AcDbSymbolTableRecord
100
AcDbBlockTableRecord
  2
*MODEL_SPACE
  0
BLOCK_RECORD
  5
1B
330
1
100
AcDbSymbolTableRecord
100
AcDbBlockTableRecord
  2
*PAPER_SPACE
  0
ENDTAB
  0
ENDSEC
  0
SECTION
  2
BLOCKS
  0
BLOCK
  5
20
330
1F
100
AcDbEntity
  8
0
100
AcDbBlockBegin
  2
*MODEL_SPACE
 70
     0
 10
0.0
 20
0.0
 30
0.0
  3
*MODEL_SPACE
  1

  0
ENDBLK
  5
21
330
1F
100
AcDbEntity
  8
0
100
AcDbBlockEnd
  0
BLOCK
  5
1C
330
1B
100
AcDbEntity
 67
     1
  8
0
100
AcDbBlockBegin
  2
*PAPER_SPACE
  1

  0
ENDBLK
  5
1D
330
1B
100
AcDbEntity
 67
     1
  8
0
100
AcDbBlockEnd
  0
ENDSEC
  0
SECTION
  2
ENTITIES
  0
LWPOLYLINE
  5
100
100
AcDbEntity
  8
0
 62
7
100
AcDbPolyline
 90
28
 70
1
 10
-95.343100
 20
119.000000
 30
0.0
 10
95.343100
 20
119.000000
 30
0.0
 10
100.000000
 20
114.343000
 30
0.0
 10
108.000000
 20
114.343000
 30
0.0
 10
113.657000
 20
120.000000
 30
0.0
 10
113.657000
 20
128.000000
 30
0.0
 10
109.000000
 20
132.656900
 30
0.0
 10
109.000000
 20
219.343150
 30
0.0
 10
113.657000
 20
224.000000
 30
0.0
 10
113.657000
 20
232.000000
 30
0.0
 10
109.000000
 20
236.656850
 30
0.0
 10
109.000000
 20
323.343100
 30
0.0
 10
113.657000
 20
328.000000
 30
0.0
 10
113.657000
 20
336.000000
 30
0.0
 10
108.000000
 20
341.657000
 30
0.0
 10
100.000000
 20
341.657000
 30
0.0
 10
95.343100
 20
337.000000
 30
0.0
 10
-95.343100
 20
337.000000
 30
0.0
 10
-100.000000
 20
341.657000
 30
0.0
 10
-108.000000
 20
341.657000
 30
0.0
 10
-113.657000
 20
336.000000
 30
0.0
 10
-113.657000
 20
328.000000
 30
0.0
 10
-109.000000
 20
323.343100
 30
0.0
 10
-109.000000
 20
132.656900
 30
0.0
 10
-113.657000
 20
128.000000
 30
0.0
 10
-113.657000
 20
120.000000
 30
0.0
 10
-108.000000
 20
114.343000
 30
0.0
 10
-100.000000
 20
114.343000
 30
0.0
  0
LWPOLYLINE
  5
101
100
AcDbEntity
  8
0
 62
7
100
AcDbPolyline
 90
24
 70
1
 10
-104.319000
 20
330.534000
 30
0.0
 10
-104.719000
 20
330.683000
 30
0.0
 10
-105.061000
 20
330.939000
 30
0.0
 10
-107.182000
 20
333.061000
 30
0.0
 10
-107.438000
 20
333.402000
 30
0.0
 10
-107.587000
 20
333.802000
 30
0.0
 10
-107.617000
 20
334.228000
 30
0.0
 10
-107.527000
 20
334.646000
 30
0.0
 10
-107.322000
 20
335.020000
 30
0.0
 10
-107.020000
 20
335.322000
 30
0.0
 10
-106.646000
 20
335.527000
 30
0.0
 10
-106.228000
 20
335.617000
 30
0.0
 10
-105.802000
 20
335.587000
 30
0.0
 10
-105.402000
 20
335.438000
 30
0.0
 10
-105.061000
 20
335.182000
 30
0.0
 10
-102.939000
 20
333.061000
 30
0.0
 10
-102.683000
 20
332.719000
 30
0.0
 10
-102.534000
 20
332.319000
 30
0.0
 10
-102.504000
 20
331.893000
 30
0.0
 10
-102.595000
 20
331.476000
 30
0.0
 10
-102.799000
 20
331.101000
 30
0.0
 10
-103.101000
 20
330.799000
 30
0.0
 10
-103.476000
 20
330.595000
 30
0.0
 10
-103.893000
 20
330.504000
 30
0.0
  0
LWPOLYLINE
  5
102
100
AcDbEntity
  8
0
 62
7
100
AcDbPolyline
 90
24
 70
1
 10
103.476000
 20
330.595000
 30
0.0
 10
103.101000
 20
330.799000
 30
0.0
 10
102.799000
 20
331.101000
 30
0.0
 10
102.595000
 20
331.476000
 30
0.0
 10
102.504000
 20
331.893000
 30
0.0
 10
102.534000
 20
332.319000
 30
0.0
 10
102.683000
 20
332.719000
 30
0.0
 10
102.939000
 20
333.061000
 30
0.0
 10
105.061000
 20
335.182000
 30
0.0
 10
105.402000
 20
335.438000
 30
0.0
 10
105.802000
 20
335.587000
 30
0.0
 10
106.228000
 20
335.617000
 30
0.0
 10
106.646000
 20
335.527000
 30
0.0
 10
107.020000
 20
335.322000
 30
0.0
 10
107.322000
 20
335.020000
 30
0.0
 10
107.527000
 20
334.646000
 30
0.0
 10
107.617000
 20
334.228000
 30
0.0
 10
107.587000
 20
333.802000
 30
0.0
 10
107.438000
 20
333.402000
 30
0.0
 10
107.182000
 20
333.061000
 30
0.0
 10
105.061000
 20
330.939000
 30
0.0
 10
104.719000
 20
330.683000
 30
0.0
 10
104.319000
 20
330.534000
 30
0.0
 10
103.893000
 20
330.504000
 30
0.0
  0
LWPOLYLINE
  5
103
100
AcDbEntity
  8
0
 62
7
100
AcDbPolyline
 90
40
 70
1
 10
99.858900
 20
274.530800
 30
0.0
 10
99.477500
 20
274.622400
 30
0.0
 10
99.115000
 20
274.772500
 30
0.0
 10
98.780500
 20
274.977500
 30
0.0
 10
98.482200
 20
275.232200
 30
0.0
 10
98.227500
 20
275.530500
 30
0.0
 10
98.022500
 20
275.865000
 30
0.0
 10
97.872400
 20
276.227500
 30
0.0
 10
97.780800
 20
276.608900
 30
0.0
 10
97.750000
 20
277.000000
 30
0.0
 10
97.780800
 20
277.391100
 30
0.0
 10
97.872400
 20
277.772500
 30
0.0
 10
98.022500
 20
278.135000
 30
0.0
 10
98.227500
 20
278.469500
 30
0.0
 10
98.482200
 20
278.767800
 30
0.0
 10
98.780500
 20
279.022500
 30
0.0
 10
99.115000
 20
279.227500
 30
0.0
 10
99.477500
 20
279.377600
 30
0.0
 10
99.858900
 20
279.469200
 30
0.0
 10
100.250000
 20
279.500000
 30
0.0
 10
100.641000
 20
279.469200
 30
0.0
 10
101.023000
 20
279.377600
 30
0.0
 10
101.385000
 20
279.227500
 30
0.0
 10
101.719000
 20
279.022500
 30
0.0
 10
102.018000
 20
278.767800
 30
0.0
 10
102.273000
 20
278.469500
 30
0.0
 10
102.478000
 20
278.135000
 30
0.0
 10
102.628000
 20
277.772500
 30
0.0
 10
102.719000
 20
277.391100
 30
0.0
 10
102.750000
 20
277.000000
 30
0.0
 10
102.719000
 20
276.608900
 30
0.0
 10
102.628000
 20
276.227500
 30
0.0
 10
102.478000
 20
275.865000
 30
0.0
 10
102.273000
 20
275.530500
 30
0.0
 10
102.018000
 20
275.232200
 30
0.0
 10
101.719000
 20
274.977500
 30
0.0
 10
101.385000
 20
274.772500
 30
0.0
 10
101.023000
 20
274.622400
 30
0.0
 10
100.641000
 20
274.530800
 30
0.0
 10
100.250000
 20
274.500000
 30
0.0
  0
LWPOLYLINE
  5
104
100
AcDbEntity
  8
0
 62
7
100
AcDbPolyline
 90
40
 70
1
 10
69.358900
 20
274.530800
 30
0.0
 10
68.977500
 20
274.622400
 30
0.0
 10
68.615000
 20
274.772500
 30
0.0
 10
68.280500
 20
274.977500
 30
0.0
 10
67.982200
 20
275.232200
 30
0.0
 10
67.727500
 20
275.530500
 30
0.0
 10
67.522500
 20
275.865000
 30
0.0
 10
67.372400
 20
276.227500
 30
0.0
 10
67.280800
 20
276.608900
 30
0.0
 10
67.250000
 20
277.000000
 30
0.0
 10
67.280800
 20
277.391100
 30
0.0
 10
67.372400
 20
277.772500
 30
0.0
 10
67.522500
 20
278.135000
 30
0.0
 10
67.727500
 20
278.469500
 30
0.0
 10
67.982200
 20
278.767800
 30
0.0
 10
68.280500
 20
279.022500
 30
0.0
 10
68.615000
 20
279.227500
 30
0.0
 10
68.977500
 20
279.377600
 30
0.0
 10
69.358900
 20
279.469200
 30
0.0
 10
69.750000
 20
279.500000
 30
0.0
 10
70.141100
 20
279.469200
 30
0.0
 10
70.522500
 20
279.377600
 30
0.0
 10
70.885000
 20
279.227500
 30
0.0
 10
71.219500
 20
279.022500
 30
0.0
 10
71.517800
 20
278.767800
 30
0.0
 10
71.772500
 20
278.469500
 30
0.0
 10
71.977500
 20
278.135000
 30
0.0
 10
72.127600
 20
277.772500
 30
0.0
 10
72.219200
 20
277.391100
 30
0.0
 10
72.250000
 20
277.000000
 30
0.0
 10
72.219200
 20
276.608900
 30
0.0
 10
72.127600
 20
276.227500
 30
0.0
 10
71.977500
 20
275.865000
 30
0.0
 10
71.772500
 20
275.530500
 30
0.0
 10
71.517800
 20
275.232200
 30
0.0
 10
71.219500
 20
274.977500
 30
0.0
 10
70.885000
 20
274.772500
 30
0.0
 10
70.522500
 20
274.622400
 30
0.0
 10
70.141100
 20
274.530800
 30
0.0
 10
69.750000
 20
274.500000
 30
0.0
  0
LWPOLYLINE
  5
105
100
AcDbEntity
  8
0
 62
7
100
AcDbPolyline
 90
40
 70
1
 10
99.858900
 20
256.530800
 30
0.0
 10
99.477500
 20
256.622400
 30
0.0
 10
99.115000
 20
256.772500
 30
0.0
 10
98.780500
 20
256.977500
 30
0.0
 10
98.482200
 20
257.232200
 30
0.0
 10
98.227500
 20
257.530500
 30
0.0
 10
98.022500
 20
257.865000
 30
0.0
 10
97.872400
 20
258.227500
 30
0.0
 10
97.780800
 20
258.608900
 30
0.0
 10
97.750000
 20
259.000000
 30
0.0
 10
97.780800
 20
259.391100
 30
0.0
 10
97.872400
 20
259.772500
 30
0.0
 10
98.022500
 20
260.135000
 30
0.0
 10
98.227500
 20
260.469500
 30
0.0
 10
98.482200
 20
260.767800
 30
0.0
 10
98.780500
 20
261.022500
 30
0.0
 10
99.115000
 20
261.227500
 30
0.0
 10
99.477500
 20
261.377600
 30
0.0
 10
99.858900
 20
261.469200
 30
0.0
 10
100.250000
 20
261.500000
 30
0.0
 10
100.641000
 20
261.469200
 30
0.0
 10
101.023000
 20
261.377600
 30
0.0
 10
101.385000
 20
261.227500
 30
0.0
 10
101.719000
 20
261.022500
 30
0.0
 10
102.018000
 20
260.767800
 30
0.0
 10
102.273000
 20
260.469500
 30
0.0
 10
102.478000
 20
260.135000
 30
0.0
 10
102.628000
 20
259.772500
 30
0.0
 10
102.719000
 20
259.391100
 30
0.0
 10
102.750000
 20
259.000000
 30
0.0
 10
102.719000
 20
258.608900
 30
0.0
 10
102.628000
 20
258.227500
 30
0.0
 10
102.478000
 20
257.865000
 30
0.0
 10
102.273000
 20
257.530500
 30
0.0
 10
102.018000
 20
257.232200
 30
0.0
 10
101.719000
 20
256.977500
 30
0.0
 10
101.385000
 20
256.772500
 30
0.0
 10
101.023000
 20
256.622400
 30
0.0
 10
100.641000
 20
256.530800
 30
0.0
 10
100.250000
 20
256.500000
 30
0.0
  0
LWPOLYLINE
  5
106
100
AcDbEntity
  8
0
 62
7
100
AcDbPolyline
 90
40
 70
1
 10
69.358900
 20
256.530800
 30
0.0
 10
68.977500
 20
256.622400
 30
0.0
 10
68.615000
 20
256.772500
 30
0.0
 10
68.280500
 20
256.977500
 30
0.0
 10
67.982200
 20
257.232200
 30
0.0
 10
67.727500
 20
257.530500
 30
0.0
 10
67.522500
 20
257.865000
 30
0.0
 10
67.372400
 20
258.227500
 30
0.0
 10
67.280800
 20
258.608900
 30
0.0
 10
67.250000
 20
259.000000
 30
0.0
 10
67.280800
 20
259.391100
 30
0.0
 10
67.372400
 20
259.772500
 30
0.0
 10
67.522500
 20
260.135000
 30
0.0
 10
67.727500
 20
260.469500
 30
0.0
 10
67.982200
 20
260.767800
 30
0.0
 10
68.280500
 20
261.022500
 30
0.0
 10
68.615000
 20
261.227500
 30
0.0
 10
68.977500
 20
261.377600
 30
0.0
 10
69.358900
 20
261.469200
 30
0.0
 10
69.750000
 20
261.500000
 30
0.0
 10
70.141100
 20
261.469200
 30
0.0
 10
70.522500
 20
261.377600
 30
0.0
 10
70.885000
 20
261.227500
 30
0.0
 10
71.219500
 20
261.022500
 30
0.0
 10
71.517800
 20
260.767800
 30
0.0
 10
71.772500
 20
260.469500
 30
0.0
 10
71.977500
 20
260.135000
 30
0.0
 10
72.127600
 20
259.772500
 30
0.0
 10
72.219200
 20
259.391100
 30
0.0
 10
72.250000
 20
259.000000
 30
0.0
 10
72.219200
 20
258.608900
 30
0.0
 10
72.127600
 20
258.227500
 30
0.0
 10
71.977500
 20
257.865000
 30
0.0
 10
71.772500
 20
257.530500
 30
0.0
 10
71.517800
 20
257.232200
 30
0.0
 10
71.219500
 20
256.977500
 30
0.0
 10
70.885000
 20
256.772500
 30
0.0
 10
70.522500
 20
256.622400
 30
0.0
 10
70.141100
 20
256.530800
 30
0.0
 10
69.750000
 20
256.500000
 30
0.0
  0
LWPOLYLINE
  5
107
100
AcDbEntity
  8
0
 62
7
100
AcDbPolyline
 90
40
 70
1
 10
15.608900
 20
238.530800
 30
0.0
 10
15.227500
 20
238.622400
 30
0.0
 10
14.865000
 20
238.772500
 30
0.0
 10
14.530500
 20
238.977500
 30
0.0
 10
14.232200
 20
239.232200
 30
0.0
 10
13.977500
 20
239.530500
 30
0.0
 10
13.772500
 20
239.865000
 30
0.0
 10
13.622400
 20
240.227500
 30
0.0
 10
13.530800
 20
240.608900
 30
0.0
 10
13.500000
 20
241.000000
 30
0.0
 10
13.530800
 20
241.391100
 30
0.0
 10
13.622400
 20
241.772500
 30
0.0
 10
13.772500
 20
242.135000
 30
0.0
 10
13.977500
 20
242.469500
 30
0.0
 10
14.232200
 20
242.767800
 30
0.0
 10
14.530500
 20
243.022500
 30
0.0
 10
14.865000
 20
243.227500
 30
0.0
 10
15.227500
 20
243.377600
 30
0.0
 10
15.608900
 20
243.469200
 30
0.0
 10
16.000000
 20
243.500000
 30
0.0
 10
16.391100
 20
243.469200
 30
0.0
 10
16.772500
 20
243.377600
 30
0.0
 10
17.135000
 20
243.227500
 30
0.0
 10
17.469500
 20
243.022500
 30
0.0
 10
17.767800
 20
242.767800
 30
0.0
 10
18.022500
 20
242.469500
 30
0.0
 10
18.227500
 20
242.135000
 30
0.0
 10
18.377600
 20
241.772500
 30
0.0
 10
18.469200
 20
241.391100
 30
0.0
 10
18.500000
 20
241.000000
 30
0.0
 10
18.469200
 20
240.608900
 30
0.0
 10
18.377600
 20
240.227500
 30
0.0
 10
18.227500
 20
239.865000
 30
0.0
 10
18.022500
 20
239.530500
 30
0.0
 10
17.767800
 20
239.232200
 30
0.0
 10
17.469500
 20
238.977500
 30
0.0
 10
17.135000
 20
238.772500
 30
0.0
 10
16.772500
 20
238.622400
 30
0.0
 10
16.391100
 20
238.530800
 30
0.0
 10
16.000000
 20
238.500000
 30
0.0
  0
LWPOLYLINE
  5
108
100
AcDbEntity
  8
0
 62
7
100
AcDbPolyline
 90
40
 70
1
 10
-100.641000
 20
234.530790
 30
0.0
 10
-101.023000
 20
234.622360
 30
0.0
 10
-101.385000
 20
234.772490
 30
0.0
 10
-101.719000
 20
234.977460
 30
0.0
 10
-102.018000
 20
235.232240
 30
0.0
 10
-102.273000
 20
235.530550
 30
0.0
 10
-102.478000
 20
235.865040
 30
0.0
 10
-102.628000
 20
236.227460
 30
0.0
 10
-102.719000
 20
236.608920
 30
0.0
 10
-102.750000
 20
237.000000
 30
0.0
 10
-102.719000
 20
237.391080
 30
0.0
 10
-102.628000
 20
237.772540
 30
0.0
 10
-102.478000
 20
238.135000
 30
0.0
 10
-102.273000
 20
238.469500
 30
0.0
 10
-102.018000
 20
238.767800
 30
0.0
 10
-101.719000
 20
239.022500
 30
0.0
 10
-101.385000
 20
239.227500
 30
0.0
 10
-101.023000
 20
239.377600
 30
0.0
 10
-100.641000
 20
239.469200
 30
0.0
 10
-100.250000
 20
239.500000
 30
0.0
 10
-99.858900
 20
239.469200
 30
0.0
 10
-99.477500
 20
239.377600
 30
0.0
 10
-99.115000
 20
239.227500
 30
0.0
 10
-98.780500
 20
239.022500
 30
0.0
 10
-98.482200
 20
238.767800
 30
0.0
 10
-98.227500
 20
238.469500
 30
0.0
 10
-98.022500
 20
238.135000
 30
0.0
 10
-97.872400
 20
237.772540
 30
0.0
 10
-97.780800
 20
237.391080
 30
0.0
 10
-97.750000
 20
237.000000
 30
0.0
 10
-97.780800
 20
236.608920
 30
0.0
 10
-97.872400
 20
236.227460
 30
0.0
 10
-98.022500
 20
235.865040
 30
0.0
 10
-98.227500
 20
235.530550
 30
0.0
 10
-98.482200
 20
235.232240
 30
0.0
 10
-98.780500
 20
234.977460
 30
0.0
 10
-99.115000
 20
234.772490
 30
0.0
 10
-99.477500
 20
234.622360
 30
0.0
 10
-99.858900
 20
234.530790
 30
0.0
 10
-100.250000
 20
234.500000
 30
0.0
  0
LWPOLYLINE
  5
109
100
AcDbEntity
  8
0
 62
7
100
AcDbPolyline
 90
40
 70
1
 10
-70.141100
 20
234.530790
 30
0.0
 10
-70.522500
 20
234.622360
 30
0.0
 10
-70.885000
 20
234.772490
 30
0.0
 10
-71.219500
 20
234.977460
 30
0.0
 10
-71.517800
 20
235.232240
 30
0.0
 10
-71.772500
 20
235.530550
 30
0.0
 10
-71.977500
 20
235.865040
 30
0.0
 10
-72.127600
 20
236.227460
 30
0.0
 10
-72.219200
 20
236.608920
 30
0.0
 10
-72.250000
 20
237.000000
 30
0.0
 10
-72.219200
 20
237.391080
 30
0.0
 10
-72.127600
 20
237.772540
 30
0.0
 10
-71.977500
 20
238.135000
 30
0.0
 10
-71.772500
 20
238.469500
 30
0.0
 10
-71.517800
 20
238.767800
 30
0.0
 10
-71.219500
 20
239.022500
 30
0.0
 10
-70.885000
 20
239.227500
 30
0.0
 10
-70.522500
 20
239.377600
 30
0.0
 10
-70.141100
 20
239.469200
 30
0.0
 10
-69.750000
 20
239.500000
 30
0.0
 10
-69.358900
 20
239.469200
 30
0.0
 10
-68.977500
 20
239.377600
 30
0.0
 10
-68.615000
 20
239.227500
 30
0.0
 10
-68.280500
 20
239.022500
 30
0.0
 10
-67.982200
 20
238.767800
 30
0.0
 10
-67.727500
 20
238.469500
 30
0.0
 10
-67.522500
 20
238.135000
 30
0.0
 10
-67.372400
 20
237.772540
 30
0.0
 10
-67.280800
 20
237.391080
 30
0.0
 10
-67.250000
 20
237.000000
 30
0.0
 10
-67.280800
 20
236.608920
 30
0.0
 10
-67.372400
 20
236.227460
 30
0.0
 10
-67.522500
 20
235.865040
 30
0.0
 10
-67.727500
 20
235.530550
 30
0.0
 10
-67.982200
 20
235.232240
 30
0.0
 10
-68.280500
 20
234.977460
 30
0.0
 10
-68.615000
 20
234.772490
 30
0.0
 10
-68.977500
 20
234.622360
 30
0.0
 10
-69.358900
 20
234.530790
 30
0.0
 10
-69.750000
 20
234.500000
 30
0.0
  0
LWPOLYLINE
  5
10a
100
AcDbEntity
  8
0
 62
7
100
AcDbPolyline
 90
24
 70
1
 10
104.000000
 20
226.500000
 30
0.0
 10
103.577000
 20
226.560780
 30
0.0
 10
103.189000
 20
226.738130
 30
0.0
 10
102.866000
 20
227.017715
 30
0.0
 10
102.636000
 20
227.376892
 30
0.0
 10
102.515000
 20
227.786530
 30
0.0
 10
102.515000
 20
228.213470
 30
0.0
 10
102.636000
 20
228.623108
 30
0.0
 10
102.866000
 20
228.982285
 30
0.0
 10
103.189000
 20
229.261870
 30
0.0
 10
103.577000
 20
229.439220
 30
0.0
 10
104.000000
 20
229.500000
 30
0.0
 10
107.000000
 20
229.500000
 30
0.0
 10
107.423000
 20
229.439220
 30
0.0
 10
107.811000
 20
229.261870
 30
0.0
 10
108.134000
 20
228.982285
 30
0.0
 10
108.364000
 20
228.623108
 30
0.0
 10
108.485000
 20
228.213470
 30
0.0
 10
108.485000
 20
227.786530
 30
0.0
 10
108.364000
 20
227.376892
 30
0.0
 10
108.134000
 20
227.017715
 30
0.0
 10
107.811000
 20
226.738130
 30
0.0
 10
107.423000
 20
226.560780
 30
0.0
 10
107.000000
 20
226.500000
 30
0.0
  0
LWPOLYLINE
  5
10b
100
AcDbEntity
  8
0
 62
7
100
AcDbPolyline
 90
40
 70
1
 10
-100.641000
 20
216.530800
 30
0.0
 10
-101.023000
 20
216.622400
 30
0.0
 10
-101.385000
 20
216.772500
 30
0.0
 10
-101.719000
 20
216.977500
 30
0.0
 10
-102.018000
 20
217.232200
 30
0.0
 10
-102.273000
 20
217.530500
 30
0.0
 10
-102.478000
 20
217.865000
 30
0.0
 10
-102.628000
 20
218.227460
 30
0.0
 10
-102.719000
 20
218.608920
 30
0.0
 10
-102.750000
 20
219.000000
 30
0.0
 10
-102.719000
 20
219.391080
 30
0.0
 10
-102.628000
 20
219.772540
 30
0.0
 10
-102.478000
 20
220.134960
 30
0.0
 10
-102.273000
 20
220.469450
 30
0.0
 10
-102.018000
 20
220.767760
 30
0.0
 10
-101.719000
 20
221.022540
 30
0.0
 10
-101.385000
 20
221.227510
 30
0.0
 10
-101.023000
 20
221.377640
 30
0.0
 10
-100.641000
 20
221.469210
 30
0.0
 10
-100.250000
 20
221.500000
 30
0.0
 10
-99.858900
 20
221.469210
 30
0.0
 10
-99.477500
 20
221.377640
 30
0.0
 10
-99.115000
 20
221.227510
 30
0.0
 10
-98.780500
 20
221.022540
 30
0.0
 10
-98.482200
 20
220.767760
 30
0.0
 10
-98.227500
 20
220.469450
 30
0.0
 10
-98.022500
 20
220.134960
 30
0.0
 10
-97.872400
 20
219.772540
 30
0.0
 10
-97.780800
 20
219.391080
 30
0.0
 10
-97.750000
 20
219.000000
 30
0.0
 10
-97.780800
 20
218.608920
 30
0.0
 10
-97.872400
 20
218.227460
 30
0.0
 10
-98.022500
 20
217.865000
 30
0.0
 10
-98.227500
 20
217.530500
 30
0.0
 10
-98.482200
 20
217.232200
 30
0.0
 10
-98.780500
 20
216.977500
 30
0.0
 10
-99.115000
 20
216.772500
 30
0.0
 10
-99.477500
 20
216.622400
 30
0.0
 10
-99.858900
 20
216.530800
 30
0.0
 10
-100.250000
 20
216.500000
 30
0.0
  0
LWPOLYLINE
  5
10c
100
AcDbEntity
  8
0
 62
7
100
AcDbPolyline
 90
40
 70
1
 10
-70.141100
 20
216.530800
 30
0.0
 10
-70.522500
 20
216.622400
 30
0.0
 10
-70.885000
 20
216.772500
 30
0.0
 10
-71.219500
 20
216.977500
 30
0.0
 10
-71.517800
 20
217.232200
 30
0.0
 10
-71.772500
 20
217.530500
 30
0.0
 10
-71.977500
 20
217.865000
 30
0.0
 10
-72.127600
 20
218.227460
 30
0.0
 10
-72.219200
 20
218.608920
 30
0.0
 10
-72.250000
 20
219.000000
 30
0.0
 10
-72.219200
 20
219.391080
 30
0.0
 10
-72.127600
 20
219.772540
 30
0.0
 10
-71.977500
 20
220.134960
 30
0.0
 10
-71.772500
 20
220.469450
 30
0.0
 10
-71.517800
 20
220.767760
 30
0.0
 10
-71.219500
 20
221.022540
 30
0.0
 10
-70.885000
 20
221.227510
 30
0.0
 10
-70.522500
 20
221.377640
 30
0.0
 10
-70.141100
 20
221.469210
 30
0.0
 10
-69.750000
 20
221.500000
 30
0.0
 10
-69.358900
 20
221.469210
 30
0.0
 10
-68.977500
 20
221.377640
 30
0.0
 10
-68.615000
 20
221.227510
 30
0.0
 10
-68.280500
 20
221.022540
 30
0.0
 10
-67.982200
 20
220.767760
 30
0.0
 10
-67.727500
 20
220.469450
 30
0.0
 10
-67.522500
 20
220.134960
 30
0.0
 10
-67.372400
 20
219.772540
 30
0.0
 10
-67.280800
 20
219.391080
 30
0.0
 10
-67.250000
 20
219.000000
 30
0.0
 10
-67.280800
 20
218.608920
 30
0.0
 10
-67.372400
 20
218.227460
 30
0.0
 10
-67.522500
 20
217.865000
 30
0.0
 10
-67.727500
 20
217.530500
 30
0.0
 10
-67.982200
 20
217.232200
 30
0.0
 10
-68.280500
 20
216.977500
 30
0.0
 10
-68.615000
 20
216.772500
 30
0.0
 10
-68.977500
 20
216.622400
 30
0.0
 10
-69.358900
 20
216.530800
 30
0.0
 10
-69.750000
 20
216.500000
 30
0.0
  0
LWPOLYLINE
  5
10d
100
AcDbEntity
  8
0
 62
7
100
AcDbPolyline
 90
40
 70
1
 10
15.608900
 20
212.530800
 30
0.0
 10
15.227500
 20
212.622400
 30
0.0
 10
14.865000
 20
212.772500
 30
0.0
 10
14.530500
 20
212.977500
 30
0.0
 10
14.232200
 20
213.232200
 30
0.0
 10
13.977500
 20
213.530500
 30
0.0
 10
13.772500
 20
213.865000
 30
0.0
 10
13.622400
 20
214.227500
 30
0.0
 10
13.530800
 20
214.608900
 30
0.0
 10
13.500000
 20
215.000000
 30
0.0
 10
13.530800
 20
215.391100
 30
0.0
 10
13.622400
 20
215.772500
 30
0.0
 10
13.772500
 20
216.135000
 30
0.0
 10
13.977500
 20
216.469500
 30
0.0
 10
14.232200
 20
216.767800
 30
0.0
 10
14.530500
 20
217.022500
 30
0.0
 10
14.865000
 20
217.227500
 30
0.0
 10
15.227500
 20
217.377600
 30
0.0
 10
15.608900
 20
217.469200
 30
0.0
 10
16.000000
 20
217.500000
 30
0.0
 10
16.391100
 20
217.469200
 30
0.0
 10
16.772500
 20
217.377600
 30
0.0
 10
17.135000
 20
217.227500
 30
0.0
 10
17.469500
 20
217.022500
 30
0.0
 10
17.767800
 20
216.767800
 30
0.0
 10
18.022500
 20
216.469500
 30
0.0
 10
18.227500
 20
216.135000
 30
0.0
 10
18.377600
 20
215.772500
 30
0.0
 10
18.469200
 20
215.391100
 30
0.0
 10
18.500000
 20
215.000000
 30
0.0
 10
18.469200
 20
214.608900
 30
0.0
 10
18.377600
 20
214.227500
 30
0.0
 10
18.227500
 20
213.865000
 30
0.0
 10
18.022500
 20
213.530500
 30
0.0
 10
17.767800
 20
213.232200
 30
0.0
 10
17.469500
 20
212.977500
 30
0.0
 10
17.135000
 20
212.772500
 30
0.0
 10
16.772500
 20
212.622400
 30
0.0
 10
16.391100
 20
212.530800
 30
0.0
 10
16.000000
 20
212.500000
 30
0.0
  0
LWPOLYLINE
  5
10e
100
AcDbEntity
  8
0
 62
7
100
AcDbPolyline
 90
40
 70
1
 10
69.358900
 20
194.530800
 30
0.0
 10
68.977500
 20
194.622400
 30
0.0
 10
68.615000
 20
194.772500
 30
0.0
 10
68.280500
 20
194.977500
 30
0.0
 10
67.982200
 20
195.232200
 30
0.0
 10
67.727500
 20
195.530500
 30
0.0
 10
67.522500
 20
195.865000
 30
0.0
 10
67.372400
 20
196.227500
 30
0.0
 10
67.280800
 20
196.608900
 30
0.0
 10
67.250000
 20
197.000000
 30
0.0
 10
67.280800
 20
197.391100
 30
0.0
 10
67.372400
 20
197.772500
 30
0.0
 10
67.522500
 20
198.135000
 30
0.0
 10
67.727500
 20
198.469500
 30
0.0
 10
67.982200
 20
198.767800
 30
0.0
 10
68.280500
 20
199.022500
 30
0.0
 10
68.615000
 20
199.227500
 30
0.0
 10
68.977500
 20
199.377600
 30
0.0
 10
69.358900
 20
199.469200
 30
0.0
 10
69.750000
 20
199.500000
 30
0.0
 10
70.141100
 20
199.469200
 30
0.0
 10
70.522500
 20
199.377600
 30
0.0
 10
70.885000
 20
199.227500
 30
0.0
 10
71.219500
 20
199.022500
 30
0.0
 10
71.517800
 20
198.767800
 30
0.0
 10
71.772500
 20
198.469500
 30
0.0
 10
71.977500
 20
198.135000
 30
0.0
 10
72.127600
 20
197.772500
 30
0.0
 10
72.219200
 20
197.391100
 30
0.0
 10
72.250000
 20
197.000000
 30
0.0
 10
72.219200
 20
196.608900
 30
0.0
 10
72.127600
 20
196.227500
 30
0.0
 10
71.977500
 20
195.865000
 30
0.0
 10
71.772500
 20
195.530500
 30
0.0
 10
71.517800
 20
195.232200
 30
0.0
 10
71.219500
 20
194.977500
 30
0.0
 10
70.885000
 20
194.772500
 30
0.0
 10
70.522500
 20
194.622400
 30
0.0
 10
70.141100
 20
194.530800
 30
0.0
 10
69.750000
 20
194.500000
 30
0.0
  0
LWPOLYLINE
  5
10f
100
AcDbEntity
  8
0
 62
7
100
AcDbPolyline
 90
40
 70
1
 10
99.858900
 20
194.530800
 30
0.0
 10
99.477500
 20
194.622400
 30
0.0
 10
99.115000
 20
194.772500
 30
0.0
 10
98.780500
 20
194.977500
 30
0.0
 10
98.482200
 20
195.232200
 30
0.0
 10
98.227500
 20
195.530500
 30
0.0
 10
98.022500
 20
195.865000
 30
0.0
 10
97.872400
 20
196.227500
 30
0.0
 10
97.780800
 20
196.608900
 30
0.0
 10
97.750000
 20
197.000000
 30
0.0
 10
97.780800
 20
197.391100
 30
0.0
 10
97.872400
 20
197.772500
 30
0.0
 10
98.022500
 20
198.135000
 30
0.0
 10
98.227500
 20
198.469500
 30
0.0
 10
98.482200
 20
198.767800
 30
0.0
 10
98.780500
 20
199.022500
 30
0.0
 10
99.115000
 20
199.227500
 30
0.0
 10
99.477500
 20
199.377600
 30
0.0
 10
99.858900
 20
199.469200
 30
0.0
 10
100.250000
 20
199.500000
 30
0.0
 10
100.641000
 20
199.469200
 30
0.0
 10
101.023000
 20
199.377600
 30
0.0
 10
101.385000
 20
199.227500
 30
0.0
 10
101.719000
 20
199.022500
 30
0.0
 10
102.018000
 20
198.767800
 30
0.0
 10
102.273000
 20
198.469500
 30
0.0
 10
102.478000
 20
198.135000
 30
0.0
 10
102.628000
 20
197.772500
 30
0.0
 10
102.719000
 20
197.391100
 30
0.0
 10
102.750000
 20
197.000000
 30
0.0
 10
102.719000
 20
196.608900
 30
0.0
 10
102.628000
 20
196.227500
 30
0.0
 10
102.478000
 20
195.865000
 30
0.0
 10
102.273000
 20
195.530500
 30
0.0
 10
102.018000
 20
195.232200
 30
0.0
 10
101.719000
 20
194.977500
 30
0.0
 10
101.385000
 20
194.772500
 30
0.0
 10
101.023000
 20
194.622400
 30
0.0
 10
100.641000
 20
194.530800
 30
0.0
 10
100.250000
 20
194.500000
 30
0.0
  0
LWPOLYLINE
  5
110
100
AcDbEntity
  8
0
 62
7
100
AcDbPolyline
 90
40
 70
1
 10
-100.641000
 20
194.280800
 30
0.0
 10
-101.023000
 20
194.372400
 30
0.0
 10
-101.385000
 20
194.522500
 30
0.0
 10
-101.719000
 20
194.727500
 30
0.0
 10
-102.018000
 20
194.982200
 30
0.0
 10
-102.273000
 20
195.280500
 30
0.0
 10
-102.478000
 20
195.615000
 30
0.0
 10
-102.628000
 20
195.977500
 30
0.0
 10
-102.719000
 20
196.358900
 30
0.0
 10
-102.750000
 20
196.750000
 30
0.0
 10
-102.719000
 20
197.141100
 30
0.0
 10
-102.628000
 20
197.522500
 30
0.0
 10
-102.478000
 20
197.885000
 30
0.0
 10
-102.273000
 20
198.219500
 30
0.0
 10
-102.018000
 20
198.517800
 30
0.0
 10
-101.719000
 20
198.772500
 30
0.0
 10
-101.385000
 20
198.977500
 30
0.0
 10
-101.023000
 20
199.127600
 30
0.0
 10
-100.641000
 20
199.219200
 30
0.0
 10
-100.250000
 20
199.250000
 30
0.0
 10
-99.858900
 20
199.219200
 30
0.0
 10
-99.477500
 20
199.127600
 30
0.0
 10
-99.115000
 20
198.977500
 30
0.0
 10
-98.780500
 20
198.772500
 30
0.0
 10
-98.482200
 20
198.517800
 30
0.0
 10
-98.227500
 20
198.219500
 30
0.0
 10
-98.022500
 20
197.885000
 30
0.0
 10
-97.872400
 20
197.522500
 30
0.0
 10
-97.780800
 20
197.141100
 30
0.0
 10
-97.750000
 20
196.750000
 30
0.0
 10
-97.780800
 20
196.358900
 30
0.0
 10
-97.872400
 20
195.977500
 30
0.0
 10
-98.022500
 20
195.615000
 30
0.0
 10
-98.227500
 20
195.280500
 30
0.0
 10
-98.482200
 20
194.982200
 30
0.0
 10
-98.780500
 20
194.727500
 30
0.0
 10
-99.115000
 20
194.522500
 30
0.0
 10
-99.477500
 20
194.372400
 30
0.0
 10
-99.858900
 20
194.280800
 30
0.0
 10
-100.250000
 20
194.250000
 30
0.0
  0
LWPOLYLINE
  5
111
100
AcDbEntity
  8
0
 62
7
100
AcDbPolyline
 90
40
 70
1
 10
69.358900
 20
176.530800
 30
0.0
 10
68.977500
 20
176.622400
 30
0.0
 10
68.615000
 20
176.772500
 30
0.0
 10
68.280500
 20
176.977500
 30
0.0
 10
67.982200
 20
177.232200
 30
0.0
 10
67.727500
 20
177.530500
 30
0.0
 10
67.522500
 20
177.865000
 30
0.0
 10
67.372400
 20
178.227500
 30
0.0
 10
67.280800
 20
178.608900
 30
0.0
 10
67.250000
 20
179.000000
 30
0.0
 10
67.280800
 20
179.391100
 30
0.0
 10
67.372400
 20
179.772500
 30
0.0
 10
67.522500
 20
180.135000
 30
0.0
 10
67.727500
 20
180.469500
 30
0.0
 10
67.982200
 20
180.767800
 30
0.0
 10
68.280500
 20
181.022500
 30
0.0
 10
68.615000
 20
181.227500
 30
0.0
 10
68.977500
 20
181.377600
 30
0.0
 10
69.358900
 20
181.469200
 30
0.0
 10
69.750000
 20
181.500000
 30
0.0
 10
70.141100
 20
181.469200
 30
0.0
 10
70.522500
 20
181.377600
 30
0.0
 10
70.885000
 20
181.227500
 30
0.0
 10
71.219500
 20
181.022500
 30
0.0
 10
71.517800
 20
180.767800
 30
0.0
 10
71.772500
 20
180.469500
 30
0.0
 10
71.977500
 20
180.135000
 30
0.0
 10
72.127600
 20
179.772500
 30
0.0
 10
72.219200
 20
179.391100
 30
0.0
 10
72.250000
 20
179.000000
 30
0.0
 10
72.219200
 20
178.608900
 30
0.0
 10
72.127600
 20
178.227500
 30
0.0
 10
71.977500
 20
177.865000
 30
0.0
 10
71.772500
 20
177.530500
 30
0.0
 10
71.517800
 20
177.232200
 30
0.0
 10
71.219500
 20
176.977500
 30
0.0
 10
70.885000
 20
176.772500
 30
0.0
 10
70.522500
 20
176.622400
 30
0.0
 10
70.141100
 20
176.530800
 30
0.0
 10
69.750000
 20
176.500000
 30
0.0
  0
LWPOLYLINE
  5
112
100
AcDbEntity
  8
0
 62
7
100
AcDbPolyline
 90
40
 70
1
 10
99.858900
 20
176.530800
 30
0.0
 10
99.477500
 20
176.622400
 30
0.0
 10
99.115000
 20
176.772500
 30
0.0
 10
98.780500
 20
176.977500
 30
0.0
 10
98.482200
 20
177.232200
 30
0.0
 10
98.227500
 20
177.530500
 30
0.0
 10
98.022500
 20
177.865000
 30
0.0
 10
97.872400
 20
178.227500
 30
0.0
 10
97.780800
 20
178.608900
 30
0.0
 10
97.750000
 20
179.000000
 30
0.0
 10
97.780800
 20
179.391100
 30
0.0
 10
97.872400
 20
179.772500
 30
0.0
 10
98.022500
 20
180.135000
 30
0.0
 10
98.227500
 20
180.469500
 30
0.0
 10
98.482200
 20
180.767800
 30
0.0
 10
98.780500
 20
181.022500
 30
0.0
 10
99.115000
 20
181.227500
 30
0.0
 10
99.477500
 20
181.377600
 30
0.0
 10
99.858900
 20
181.469200
 30
0.0
 10
100.250000
 20
181.500000
 30
0.0
 10
100.641000
 20
181.469200
 30
0.0
 10
101.023000
 20
181.377600
 30
0.0
 10
101.385000
 20
181.227500
 30
0.0
 10
101.719000
 20
181.022500
 30
0.0
 10
102.018000
 20
180.767800
 30
0.0
 10
102.273000
 20
180.469500
 30
0.0
 10
102.478000
 20
180.135000
 30
0.0
 10
102.628000
 20
179.772500
 30
0.0
 10
102.719000
 20
179.391100
 30
0.0
 10
102.750000
 20
179.000000
 30
0.0
 10
102.719000
 20
178.608900
 30
0.0
 10
102.628000
 20
178.227500
 30
0.0
 10
102.478000
 20
177.865000
 30
0.0
 10
102.273000
 20
177.530500
 30
0.0
 10
102.018000
 20
177.232200
 30
0.0
 10
101.719000
 20
176.977500
 30
0.0
 10
101.385000
 20
176.772500
 30
0.0
 10
101.023000
 20
176.622400
 30
0.0
 10
100.641000
 20
176.530800
 30
0.0
 10
100.250000
 20
176.500000
 30
0.0
  0
LWPOLYLINE
  5
113
100
AcDbEntity
  8
0
 62
7
100
AcDbPolyline
 90
24
 70
1
 10
105.802000
 20
120.413000
 30
0.0
 10
105.402000
 20
120.562000
 30
0.0
 10
105.061000
 20
120.818000
 30
0.0
 10
102.939000
 20
122.939000
 30
0.0
 10
102.683000
 20
123.281000
 30
0.0
 10
102.534000
 20
123.681000
 30
0.0
 10
102.504000
 20
124.107000
 30
0.0
 10
102.595000
 20
124.524000
 30
0.0
 10
102.799000
 20
124.899000
 30
0.0
 10
103.101000
 20
125.201000
 30
0.0
 10
103.476000
 20
125.405000
 30
0.0
 10
103.893000
 20
125.496000
 30
0.0
 10
104.319000
 20
125.466000
 30
0.0
 10
104.719000
 20
125.317000
 30
0.0
 10
105.061000
 20
125.061000
 30
0.0
 10
107.182000
 20
122.939000
 30
0.0
 10
107.438000
 20
122.598000
 30
0.0
 10
107.587000
 20
122.198000
 30
0.0
 10
107.617000
 20
121.772000
 30
0.0
 10
107.527000
 20
121.354000
 30
0.0
 10
107.322000
 20
120.980000
 30
0.0
 10
107.020000
 20
120.678000
 30
0.0
 10
106.646000
 20
120.473000
 30
0.0
 10
106.228000
 20
120.383000
 30
0.0
  0
LWPOLYLINE
  5
114
100
AcDbEntity
  8
0
 62
7
100
AcDbPolyline
 90
24
 70
1
 10
-106.646000
 20
120.473000
 30
0.0
 10
-107.020000
 20
120.678000
 30
0.0
 10
-107.322000
 20
120.980000
 30
0.0
 10
-107.527000
 20
121.354000
 30
0.0
 10
-107.617000
 20
121.772000
 30
0.0
 10
-107.587000
 20
122.198000
 30
0.0
 10
-107.438000
 20
122.598000
 30
0.0
 10
-107.182000
 20
122.939000
 30
0.0
 10
-105.061000
 20
125.061000
 30
0.0
 10
-104.719000
 20
125.317000
 30
0.0
 10
-104.319000
 20
125.466000
 30
0.0
 10
-103.893000
 20
125.496000
 30
0.0
 10
-103.476000
 20
125.405000
 30
0.0
 10
-103.101000
 20
125.201000
 30
0.0
 10
-102.799000
 20
124.899000
 30
0.0
 10
-102.595000
 20
124.524000
 30
0.0
 10
-102.504000
 20
124.107000
 30
0.0
 10
-102.534000
 20
123.681000
 30
0.0
 10
-102.683000
 20
123.281000
 30
0.0
 10
-102.939000
 20
122.939000
 30
0.0
 10
-105.061000
 20
120.818000
 30
0.0
 10
-105.402000
 20
120.562000
 30
0.0
 10
-105.802000
 20
120.413000
 30
0.0
 10
-106.228000
 20
120.383000
 30
0.0
  0
ENDSEC
  0
SECTION
  2
OBJECTS
  0
DICTIONARY
  5
C
330
0
100
AcDbDictionary
  3
ACAD_GROUP
350
D
  3
ACAD_MLINESTYLE
350
17
  0
DICTIONARY
  5
D
330
C
100
AcDbDictionary
  0
DICTIONARY
  5
1A
330
C
100
AcDbDictionary
  0
DICTIONARY
  5
17
330
C
100
AcDbDictionary
  3
STANDARD
350
18
  0
DICTIONARY
  5
19
330
C
100
AcDbDictionary
  0
ENDSEC
  0
EOF
