  0
SECTION
  2
BLOCKS
  0
ENDSEC
  0
SECTION
  2
ENTITIES
  0
LINE
  8
0
 10
-95.3431
 20
-109
 11
95.3431
 21
-109
  0
LINE
  8
0
 10
95.3431
 20
-109
 11
101
 21
-114.657
  0
LINE
  8
0
 10
101
 20
-114.657
 11
109
 21
-114.657
  0
LINE
  8
0
 10
109
 20
-114.657
 11
114.657
 21
-109
  0
LINE
  8
0
 10
114.657
 20
-109
 11
114.657
 21
-101
  0
LINE
  8
0
 10
114.657
 20
-101
 11
109
 21
-95.3431
  0
LINE
  8
0
 10
109
 20
-95.3431
 11
109
 21
95.3431
  0
LINE
  8
0
 10
109
 20
95.3431
 11
114.657
 21
101
  0
LINE
  8
0
 10
114.657
 20
101
 11
114.657
 21
109
  0
LINE
  8
0
 10
114.657
 20
109
 11
109
 21
114.657
  0
LINE
  8
0
 10
109
 20
114.657
 11
101
 21
114.657
  0
LINE
  8
0
 10
101
 20
114.657
 11
95.3431
 21
109
  0
LINE
  8
0
 10
95.3431
 20
109
 11
-95.3431
 21
109
  0
LINE
  8
0
 10
-95.3431
 20
109
 11
-101
 21
114.657
  0
LINE
  8
0
 10
-101
 20
114.657
 11
-109
 21
114.657
  0
LINE
  8
0
 10
-109
 20
114.657
 11
-114.657
 21
109
  0
LINE
  8
0
 10
-114.657
 20
109
 11
-114.657
 21
101
  0
LINE
  8
0
 10
-114.657
 20
101
 11
-109
 21
95.3431
  0
LINE
  8
0
 10
-109
 20
95.3431
 11
-109
 21
9.65685
  0
LINE
  8
0
 10
-109
 20
9.65685
 11
-114.657
 21
4
  0
LINE
  8
0
 10
-114.657
 20
4
 11
-114.657
 21
-4
  0
LINE
  8
0
 10
-114.657
 20
-4
 11
-109
 21
-9.65685
  0
LINE
  8
0
 10
-109
 20
-9.65685
 11
-109
 21
-95.3431
  0
LINE
  8
0
 10
-109
 20
-95.3431
 11
-114.657
 21
-101
  0
LINE
  8
0
 10
-114.657
 20
-101
 11
-114.657
 21
-109
  0
LINE
  8
0
 10
-114.657
 20
-109
 11
-109
 21
-114.657
  0
LINE
  8
0
 10
-109
 20
-114.657
 11
-101
 21
-114.657
  0
LINE
  8
0
 10
-101
 20
-114.657
 11
-95.3431
 21
-109
  0
LINE
  8
0
 10
-105.319
 20
103.534
 11
-105.719
 21
103.683
  0
LINE
  8
0
 10
-105.719
 20
103.683
 11
-106.061
 21
103.939
  0
LINE
  8
0
 10
-106.061
 20
103.939
 11
-108.182
 21
106.061
  0
LINE
  8
0
 10
-108.182
 20
106.061
 11
-108.438
 21
106.402
  0
LINE
  8
0
 10
-108.438
 20
106.402
 11
-108.587
 21
106.802
  0
LINE
  8
0
 10
-108.587
 20
106.802
 11
-108.617
 21
107.228
  0
LINE
  8
0
 10
-108.617
 20
107.228
 11
-108.527
 21
107.646
  0
LINE
  8
0
 10
-108.527
 20
107.646
 11
-108.322
 21
108.02
  0
LINE
  8
0
 10
-108.322
 20
108.02
 11
-108.02
 21
108.322
  0
LINE
  8
0
 10
-108.02
 20
108.322
 11
-107.646
 21
108.527
  0
LINE
  8
0
 10
-107.646
 20
108.527
 11
-107.228
 21
108.617
  0
LINE
  8
0
 10
-107.228
 20
108.617
 11
-106.802
 21
108.587
  0
LINE
  8
0
 10
-106.802
 20
108.587
 11
-106.402
 21
108.438
  0
LINE
  8
0
 10
-106.402
 20
108.438
 11
-106.061
 21
108.182
  0
LINE
  8
0
 10
-106.061
 20
108.182
 11
-103.939
 21
106.061
  0
LINE
  8
0
 10
-103.939
 20
106.061
 11
-103.683
 21
105.719
  0
LINE
  8
0
 10
-103.683
 20
105.719
 11
-103.534
 21
105.319
  0
LINE
  8
0
 10
-103.534
 20
105.319
 11
-103.504
 21
104.893
  0
LINE
  8
0
 10
-103.504
 20
104.893
 11
-103.595
 21
104.476
  0
LINE
  8
0
 10
-103.595
 20
104.476
 11
-103.799
 21
104.101
  0
LINE
  8
0
 10
-103.799
 20
104.101
 11
-104.101
 21
103.799
  0
LINE
  8
0
 10
-104.101
 20
103.799
 11
-104.476
 21
103.595
  0
LINE
  8
0
 10
-104.476
 20
103.595
 11
-104.893
 21
103.504
  0
LINE
  8
0
 10
-104.893
 20
103.504
 11
-105.319
 21
103.534
  0
LINE
  8
0
 10
104.476
 20
103.595
 11
104.101
 21
103.799
  0
LINE
  8
0
 10
104.101
 20
103.799
 11
103.799
 21
104.101
  0
LINE
  8
0
 10
103.799
 20
104.101
 11
103.595
 21
104.476
  0
LINE
  8
0
 10
103.595
 20
104.476
 11
103.504
 21
104.893
  0
LINE
  8
0
 10
103.504
 20
104.893
 11
103.534
 21
105.319
  0
LINE
  8
0
 10
103.534
 20
105.319
 11
103.683
 21
105.719
  0
LINE
  8
0
 10
103.683
 20
105.719
 11
103.939
 21
106.061
  0
LINE
  8
0
 10
103.939
 20
106.061
 11
106.061
 21
108.182
  0
LINE
  8
0
 10
106.061
 20
108.182
 11
106.402
 21
108.438
  0
LINE
  8
0
 10
106.402
 20
108.438
 11
106.802
 21
108.587
  0
LINE
  8
0
 10
106.802
 20
108.587
 11
107.228
 21
108.617
  0
LINE
  8
0
 10
107.228
 20
108.617
 11
107.646
 21
108.527
  0
LINE
  8
0
 10
107.646
 20
108.527
 11
108.02
 21
108.322
  0
LINE
  8
0
 10
108.02
 20
108.322
 11
108.322
 21
108.02
  0
LINE
  8
0
 10
108.322
 20
108.02
 11
108.527
 21
107.646
  0
LINE
  8
0
 10
108.527
 20
107.646
 11
108.617
 21
107.228
  0
LINE
  8
0
 10
108.617
 20
107.228
 11
108.587
 21
106.802
  0
LINE
  8
0
 10
108.587
 20
106.802
 11
108.438
 21
106.402
  0
LINE
  8
0
 10
108.438
 20
106.402
 11
108.182
 21
106.061
  0
LINE
  8
0
 10
108.182
 20
106.061
 11
106.061
 21
103.939
  0
LINE
  8
0
 10
106.061
 20
103.939
 11
105.719
 21
103.683
  0
LINE
  8
0
 10
105.719
 20
103.683
 11
105.319
 21
103.534
  0
LINE
  8
0
 10
105.319
 20
103.534
 11
104.893
 21
103.504
  0
LINE
  8
0
 10
104.893
 20
103.504
 11
104.476
 21
103.595
  0
LINE
  8
0
 10
-15.8911
 20
46.0308
 11
-16.2725
 21
46.1224
  0
LINE
  8
0
 10
-16.2725
 20
46.1224
 11
-16.635
 21
46.2725
  0
LINE
  8
0
 10
-16.635
 20
46.2725
 11
-16.9695
 21
46.4775
  0
LINE
  8
0
 10
-16.9695
 20
46.4775
 11
-17.2678
 21
46.7322
  0
LINE
  8
0
 10
-17.2678
 20
46.7322
 11
-17.5225
 21
47.0305
  0
LINE
  8
0
 10
-17.5225
 20
47.0305
 11
-17.7275
 21
47.365
  0
LINE
  8
0
 10
-17.7275
 20
47.365
 11
-17.8776
 21
47.7275
  0
LINE
  8
0
 10
-17.8776
 20
47.7275
 11
-17.9692
 21
48.1089
  0
LINE
  8
0
 10
-17.9692
 20
48.1089
 11
-18
 21
48.5
  0
LINE
  8
0
 10
-18
 20
48.5
 11
-17.9692
 21
48.8911
  0
LINE
  8
0
 10
-17.9692
 20
48.8911
 11
-17.8776
 21
49.2725
  0
LINE
  8
0
 10
-17.8776
 20
49.2725
 11
-17.7275
 21
49.635
  0
LINE
  8
0
 10
-17.7275
 20
49.635
 11
-17.5225
 21
49.9695
  0
LINE
  8
0
 10
-17.5225
 20
49.9695
 11
-17.2678
 21
50.2678
  0
LINE
  8
0
 10
-17.2678
 20
50.2678
 11
-16.9695
 21
50.5225
  0
LINE
  8
0
 10
-16.9695
 20
50.5225
 11
-16.635
 21
50.7275
  0
LINE
  8
0
 10
-16.635
 20
50.7275
 11
-16.2725
 21
50.8776
  0
LINE
  8
0
 10
-16.2725
 20
50.8776
 11
-15.8911
 21
50.9692
  0
LINE
  8
0
 10
-15.8911
 20
50.9692
 11
-15.5
 21
51
  0
LINE
  8
0
 10
-15.5
 20
51
 11
-15.1089
 21
50.9692
  0
LINE
  8
0
 10
-15.1089
 20
50.9692
 11
-14.7275
 21
50.8776
  0
LINE
  8
0
 10
-14.7275
 20
50.8776
 11
-14.365
 21
50.7275
  0
LINE
  8
0
 10
-14.365
 20
50.7275
 11
-14.0305
 21
50.5225
  0
LINE
  8
0
 10
-14.0305
 20
50.5225
 11
-13.7322
 21
50.2678
  0
LINE
  8
0
 10
-13.7322
 20
50.2678
 11
-13.4775
 21
49.9695
  0
LINE
  8
0
 10
-13.4775
 20
49.9695
 11
-13.2725
 21
49.635
  0
LINE
  8
0
 10
-13.2725
 20
49.635
 11
-13.1224
 21
49.2725
  0
LINE
  8
0
 10
-13.1224
 20
49.2725
 11
-13.0308
 21
48.8911
  0
LINE
  8
0
 10
-13.0308
 20
48.8911
 11
-13
 21
48.5
  0
LINE
  8
0
 10
-13
 20
48.5
 11
-13.0308
 21
48.1089
  0
LINE
  8
0
 10
-13.0308
 20
48.1089
 11
-13.1224
 21
47.7275
  0
LINE
  8
0
 10
-13.1224
 20
47.7275
 11
-13.2725
 21
47.365
  0
LINE
  8
0
 10
-13.2725
 20
47.365
 11
-13.4775
 21
47.0305
  0
LINE
  8
0
 10
-13.4775
 20
47.0305
 11
-13.7322
 21
46.7322
  0
LINE
  8
0
 10
-13.7322
 20
46.7322
 11
-14.0305
 21
46.4775
  0
LINE
  8
0
 10
-14.0305
 20
46.4775
 11
-14.365
 21
46.2725
  0
LINE
  8
0
 10
-14.365
 20
46.2725
 11
-14.7275
 21
46.1224
  0
LINE
  8
0
 10
-14.7275
 20
46.1224
 11
-15.1089
 21
46.0308
  0
LINE
  8
0
 10
-15.1089
 20
46.0308
 11
-15.5
 21
46
  0
LINE
  8
0
 10
-15.5
 20
46
 11
-15.8911
 21
46.0308
  0
LINE
  8
0
 10
-100.641
 20
44.0308
 11
-101.023
 21
44.1224
  0
LINE
  8
0
 10
-101.023
 20
44.1224
 11
-101.385
 21
44.2725
  0
LINE
  8
0
 10
-101.385
 20
44.2725
 11
-101.719
 21
44.4775
  0
LINE
  8
0
 10
-101.719
 20
44.4775
 11
-102.018
 21
44.7322
  0
LINE
  8
0
 10
-102.018
 20
44.7322
 11
-102.273
 21
45.0305
  0
LINE
  8
0
 10
-102.273
 20
45.0305
 11
-102.478
 21
45.365
  0
LINE
  8
0
 10
-102.478
 20
45.365
 11
-102.628
 21
45.7275
  0
LINE
  8
0
 10
-102.628
 20
45.7275
 11
-102.719
 21
46.1089
  0
LINE
  8
0
 10
-102.719
 20
46.1089
 11
-102.75
 21
46.5
  0
LINE
  8
0
 10
-102.75
 20
46.5
 11
-102.719
 21
46.8911
  0
LINE
  8
0
 10
-102.719
 20
46.8911
 11
-102.628
 21
47.2725
  0
LINE
  8
0
 10
-102.628
 20
47.2725
 11
-102.478
 21
47.635
  0
LINE
  8
0
 10
-102.478
 20
47.635
 11
-102.273
 21
47.9695
  0
LINE
  8
0
 10
-102.273
 20
47.9695
 11
-102.018
 21
48.2678
  0
LINE
  8
0
 10
-102.018
 20
48.2678
 11
-101.719
 21
48.5225
  0
LINE
  8
0
 10
-101.719
 20
48.5225
 11
-101.385
 21
48.7275
  0
LINE
  8
0
 10
-101.385
 20
48.7275
 11
-101.023
 21
48.8776
  0
LINE
  8
0
 10
-101.023
 20
48.8776
 11
-100.641
 21
48.9692
  0
LINE
  8
0
 10
-100.641
 20
48.9692
 11
-100.25
 21
49
  0
LINE
  8
0
 10
-100.25
 20
49
 11
-99.8589
 21
48.9692
  0
LINE
  8
0
 10
-99.8589
 20
48.9692
 11
-99.4775
 21
48.8776
  0
LINE
  8
0
 10
-99.4775
 20
48.8776
 11
-99.115
 21
48.7275
  0
LINE
  8
0
 10
-99.115
 20
48.7275
 11
-98.7805
 21
48.5225
  0
LINE
  8
0
 10
-98.7805
 20
48.5225
 11
-98.4822
 21
48.2678
  0
LINE
  8
0
 10
-98.4822
 20
48.2678
 11
-98.2275
 21
47.9695
  0
LINE
  8
0
 10
-98.2275
 20
47.9695
 11
-98.0225
 21
47.635
  0
LINE
  8
0
 10
-98.0225
 20
47.635
 11
-97.8724
 21
47.2725
  0
LINE
  8
0
 10
-97.8724
 20
47.2725
 11
-97.7808
 21
46.8911
  0
LINE
  8
0
 10
-97.7808
 20
46.8911
 11
-97.75
 21
46.5
  0
LINE
  8
0
 10
-97.75
 20
46.5
 11
-97.7808
 21
46.1089
  0
LINE
  8
0
 10
-97.7808
 20
46.1089
 11
-97.8724
 21
45.7275
  0
LINE
  8
0
 10
-97.8724
 20
45.7275
 11
-98.0225
 21
45.365
  0
LINE
  8
0
 10
-98.0225
 20
45.365
 11
-98.2275
 21
45.0305
  0
LINE
  8
0
 10
-98.2275
 20
45.0305
 11
-98.4822
 21
44.7322
  0
LINE
  8
0
 10
-98.4822
 20
44.7322
 11
-98.7805
 21
44.4775
  0
LINE
  8
0
 10
-98.7805
 20
44.4775
 11
-99.115
 21
44.2725
  0
LINE
  8
0
 10
-99.115
 20
44.2725
 11
-99.4775
 21
44.1224
  0
LINE
  8
0
 10
-99.4775
 20
44.1224
 11
-99.8589
 21
44.0308
  0
LINE
  8
0
 10
-99.8589
 20
44.0308
 11
-100.25
 21
44
  0
LINE
  8
0
 10
-100.25
 20
44
 11
-100.641
 21
44.0308
  0
LINE
  8
0
 10
-70.1411
 20
44.0308
 11
-70.5225
 21
44.1224
  0
LINE
  8
0
 10
-70.5225
 20
44.1224
 11
-70.885
 21
44.2725
  0
LINE
  8
0
 10
-70.885
 20
44.2725
 11
-71.2195
 21
44.4775
  0
LINE
  8
0
 10
-71.2195
 20
44.4775
 11
-71.5178
 21
44.7322
  0
LINE
  8
0
 10
-71.5178
 20
44.7322
 11
-71.7725
 21
45.0305
  0
LINE
  8
0
 10
-71.7725
 20
45.0305
 11
-71.9775
 21
45.365
  0
LINE
  8
0
 10
-71.9775
 20
45.365
 11
-72.1276
 21
45.7275
  0
LINE
  8
0
 10
-72.1276
 20
45.7275
 11
-72.2192
 21
46.1089
  0
LINE
  8
0
 10
-72.2192
 20
46.1089
 11
-72.25
 21
46.5
  0
LINE
  8
0
 10
-72.25
 20
46.5
 11
-72.2192
 21
46.8911
  0
LINE
  8
0
 10
-72.2192
 20
46.8911
 11
-72.1276
 21
47.2725
  0
LINE
  8
0
 10
-72.1276
 20
47.2725
 11
-71.9775
 21
47.635
  0
LINE
  8
0
 10
-71.9775
 20
47.635
 11
-71.7725
 21
47.9695
  0
LINE
  8
0
 10
-71.7725
 20
47.9695
 11
-71.5178
 21
48.2678
  0
LINE
  8
0
 10
-71.5178
 20
48.2678
 11
-71.2195
 21
48.5225
  0
LINE
  8
0
 10
-71.2195
 20
48.5225
 11
-70.885
 21
48.7275
  0
LINE
  8
0
 10
-70.885
 20
48.7275
 11
-70.5225
 21
48.8776
  0
LINE
  8
0
 10
-70.5225
 20
48.8776
 11
-70.1411
 21
48.9692
  0
LINE
  8
0
 10
-70.1411
 20
48.9692
 11
-69.75
 21
49
  0
LINE
  8
0
 10
-69.75
 20
49
 11
-69.3589
 21
48.9692
  0
LINE
  8
0
 10
-69.3589
 20
48.9692
 11
-68.9775
 21
48.8776
  0
LINE
  8
0
 10
-68.9775
 20
48.8776
 11
-68.615
 21
48.7275
  0
LINE
  8
0
 10
-68.615
 20
48.7275
 11
-68.2805
 21
48.5225
  0
LINE
  8
0
 10
-68.2805
 20
48.5225
 11
-67.9822
 21
48.2678
  0
LINE
  8
0
 10
-67.9822
 20
48.2678
 11
-67.7275
 21
47.9695
  0
LINE
  8
0
 10
-67.7275
 20
47.9695
 11
-67.5225
 21
47.635
  0
LINE
  8
0
 10
-67.5225
 20
47.635
 11
-67.3724
 21
47.2725
  0
LINE
  8
0
 10
-67.3724
 20
47.2725
 11
-67.2808
 21
46.8911
  0
LINE
  8
0
 10
-67.2808
 20
46.8911
 11
-67.25
 21
46.5
  0
LINE
  8
0
 10
-67.25
 20
46.5
 11
-67.2808
 21
46.1089
  0
LINE
  8
0
 10
-67.2808
 20
46.1089
 11
-67.3724
 21
45.7275
  0
LINE
  8
0
 10
-67.3724
 20
45.7275
 11
-67.5225
 21
45.365
  0
LINE
  8
0
 10
-67.5225
 20
45.365
 11
-67.7275
 21
45.0305
  0
LINE
  8
0
 10
-67.7275
 20
45.0305
 11
-67.9822
 21
44.7322
  0
LINE
  8
0
 10
-67.9822
 20
44.7322
 11
-68.2805
 21
44.4775
  0
LINE
  8
0
 10
-68.2805
 20
44.4775
 11
-68.615
 21
44.2725
  0
LINE
  8
0
 10
-68.615
 20
44.2725
 11
-68.9775
 21
44.1224
  0
LINE
  8
0
 10
-68.9775
 20
44.1224
 11
-69.3589
 21
44.0308
  0
LINE
  8
0
 10
-69.3589
 20
44.0308
 11
-69.75
 21
44
  0
LINE
  8
0
 10
-69.75
 20
44
 11
-70.1411
 21
44.0308
  0
LINE
  8
0
 10
-15.8911
 20
26.0308
 11
-16.2725
 21
26.1224
  0
LINE
  8
0
 10
-16.2725
 20
26.1224
 11
-16.635
 21
26.2725
  0
LINE
  8
0
 10
-16.635
 20
26.2725
 11
-16.9695
 21
26.4775
  0
LINE
  8
0
 10
-16.9695
 20
26.4775
 11
-17.2678
 21
26.7322
  0
LINE
  8
0
 10
-17.2678
 20
26.7322
 11
-17.5225
 21
27.0305
  0
LINE
  8
0
 10
-17.5225
 20
27.0305
 11
-17.7275
 21
27.365
  0
LINE
  8
0
 10
-17.7275
 20
27.365
 11
-17.8776
 21
27.7275
  0
LINE
  8
0
 10
-17.8776
 20
27.7275
 11
-17.9692
 21
28.1089
  0
LINE
  8
0
 10
-17.9692
 20
28.1089
 11
-18
 21
28.5
  0
LINE
  8
0
 10
-18
 20
28.5
 11
-17.9692
 21
28.8911
  0
LINE
  8
0
 10
-17.9692
 20
28.8911
 11
-17.8776
 21
29.2725
  0
LINE
  8
0
 10
-17.8776
 20
29.2725
 11
-17.7275
 21
29.635
  0
LINE
  8
0
 10
-17.7275
 20
29.635
 11
-17.5225
 21
29.9695
  0
LINE
  8
0
 10
-17.5225
 20
29.9695
 11
-17.2678
 21
30.2678
  0
LINE
  8
0
 10
-17.2678
 20
30.2678
 11
-16.9695
 21
30.5225
  0
LINE
  8
0
 10
-16.9695
 20
30.5225
 11
-16.635
 21
30.7275
  0
LINE
  8
0
 10
-16.635
 20
30.7275
 11
-16.2725
 21
30.8776
  0
LINE
  8
0
 10
-16.2725
 20
30.8776
 11
-15.8911
 21
30.9692
  0
LINE
  8
0
 10
-15.8911
 20
30.9692
 11
-15.5
 21
31
  0
LINE
  8
0
 10
-15.5
 20
31
 11
-15.1089
 21
30.9692
  0
LINE
  8
0
 10
-15.1089
 20
30.9692
 11
-14.7275
 21
30.8776
  0
LINE
  8
0
 10
-14.7275
 20
30.8776
 11
-14.365
 21
30.7275
  0
LINE
  8
0
 10
-14.365
 20
30.7275
 11
-14.0305
 21
30.5225
  0
LINE
  8
0
 10
-14.0305
 20
30.5225
 11
-13.7322
 21
30.2678
  0
LINE
  8
0
 10
-13.7322
 20
30.2678
 11
-13.4775
 21
29.9695
  0
LINE
  8
0
 10
-13.4775
 20
29.9695
 11
-13.2725
 21
29.635
  0
LINE
  8
0
 10
-13.2725
 20
29.635
 11
-13.1224
 21
29.2725
  0
LINE
  8
0
 10
-13.1224
 20
29.2725
 11
-13.0308
 21
28.8911
  0
LINE
  8
0
 10
-13.0308
 20
28.8911
 11
-13
 21
28.5
  0
LINE
  8
0
 10
-13
 20
28.5
 11
-13.0308
 21
28.1089
  0
LINE
  8
0
 10
-13.0308
 20
28.1089
 11
-13.1224
 21
27.7275
  0
LINE
  8
0
 10
-13.1224
 20
27.7275
 11
-13.2725
 21
27.365
  0
LINE
  8
0
 10
-13.2725
 20
27.365
 11
-13.4775
 21
27.0305
  0
LINE
  8
0
 10
-13.4775
 20
27.0305
 11
-13.7322
 21
26.7322
  0
LINE
  8
0
 10
-13.7322
 20
26.7322
 11
-14.0305
 21
26.4775
  0
LINE
  8
0
 10
-14.0305
 20
26.4775
 11
-14.365
 21
26.2725
  0
LINE
  8
0
 10
-14.365
 20
26.2725
 11
-14.7275
 21
26.1224
  0
LINE
  8
0
 10
-14.7275
 20
26.1224
 11
-15.1089
 21
26.0308
  0
LINE
  8
0
 10
-15.1089
 20
26.0308
 11
-15.5
 21
26
  0
LINE
  8
0
 10
-15.5
 20
26
 11
-15.8911
 21
26.0308
  0
LINE
  8
0
 10
-100.641
 20
26.0308
 11
-101.023
 21
26.1224
  0
LINE
  8
0
 10
-101.023
 20
26.1224
 11
-101.385
 21
26.2725
  0
LINE
  8
0
 10
-101.385
 20
26.2725
 11
-101.719
 21
26.4775
  0
LINE
  8
0
 10
-101.719
 20
26.4775
 11
-102.018
 21
26.7322
  0
LINE
  8
0
 10
-102.018
 20
26.7322
 11
-102.273
 21
27.0305
  0
LINE
  8
0
 10
-102.273
 20
27.0305
 11
-102.478
 21
27.365
  0
LINE
  8
0
 10
-102.478
 20
27.365
 11
-102.628
 21
27.7275
  0
LINE
  8
0
 10
-102.628
 20
27.7275
 11
-102.719
 21
28.1089
  0
LINE
  8
0
 10
-102.719
 20
28.1089
 11
-102.75
 21
28.5
  0
LINE
  8
0
 10
-102.75
 20
28.5
 11
-102.719
 21
28.8911
  0
LINE
  8
0
 10
-102.719
 20
28.8911
 11
-102.628
 21
29.2725
  0
LINE
  8
0
 10
-102.628
 20
29.2725
 11
-102.478
 21
29.635
  0
LINE
  8
0
 10
-102.478
 20
29.635
 11
-102.273
 21
29.9695
  0
LINE
  8
0
 10
-102.273
 20
29.9695
 11
-102.018
 21
30.2678
  0
LINE
  8
0
 10
-102.018
 20
30.2678
 11
-101.719
 21
30.5225
  0
LINE
  8
0
 10
-101.719
 20
30.5225
 11
-101.385
 21
30.7275
  0
LINE
  8
0
 10
-101.385
 20
30.7275
 11
-101.023
 21
30.8776
  0
LINE
  8
0
 10
-101.023
 20
30.8776
 11
-100.641
 21
30.9692
  0
LINE
  8
0
 10
-100.641
 20
30.9692
 11
-100.25
 21
31
  0
LINE
  8
0
 10
-100.25
 20
31
 11
-99.8589
 21
30.9692
  0
LINE
  8
0
 10
-99.8589
 20
30.9692
 11
-99.4775
 21
30.8776
  0
LINE
  8
0
 10
-99.4775
 20
30.8776
 11
-99.115
 21
30.7275
  0
LINE
  8
0
 10
-99.115
 20
30.7275
 11
-98.7805
 21
30.5225
  0
LINE
  8
0
 10
-98.7805
 20
30.5225
 11
-98.4822
 21
30.2678
  0
LINE
  8
0
 10
-98.4822
 20
30.2678
 11
-98.2275
 21
29.9695
  0
LINE
  8
0
 10
-98.2275
 20
29.9695
 11
-98.0225
 21
29.635
  0
LINE
  8
0
 10
-98.0225
 20
29.635
 11
-97.8724
 21
29.2725
  0
LINE
  8
0
 10
-97.8724
 20
29.2725
 11
-97.7808
 21
28.8911
  0
LINE
  8
0
 10
-97.7808
 20
28.8911
 11
-97.75
 21
28.5
  0
LINE
  8
0
 10
-97.75
 20
28.5
 11
-97.7808
 21
28.1089
  0
LINE
  8
0
 10
-97.7808
 20
28.1089
 11
-97.8724
 21
27.7275
  0
LINE
  8
0
 10
-97.8724
 20
27.7275
 11
-98.0225
 21
27.365
  0
LINE
  8
0
 10
-98.0225
 20
27.365
 11
-98.2275
 21
27.0305
  0
LINE
  8
0
 10
-98.2275
 20
27.0305
 11
-98.4822
 21
26.7322
  0
LINE
  8
0
 10
-98.4822
 20
26.7322
 11
-98.7805
 21
26.4775
  0
LINE
  8
0
 10
-98.7805
 20
26.4775
 11
-99.115
 21
26.2725
  0
LINE
  8
0
 10
-99.115
 20
26.2725
 11
-99.4775
 21
26.1224
  0
LINE
  8
0
 10
-99.4775
 20
26.1224
 11
-99.8589
 21
26.0308
  0
LINE
  8
0
 10
-99.8589
 20
26.0308
 11
-100.25
 21
26
  0
LINE
  8
0
 10
-100.25
 20
26
 11
-100.641
 21
26.0308
  0
LINE
  8
0
 10
-70.1411
 20
26.0308
 11
-70.5225
 21
26.1224
  0
LINE
  8
0
 10
-70.5225
 20
26.1224
 11
-70.885
 21
26.2725
  0
LINE
  8
0
 10
-70.885
 20
26.2725
 11
-71.2195
 21
26.4775
  0
LINE
  8
0
 10
-71.2195
 20
26.4775
 11
-71.5178
 21
26.7322
  0
LINE
  8
0
 10
-71.5178
 20
26.7322
 11
-71.7725
 21
27.0305
  0
LINE
  8
0
 10
-71.7725
 20
27.0305
 11
-71.9775
 21
27.365
  0
LINE
  8
0
 10
-71.9775
 20
27.365
 11
-72.1276
 21
27.7275
  0
LINE
  8
0
 10
-72.1276
 20
27.7275
 11
-72.2192
 21
28.1089
  0
LINE
  8
0
 10
-72.2192
 20
28.1089
 11
-72.25
 21
28.5
  0
LINE
  8
0
 10
-72.25
 20
28.5
 11
-72.2192
 21
28.8911
  0
LINE
  8
0
 10
-72.2192
 20
28.8911
 11
-72.1276
 21
29.2725
  0
LINE
  8
0
 10
-72.1276
 20
29.2725
 11
-71.9775
 21
29.635
  0
LINE
  8
0
 10
-71.9775
 20
29.635
 11
-71.7725
 21
29.9695
  0
LINE
  8
0
 10
-71.7725
 20
29.9695
 11
-71.5178
 21
30.2678
  0
LINE
  8
0
 10
-71.5178
 20
30.2678
 11
-71.2195
 21
30.5225
  0
LINE
  8
0
 10
-71.2195
 20
30.5225
 11
-70.885
 21
30.7275
  0
LINE
  8
0
 10
-70.885
 20
30.7275
 11
-70.5225
 21
30.8776
  0
LINE
  8
0
 10
-70.5225
 20
30.8776
 11
-70.1411
 21
30.9692
  0
LINE
  8
0
 10
-70.1411
 20
30.9692
 11
-69.75
 21
31
  0
LINE
  8
0
 10
-69.75
 20
31
 11
-69.3589
 21
30.9692
  0
LINE
  8
0
 10
-69.3589
 20
30.9692
 11
-68.9775
 21
30.8776
  0
LINE
  8
0
 10
-68.9775
 20
30.8776
 11
-68.615
 21
30.7275
  0
LINE
  8
0
 10
-68.615
 20
30.7275
 11
-68.2805
 21
30.5225
  0
LINE
  8
0
 10
-68.2805
 20
30.5225
 11
-67.9822
 21
30.2678
  0
LINE
  8
0
 10
-67.9822
 20
30.2678
 11
-67.7275
 21
29.9695
  0
LINE
  8
0
 10
-67.7275
 20
29.9695
 11
-67.5225
 21
29.635
  0
LINE
  8
0
 10
-67.5225
 20
29.635
 11
-67.3724
 21
29.2725
  0
LINE
  8
0
 10
-67.3724
 20
29.2725
 11
-67.2808
 21
28.8911
  0
LINE
  8
0
 10
-67.2808
 20
28.8911
 11
-67.25
 21
28.5
  0
LINE
  8
0
 10
-67.25
 20
28.5
 11
-67.2808
 21
28.1089
  0
LINE
  8
0
 10
-67.2808
 20
28.1089
 11
-67.3724
 21
27.7275
  0
LINE
  8
0
 10
-67.3724
 20
27.7275
 11
-67.5225
 21
27.365
  0
LINE
  8
0
 10
-67.5225
 20
27.365
 11
-67.7275
 21
27.0305
  0
LINE
  8
0
 10
-67.7275
 20
27.0305
 11
-67.9822
 21
26.7322
  0
LINE
  8
0
 10
-67.9822
 20
26.7322
 11
-68.2805
 21
26.4775
  0
LINE
  8
0
 10
-68.2805
 20
26.4775
 11
-68.615
 21
26.2725
  0
LINE
  8
0
 10
-68.615
 20
26.2725
 11
-68.9775
 21
26.1224
  0
LINE
  8
0
 10
-68.9775
 20
26.1224
 11
-69.3589
 21
26.0308
  0
LINE
  8
0
 10
-69.3589
 20
26.0308
 11
-69.75
 21
26
  0
LINE
  8
0
 10
-69.75
 20
26
 11
-70.1411
 21
26.0308
  0
LINE
  8
0
 10
69.3589
 20
6.53079
 11
68.9775
 21
6.62236
  0
LINE
  8
0
 10
68.9775
 20
6.62236
 11
68.615
 21
6.77249
  0
LINE
  8
0
 10
68.615
 20
6.77249
 11
68.2805
 21
6.97746
  0
LINE
  8
0
 10
68.2805
 20
6.97746
 11
67.9822
 21
7.23224
  0
LINE
  8
0
 10
67.9822
 20
7.23224
 11
67.7275
 21
7.53055
  0
LINE
  8
0
 10
67.7275
 20
7.53055
 11
67.5225
 21
7.86504
  0
LINE
  8
0
 10
67.5225
 20
7.86504
 11
67.3724
 21
8.22746
  0
LINE
  8
0
 10
67.3724
 20
8.22746
 11
67.2808
 21
8.60892
  0
LINE
  8
0
 10
67.2808
 20
8.60892
 11
67.25
 21
9
  0
LINE
  8
0
 10
67.25
 20
9
 11
67.2808
 21
9.39108
  0
LINE
  8
0
 10
67.2808
 20
9.39108
 11
67.3724
 21
9.77254
  0
LINE
  8
0
 10
67.3724
 20
9.77254
 11
67.5225
 21
10.135
  0
LINE
  8
0
 10
67.5225
 20
10.135
 11
67.7275
 21
10.4695
  0
LINE
  8
0
 10
67.7275
 20
10.4695
 11
67.9822
 21
10.7678
  0
LINE
  8
0
 10
67.9822
 20
10.7678
 11
68.2805
 21
11.0225
  0
LINE
  8
0
 10
68.2805
 20
11.0225
 11
68.615
 21
11.2275
  0
LINE
  8
0
 10
68.615
 20
11.2275
 11
68.9775
 21
11.3776
  0
LINE
  8
0
 10
68.9775
 20
11.3776
 11
69.3589
 21
11.4692
  0
LINE
  8
0
 10
69.3589
 20
11.4692
 11
69.75
 21
11.5
  0
LINE
  8
0
 10
69.75
 20
11.5
 11
70.1411
 21
11.4692
  0
LINE
  8
0
 10
70.1411
 20
11.4692
 11
70.5225
 21
11.3776
  0
LINE
  8
0
 10
70.5225
 20
11.3776
 11
70.885
 21
11.2275
  0
LINE
  8
0
 10
70.885
 20
11.2275
 11
71.2195
 21
11.0225
  0
LINE
  8
0
 10
71.2195
 20
11.0225
 11
71.5178
 21
10.7678
  0
LINE
  8
0
 10
71.5178
 20
10.7678
 11
71.7725
 21
10.4695
  0
LINE
  8
0
 10
71.7725
 20
10.4695
 11
71.9775
 21
10.135
  0
LINE
  8
0
 10
71.9775
 20
10.135
 11
72.1276
 21
9.77254
  0
LINE
  8
0
 10
72.1276
 20
9.77254
 11
72.2192
 21
9.39108
  0
LINE
  8
0
 10
72.2192
 20
9.39108
 11
72.25
 21
9
  0
LINE
  8
0
 10
72.25
 20
9
 11
72.2192
 21
8.60892
  0
LINE
  8
0
 10
72.2192
 20
8.60892
 11
72.1276
 21
8.22746
  0
LINE
  8
0
 10
72.1276
 20
8.22746
 11
71.9775
 21
7.86504
  0
LINE
  8
0
 10
71.9775
 20
7.86504
 11
71.7725
 21
7.53055
  0
LINE
  8
0
 10
71.7725
 20
7.53055
 11
71.5178
 21
7.23224
  0
LINE
  8
0
 10
71.5178
 20
7.23224
 11
71.2195
 21
6.97746
  0
LINE
  8
0
 10
71.2195
 20
6.97746
 11
70.885
 21
6.77249
  0
LINE
  8
0
 10
70.885
 20
6.77249
 11
70.5225
 21
6.62236
  0
LINE
  8
0
 10
70.5225
 20
6.62236
 11
70.1411
 21
6.53079
  0
LINE
  8
0
 10
70.1411
 20
6.53079
 11
69.75
 21
6.5
  0
LINE
  8
0
 10
69.75
 20
6.5
 11
69.3589
 21
6.53079
  0
LINE
  8
0
 10
99.8589
 20
6.53079
 11
99.4775
 21
6.62236
  0
LINE
  8
0
 10
99.4775
 20
6.62236
 11
99.115
 21
6.77249
  0
LINE
  8
0
 10
99.115
 20
6.77249
 11
98.7805
 21
6.97746
  0
LINE
  8
0
 10
98.7805
 20
6.97746
 11
98.4822
 21
7.23224
  0
LINE
  8
0
 10
98.4822
 20
7.23224
 11
98.2275
 21
7.53055
  0
LINE
  8
0
 10
98.2275
 20
7.53055
 11
98.0225
 21
7.86504
  0
LINE
  8
0
 10
98.0225
 20
7.86504
 11
97.8724
 21
8.22746
  0
LINE
  8
0
 10
97.8724
 20
8.22746
 11
97.7808
 21
8.60892
  0
LINE
  8
0
 10
97.7808
 20
8.60892
 11
97.75
 21
9
  0
LINE
  8
0
 10
97.75
 20
9
 11
97.7808
 21
9.39108
  0
LINE
  8
0
 10
97.7808
 20
9.39108
 11
97.8724
 21
9.77254
  0
LINE
  8
0
 10
97.8724
 20
9.77254
 11
98.0225
 21
10.135
  0
LINE
  8
0
 10
98.0225
 20
10.135
 11
98.2275
 21
10.4695
  0
LINE
  8
0
 10
98.2275
 20
10.4695
 11
98.4822
 21
10.7678
  0
LINE
  8
0
 10
98.4822
 20
10.7678
 11
98.7805
 21
11.0225
  0
LINE
  8
0
 10
98.7805
 20
11.0225
 11
99.115
 21
11.2275
  0
LINE
  8
0
 10
99.115
 20
11.2275
 11
99.4775
 21
11.3776
  0
LINE
  8
0
 10
99.4775
 20
11.3776
 11
99.8589
 21
11.4692
  0
LINE
  8
0
 10
99.8589
 20
11.4692
 11
100.25
 21
11.5
  0
LINE
  8
0
 10
100.25
 20
11.5
 11
100.641
 21
11.4692
  0
LINE
  8
0
 10
100.641
 20
11.4692
 11
101.023
 21
11.3776
  0
LINE
  8
0
 10
101.023
 20
11.3776
 11
101.385
 21
11.2275
  0
LINE
  8
0
 10
101.385
 20
11.2275
 11
101.719
 21
11.0225
  0
LINE
  8
0
 10
101.719
 20
11.0225
 11
102.018
 21
10.7678
  0
LINE
  8
0
 10
102.018
 20
10.7678
 11
102.273
 21
10.4695
  0
LINE
  8
0
 10
102.273
 20
10.4695
 11
102.478
 21
10.135
  0
LINE
  8
0
 10
102.478
 20
10.135
 11
102.628
 21
9.77254
  0
LINE
  8
0
 10
102.628
 20
9.77254
 11
102.719
 21
9.39108
  0
LINE
  8
0
 10
102.719
 20
9.39108
 11
102.75
 21
9
  0
LINE
  8
0
 10
102.75
 20
9
 11
102.719
 21
8.60892
  0
LINE
  8
0
 10
102.719
 20
8.60892
 11
102.628
 21
8.22746
  0
LINE
  8
0
 10
102.628
 20
8.22746
 11
102.478
 21
7.86504
  0
LINE
  8
0
 10
102.478
 20
7.86504
 11
102.273
 21
7.53055
  0
LINE
  8
0
 10
102.273
 20
7.53055
 11
102.018
 21
7.23224
  0
LINE
  8
0
 10
102.018
 20
7.23224
 11
101.719
 21
6.97746
  0
LINE
  8
0
 10
101.719
 20
6.97746
 11
101.385
 21
6.77249
  0
LINE
  8
0
 10
101.385
 20
6.77249
 11
101.023
 21
6.62236
  0
LINE
  8
0
 10
101.023
 20
6.62236
 11
100.641
 21
6.53079
  0
LINE
  8
0
 10
100.641
 20
6.53079
 11
100.25
 21
6.5
  0
LINE
  8
0
 10
100.25
 20
6.5
 11
99.8589
 21
6.53079
  0
LINE
  8
0
 10
-108
 20
-1.5
 11
-108.423
 21
-1.43922
  0
LINE
  8
0
 10
-108.423
 20
-1.43922
 11
-108.811
 21
-1.26187
  0
LINE
  8
0
 10
-108.811
 20
-1.26187
 11
-109.134
 21
-0.982285
  0
LINE
  8
0
 10
-109.134
 20
-0.982285
 11
-109.364
 21
-0.623108
  0
LINE
  8
0
 10
-109.364
 20
-0.623108
 11
-109.485
 21
-0.21347
  0
LINE
  8
0
 10
-109.485
 20
-0.21347
 11
-109.485
 21
0.21347
  0
LINE
  8
0
 10
-109.485
 20
0.21347
 11
-109.364
 21
0.623108
  0
LINE
  8
0
 10
-109.364
 20
0.623108
 11
-109.134
 21
0.982285
  0
LINE
  8
0
 10
-109.134
 20
0.982285
 11
-108.811
 21
1.26187
  0
LINE
  8
0
 10
-108.811
 20
1.26187
 11
-108.423
 21
1.43922
  0
LINE
  8
0
 10
-108.423
 20
1.43922
 11
-108
 21
1.5
  0
LINE
  8
0
 10
-108
 20
1.5
 11
-105
 21
1.5
  0
LINE
  8
0
 10
-105
 20
1.5
 11
-104.577
 21
1.43922
  0
LINE
  8
0
 10
-104.577
 20
1.43922
 11
-104.189
 21
1.26187
  0
LINE
  8
0
 10
-104.189
 20
1.26187
 11
-103.866
 21
0.982285
  0
LINE
  8
0
 10
-103.866
 20
0.982285
 11
-103.636
 21
0.623108
  0
LINE
  8
0
 10
-103.636
 20
0.623108
 11
-103.515
 21
0.21347
  0
LINE
  8
0
 10
-103.515
 20
0.21347
 11
-103.515
 21
-0.21347
  0
LINE
  8
0
 10
-103.515
 20
-0.21347
 11
-103.636
 21
-0.623108
  0
LINE
  8
0
 10
-103.636
 20
-0.623108
 11
-103.866
 21
-0.982285
  0
LINE
  8
0
 10
-103.866
 20
-0.982285
 11
-104.189
 21
-1.26187
  0
LINE
  8
0
 10
-104.189
 20
-1.26187
 11
-104.577
 21
-1.43922
  0
LINE
  8
0
 10
-104.577
 20
-1.43922
 11
-105
 21
-1.5
  0
LINE
  8
0
 10
-105
 20
-1.5
 11
-108
 21
-1.5
  0
LINE
  8
0
 10
69.3589
 20
-11.4692
 11
68.9775
 21
-11.3776
  0
LINE
  8
0
 10
68.9775
 20
-11.3776
 11
68.615
 21
-11.2275
  0
LINE
  8
0
 10
68.615
 20
-11.2275
 11
68.2805
 21
-11.0225
  0
LINE
  8
0
 10
68.2805
 20
-11.0225
 11
67.9822
 21
-10.7678
  0
LINE
  8
0
 10
67.9822
 20
-10.7678
 11
67.7275
 21
-10.4695
  0
LINE
  8
0
 10
67.7275
 20
-10.4695
 11
67.5225
 21
-10.135
  0
LINE
  8
0
 10
67.5225
 20
-10.135
 11
67.3724
 21
-9.77254
  0
LINE
  8
0
 10
67.3724
 20
-9.77254
 11
67.2808
 21
-9.39108
  0
LINE
  8
0
 10
67.2808
 20
-9.39108
 11
67.25
 21
-9
  0
LINE
  8
0
 10
67.25
 20
-9
 11
67.2808
 21
-8.60892
  0
LINE
  8
0
 10
67.2808
 20
-8.60892
 11
67.3724
 21
-8.22746
  0
LINE
  8
0
 10
67.3724
 20
-8.22746
 11
67.5225
 21
-7.86504
  0
LINE
  8
0
 10
67.5225
 20
-7.86504
 11
67.7275
 21
-7.53055
  0
LINE
  8
0
 10
67.7275
 20
-7.53055
 11
67.9822
 21
-7.23224
  0
LINE
  8
0
 10
67.9822
 20
-7.23224
 11
68.2805
 21
-6.97746
  0
LINE
  8
0
 10
68.2805
 20
-6.97746
 11
68.615
 21
-6.77249
  0
LINE
  8
0
 10
68.615
 20
-6.77249
 11
68.9775
 21
-6.62236
  0
LINE
  8
0
 10
68.9775
 20
-6.62236
 11
69.3589
 21
-6.53079
  0
LINE
  8
0
 10
69.3589
 20
-6.53079
 11
69.75
 21
-6.5
  0
LINE
  8
0
 10
69.75
 20
-6.5
 11
70.1411
 21
-6.53079
  0
LINE
  8
0
 10
70.1411
 20
-6.53079
 11
70.5225
 21
-6.62236
  0
LINE
  8
0
 10
70.5225
 20
-6.62236
 11
70.885
 21
-6.77249
  0
LINE
  8
0
 10
70.885
 20
-6.77249
 11
71.2195
 21
-6.97746
  0
LINE
  8
0
 10
71.2195
 20
-6.97746
 11
71.5178
 21
-7.23224
  0
LINE
  8
0
 10
71.5178
 20
-7.23224
 11
71.7725
 21
-7.53055
  0
LINE
  8
0
 10
71.7725
 20
-7.53055
 11
71.9775
 21
-7.86504
  0
LINE
  8
0
 10
71.9775
 20
-7.86504
 11
72.1276
 21
-8.22746
  0
LINE
  8
0
 10
72.1276
 20
-8.22746
 11
72.2192
 21
-8.60892
  0
LINE
  8
0
 10
72.2192
 20
-8.60892
 11
72.25
 21
-9
  0
LINE
  8
0
 10
72.25
 20
-9
 11
72.2192
 21
-9.39108
  0
LINE
  8
0
 10
72.2192
 20
-9.39108
 11
72.1276
 21
-9.77254
  0
LINE
  8
0
 10
72.1276
 20
-9.77254
 11
71.9775
 21
-10.135
  0
LINE
  8
0
 10
71.9775
 20
-10.135
 11
71.7725
 21
-10.4695
  0
LINE
  8
0
 10
71.7725
 20
-10.4695
 11
71.5178
 21
-10.7678
  0
LINE
  8
0
 10
71.5178
 20
-10.7678
 11
71.2195
 21
-11.0225
  0
LINE
  8
0
 10
71.2195
 20
-11.0225
 11
70.885
 21
-11.2275
  0
LINE
  8
0
 10
70.885
 20
-11.2275
 11
70.5225
 21
-11.3776
  0
LINE
  8
0
 10
70.5225
 20
-11.3776
 11
70.1411
 21
-11.4692
  0
LINE
  8
0
 10
70.1411
 20
-11.4692
 11
69.75
 21
-11.5
  0
LINE
  8
0
 10
69.75
 20
-11.5
 11
69.3589
 21
-11.4692
  0
LINE
  8
0
 10
99.8589
 20
-11.4692
 11
99.4775
 21
-11.3776
  0
LINE
  8
0
 10
99.4775
 20
-11.3776
 11
99.115
 21
-11.2275
  0
LINE
  8
0
 10
99.115
 20
-11.2275
 11
98.7805
 21
-11.0225
  0
LINE
  8
0
 10
98.7805
 20
-11.0225
 11
98.4822
 21
-10.7678
  0
LINE
  8
0
 10
98.4822
 20
-10.7678
 11
98.2275
 21
-10.4695
  0
LINE
  8
0
 10
98.2275
 20
-10.4695
 11
98.0225
 21
-10.135
  0
LINE
  8
0
 10
98.0225
 20
-10.135
 11
97.8724
 21
-9.77254
  0
LINE
  8
0
 10
97.8724
 20
-9.77254
 11
97.7808
 21
-9.39108
  0
LINE
  8
0
 10
97.7808
 20
-9.39108
 11
97.75
 21
-9
  0
LINE
  8
0
 10
97.75
 20
-9
 11
97.7808
 21
-8.60892
  0
LINE
  8
0
 10
97.7808
 20
-8.60892
 11
97.8724
 21
-8.22746
  0
LINE
  8
0
 10
97.8724
 20
-8.22746
 11
98.0225
 21
-7.86504
  0
LINE
  8
0
 10
98.0225
 20
-7.86504
 11
98.2275
 21
-7.53055
  0
LINE
  8
0
 10
98.2275
 20
-7.53055
 11
98.4822
 21
-7.23224
  0
LINE
  8
0
 10
98.4822
 20
-7.23224
 11
98.7805
 21
-6.97746
  0
LINE
  8
0
 10
98.7805
 20
-6.97746
 11
99.115
 21
-6.77249
  0
LINE
  8
0
 10
99.115
 20
-6.77249
 11
99.4775
 21
-6.62236
  0
LINE
  8
0
 10
99.4775
 20
-6.62236
 11
99.8589
 21
-6.53079
  0
LINE
  8
0
 10
99.8589
 20
-6.53079
 11
100.25
 21
-6.5
  0
LINE
  8
0
 10
100.25
 20
-6.5
 11
100.641
 21
-6.53079
  0
LINE
  8
0
 10
100.641
 20
-6.53079
 11
101.023
 21
-6.62236
  0
LINE
  8
0
 10
101.023
 20
-6.62236
 11
101.385
 21
-6.77249
  0
LINE
  8
0
 10
101.385
 20
-6.77249
 11
101.719
 21
-6.97746
  0
LINE
  8
0
 10
101.719
 20
-6.97746
 11
102.018
 21
-7.23224
  0
LINE
  8
0
 10
102.018
 20
-7.23224
 11
102.273
 21
-7.53055
  0
LINE
  8
0
 10
102.273
 20
-7.53055
 11
102.478
 21
-7.86504
  0
LINE
  8
0
 10
102.478
 20
-7.86504
 11
102.628
 21
-8.22746
  0
LINE
  8
0
 10
102.628
 20
-8.22746
 11
102.719
 21
-8.60892
  0
LINE
  8
0
 10
102.719
 20
-8.60892
 11
102.75
 21
-9
  0
LINE
  8
0
 10
102.75
 20
-9
 11
102.719
 21
-9.39108
  0
LINE
  8
0
 10
102.719
 20
-9.39108
 11
102.628
 21
-9.77254
  0
LINE
  8
0
 10
102.628
 20
-9.77254
 11
102.478
 21
-10.135
  0
LINE
  8
0
 10
102.478
 20
-10.135
 11
102.273
 21
-10.4695
  0
LINE
  8
0
 10
102.273
 20
-10.4695
 11
102.018
 21
-10.7678
  0
LINE
  8
0
 10
102.018
 20
-10.7678
 11
101.719
 21
-11.0225
  0
LINE
  8
0
 10
101.719
 20
-11.0225
 11
101.385
 21
-11.2275
  0
LINE
  8
0
 10
101.385
 20
-11.2275
 11
101.023
 21
-11.3776
  0
LINE
  8
0
 10
101.023
 20
-11.3776
 11
100.641
 21
-11.4692
  0
LINE
  8
0
 10
100.641
 20
-11.4692
 11
100.25
 21
-11.5
  0
LINE
  8
0
 10
100.25
 20
-11.5
 11
99.8589
 21
-11.4692
  0
LINE
  8
0
 10
-15.8911
 20
-30.9692
 11
-16.2725
 21
-30.8776
  0
LINE
  8
0
 10
-16.2725
 20
-30.8776
 11
-16.635
 21
-30.7275
  0
LINE
  8
0
 10
-16.635
 20
-30.7275
 11
-16.9695
 21
-30.5225
  0
LINE
  8
0
 10
-16.9695
 20
-30.5225
 11
-17.2678
 21
-30.2678
  0
LINE
  8
0
 10
-17.2678
 20
-30.2678
 11
-17.5225
 21
-29.9695
  0
LINE
  8
0
 10
-17.5225
 20
-29.9695
 11
-17.7275
 21
-29.635
  0
LINE
  8
0
 10
-17.7275
 20
-29.635
 11
-17.8776
 21
-29.2725
  0
LINE
  8
0
 10
-17.8776
 20
-29.2725
 11
-17.9692
 21
-28.8911
  0
LINE
  8
0
 10
-17.9692
 20
-28.8911
 11
-18
 21
-28.5
  0
LINE
  8
0
 10
-18
 20
-28.5
 11
-17.9692
 21
-28.1089
  0
LINE
  8
0
 10
-17.9692
 20
-28.1089
 11
-17.8776
 21
-27.7275
  0
LINE
  8
0
 10
-17.8776
 20
-27.7275
 11
-17.7275
 21
-27.365
  0
LINE
  8
0
 10
-17.7275
 20
-27.365
 11
-17.5225
 21
-27.0305
  0
LINE
  8
0
 10
-17.5225
 20
-27.0305
 11
-17.2678
 21
-26.7322
  0
LINE
  8
0
 10
-17.2678
 20
-26.7322
 11
-16.9695
 21
-26.4775
  0
LINE
  8
0
 10
-16.9695
 20
-26.4775
 11
-16.635
 21
-26.2725
  0
LINE
  8
0
 10
-16.635
 20
-26.2725
 11
-16.2725
 21
-26.1224
  0
LINE
  8
0
 10
-16.2725
 20
-26.1224
 11
-15.8911
 21
-26.0308
  0
LINE
  8
0
 10
-15.8911
 20
-26.0308
 11
-15.5
 21
-26
  0
LINE
  8
0
 10
-15.5
 20
-26
 11
-15.1089
 21
-26.0308
  0
LINE
  8
0
 10
-15.1089
 20
-26.0308
 11
-14.7275
 21
-26.1224
  0
LINE
  8
0
 10
-14.7275
 20
-26.1224
 11
-14.365
 21
-26.2725
  0
LINE
  8
0
 10
-14.365
 20
-26.2725
 11
-14.0305
 21
-26.4775
  0
LINE
  8
0
 10
-14.0305
 20
-26.4775
 11
-13.7322
 21
-26.7322
  0
LINE
  8
0
 10
-13.7322
 20
-26.7322
 11
-13.4775
 21
-27.0305
  0
LINE
  8
0
 10
-13.4775
 20
-27.0305
 11
-13.2725
 21
-27.365
  0
LINE
  8
0
 10
-13.2725
 20
-27.365
 11
-13.1224
 21
-27.7275
  0
LINE
  8
0
 10
-13.1224
 20
-27.7275
 11
-13.0308
 21
-28.1089
  0
LINE
  8
0
 10
-13.0308
 20
-28.1089
 11
-13
 21
-28.5
  0
LINE
  8
0
 10
-13
 20
-28.5
 11
-13.0308
 21
-28.8911
  0
LINE
  8
0
 10
-13.0308
 20
-28.8911
 11
-13.1224
 21
-29.2725
  0
LINE
  8
0
 10
-13.1224
 20
-29.2725
 11
-13.2725
 21
-29.635
  0
LINE
  8
0
 10
-13.2725
 20
-29.635
 11
-13.4775
 21
-29.9695
  0
LINE
  8
0
 10
-13.4775
 20
-29.9695
 11
-13.7322
 21
-30.2678
  0
LINE
  8
0
 10
-13.7322
 20
-30.2678
 11
-14.0305
 21
-30.5225
  0
LINE
  8
0
 10
-14.0305
 20
-30.5225
 11
-14.365
 21
-30.7275
  0
LINE
  8
0
 10
-14.365
 20
-30.7275
 11
-14.7275
 21
-30.8776
  0
LINE
  8
0
 10
-14.7275
 20
-30.8776
 11
-15.1089
 21
-30.9692
  0
LINE
  8
0
 10
-15.1089
 20
-30.9692
 11
-15.5
 21
-31
  0
LINE
  8
0
 10
-15.5
 20
-31
 11
-15.8911
 21
-30.9692
  0
LINE
  8
0
 10
-100.641
 20
-30.9692
 11
-101.023
 21
-30.8776
  0
LINE
  8
0
 10
-101.023
 20
-30.8776
 11
-101.385
 21
-30.7275
  0
LINE
  8
0
 10
-101.385
 20
-30.7275
 11
-101.719
 21
-30.5225
  0
LINE
  8
0
 10
-101.719
 20
-30.5225
 11
-102.018
 21
-30.2678
  0
LINE
  8
0
 10
-102.018
 20
-30.2678
 11
-102.273
 21
-29.9695
  0
LINE
  8
0
 10
-102.273
 20
-29.9695
 11
-102.478
 21
-29.635
  0
LINE
  8
0
 10
-102.478
 20
-29.635
 11
-102.628
 21
-29.2725
  0
LINE
  8
0
 10
-102.628
 20
-29.2725
 11
-102.719
 21
-28.8911
  0
LINE
  8
0
 10
-102.719
 20
-28.8911
 11
-102.75
 21
-28.5
  0
LINE
  8
0
 10
-102.75
 20
-28.5
 11
-102.719
 21
-28.1089
  0
LINE
  8
0
 10
-102.719
 20
-28.1089
 11
-102.628
 21
-27.7275
  0
LINE
  8
0
 10
-102.628
 20
-27.7275
 11
-102.478
 21
-27.365
  0
LINE
  8
0
 10
-102.478
 20
-27.365
 11
-102.273
 21
-27.0305
  0
LINE
  8
0
 10
-102.273
 20
-27.0305
 11
-102.018
 21
-26.7322
  0
LINE
  8
0
 10
-102.018
 20
-26.7322
 11
-101.719
 21
-26.4775
  0
LINE
  8
0
 10
-101.719
 20
-26.4775
 11
-101.385
 21
-26.2725
  0
LINE
  8
0
 10
-101.385
 20
-26.2725
 11
-101.023
 21
-26.1224
  0
LINE
  8
0
 10
-101.023
 20
-26.1224
 11
-100.641
 21
-26.0308
  0
LINE
  8
0
 10
-100.641
 20
-26.0308
 11
-100.25
 21
-26
  0
LINE
  8
0
 10
-100.25
 20
-26
 11
-99.8589
 21
-26.0308
  0
LINE
  8
0
 10
-99.8589
 20
-26.0308
 11
-99.4775
 21
-26.1224
  0
LINE
  8
0
 10
-99.4775
 20
-26.1224
 11
-99.115
 21
-26.2725
  0
LINE
  8
0
 10
-99.115
 20
-26.2725
 11
-98.7805
 21
-26.4775
  0
LINE
  8
0
 10
-98.7805
 20
-26.4775
 11
-98.4822
 21
-26.7322
  0
LINE
  8
0
 10
-98.4822
 20
-26.7322
 11
-98.2275
 21
-27.0305
  0
LINE
  8
0
 10
-98.2275
 20
-27.0305
 11
-98.0225
 21
-27.365
  0
LINE
  8
0
 10
-98.0225
 20
-27.365
 11
-97.8724
 21
-27.7275
  0
LINE
  8
0
 10
-97.8724
 20
-27.7275
 11
-97.7808
 21
-28.1089
  0
LINE
  8
0
 10
-97.7808
 20
-28.1089
 11
-97.75
 21
-28.5
  0
LINE
  8
0
 10
-97.75
 20
-28.5
 11
-97.7808
 21
-28.8911
  0
LINE
  8
0
 10
-97.7808
 20
-28.8911
 11
-97.8724
 21
-29.2725
  0
LINE
  8
0
 10
-97.8724
 20
-29.2725
 11
-98.0225
 21
-29.635
  0
LINE
  8
0
 10
-98.0225
 20
-29.635
 11
-98.2275
 21
-29.9695
  0
LINE
  8
0
 10
-98.2275
 20
-29.9695
 11
-98.4822
 21
-30.2678
  0
LINE
  8
0
 10
-98.4822
 20
-30.2678
 11
-98.7805
 21
-30.5225
  0
LINE
  8
0
 10
-98.7805
 20
-30.5225
 11
-99.115
 21
-30.7275
  0
LINE
  8
0
 10
-99.115
 20
-30.7275
 11
-99.4775
 21
-30.8776
  0
LINE
  8
0
 10
-99.4775
 20
-30.8776
 11
-99.8589
 21
-30.9692
  0
LINE
  8
0
 10
-99.8589
 20
-30.9692
 11
-100.25
 21
-31
  0
LINE
  8
0
 10
-100.25
 20
-31
 11
-100.641
 21
-30.9692
  0
LINE
  8
0
 10
-70.1411
 20
-30.9692
 11
-70.5225
 21
-30.8776
  0
LINE
  8
0
 10
-70.5225
 20
-30.8776
 11
-70.885
 21
-30.7275
  0
LINE
  8
0
 10
-70.885
 20
-30.7275
 11
-71.2195
 21
-30.5225
  0
LINE
  8
0
 10
-71.2195
 20
-30.5225
 11
-71.5178
 21
-30.2678
  0
LINE
  8
0
 10
-71.5178
 20
-30.2678
 11
-71.7725
 21
-29.9695
  0
LINE
  8
0
 10
-71.7725
 20
-29.9695
 11
-71.9775
 21
-29.635
  0
LINE
  8
0
 10
-71.9775
 20
-29.635
 11
-72.1276
 21
-29.2725
  0
LINE
  8
0
 10
-72.1276
 20
-29.2725
 11
-72.2192
 21
-28.8911
  0
LINE
  8
0
 10
-72.2192
 20
-28.8911
 11
-72.25
 21
-28.5
  0
LINE
  8
0
 10
-72.25
 20
-28.5
 11
-72.2192
 21
-28.1089
  0
LINE
  8
0
 10
-72.2192
 20
-28.1089
 11
-72.1276
 21
-27.7275
  0
LINE
  8
0
 10
-72.1276
 20
-27.7275
 11
-71.9775
 21
-27.365
  0
LINE
  8
0
 10
-71.9775
 20
-27.365
 11
-71.7725
 21
-27.0305
  0
LINE
  8
0
 10
-71.7725
 20
-27.0305
 11
-71.5178
 21
-26.7322
  0
LINE
  8
0
 10
-71.5178
 20
-26.7322
 11
-71.2195
 21
-26.4775
  0
LINE
  8
0
 10
-71.2195
 20
-26.4775
 11
-70.885
 21
-26.2725
  0
LINE
  8
0
 10
-70.885
 20
-26.2725
 11
-70.5225
 21
-26.1224
  0
LINE
  8
0
 10
-70.5225
 20
-26.1224
 11
-70.1411
 21
-26.0308
  0
LINE
  8
0
 10
-70.1411
 20
-26.0308
 11
-69.75
 21
-26
  0
LINE
  8
0
 10
-69.75
 20
-26
 11
-69.3589
 21
-26.0308
  0
LINE
  8
0
 10
-69.3589
 20
-26.0308
 11
-68.9775
 21
-26.1224
  0
LINE
  8
0
 10
-68.9775
 20
-26.1224
 11
-68.615
 21
-26.2725
  0
LINE
  8
0
 10
-68.615
 20
-26.2725
 11
-68.2805
 21
-26.4775
  0
LINE
  8
0
 10
-68.2805
 20
-26.4775
 11
-67.9822
 21
-26.7322
  0
LINE
  8
0
 10
-67.9822
 20
-26.7322
 11
-67.7275
 21
-27.0305
  0
LINE
  8
0
 10
-67.7275
 20
-27.0305
 11
-67.5225
 21
-27.365
  0
LINE
  8
0
 10
-67.5225
 20
-27.365
 11
-67.3724
 21
-27.7275
  0
LINE
  8
0
 10
-67.3724
 20
-27.7275
 11
-67.2808
 21
-28.1089
  0
LINE
  8
0
 10
-67.2808
 20
-28.1089
 11
-67.25
 21
-28.5
  0
LINE
  8
0
 10
-67.25
 20
-28.5
 11
-67.2808
 21
-28.8911
  0
LINE
  8
0
 10
-67.2808
 20
-28.8911
 11
-67.3724
 21
-29.2725
  0
LINE
  8
0
 10
-67.3724
 20
-29.2725
 11
-67.5225
 21
-29.635
  0
LINE
  8
0
 10
-67.5225
 20
-29.635
 11
-67.7275
 21
-29.9695
  0
LINE
  8
0
 10
-67.7275
 20
-29.9695
 11
-67.9822
 21
-30.2678
  0
LINE
  8
0
 10
-67.9822
 20
-30.2678
 11
-68.2805
 21
-30.5225
  0
LINE
  8
0
 10
-68.2805
 20
-30.5225
 11
-68.615
 21
-30.7275
  0
LINE
  8
0
 10
-68.615
 20
-30.7275
 11
-68.9775
 21
-30.8776
  0
LINE
  8
0
 10
-68.9775
 20
-30.8776
 11
-69.3589
 21
-30.9692
  0
LINE
  8
0
 10
-69.3589
 20
-30.9692
 11
-69.75
 21
-31
  0
LINE
  8
0
 10
-69.75
 20
-31
 11
-70.1411
 21
-30.9692
  0
LINE
  8
0
 10
-100.641
 20
-48.9692
 11
-101.023
 21
-48.8776
  0
LINE
  8
0
 10
-101.023
 20
-48.8776
 11
-101.385
 21
-48.7275
  0
LINE
  8
0
 10
-101.385
 20
-48.7275
 11
-101.719
 21
-48.5225
  0
LINE
  8
0
 10
-101.719
 20
-48.5225
 11
-102.018
 21
-48.2678
  0
LINE
  8
0
 10
-102.018
 20
-48.2678
 11
-102.273
 21
-47.9695
  0
LINE
  8
0
 10
-102.273
 20
-47.9695
 11
-102.478
 21
-47.635
  0
LINE
  8
0
 10
-102.478
 20
-47.635
 11
-102.628
 21
-47.2725
  0
LINE
  8
0
 10
-102.628
 20
-47.2725
 11
-102.719
 21
-46.8911
  0
LINE
  8
0
 10
-102.719
 20
-46.8911
 11
-102.75
 21
-46.5
  0
LINE
  8
0
 10
-102.75
 20
-46.5
 11
-102.719
 21
-46.1089
  0
LINE
  8
0
 10
-102.719
 20
-46.1089
 11
-102.628
 21
-45.7275
  0
LINE
  8
0
 10
-102.628
 20
-45.7275
 11
-102.478
 21
-45.365
  0
LINE
  8
0
 10
-102.478
 20
-45.365
 11
-102.273
 21
-45.0305
  0
LINE
  8
0
 10
-102.273
 20
-45.0305
 11
-102.018
 21
-44.7322
  0
LINE
  8
0
 10
-102.018
 20
-44.7322
 11
-101.719
 21
-44.4775
  0
LINE
  8
0
 10
-101.719
 20
-44.4775
 11
-101.385
 21
-44.2725
  0
LINE
  8
0
 10
-101.385
 20
-44.2725
 11
-101.023
 21
-44.1224
  0
LINE
  8
0
 10
-101.023
 20
-44.1224
 11
-100.641
 21
-44.0308
  0
LINE
  8
0
 10
-100.641
 20
-44.0308
 11
-100.25
 21
-44
  0
LINE
  8
0
 10
-100.25
 20
-44
 11
-99.8589
 21
-44.0308
  0
LINE
  8
0
 10
-99.8589
 20
-44.0308
 11
-99.4775
 21
-44.1224
  0
LINE
  8
0
 10
-99.4775
 20
-44.1224
 11
-99.115
 21
-44.2725
  0
LINE
  8
0
 10
-99.115
 20
-44.2725
 11
-98.7805
 21
-44.4775
  0
LINE
  8
0
 10
-98.7805
 20
-44.4775
 11
-98.4822
 21
-44.7322
  0
LINE
  8
0
 10
-98.4822
 20
-44.7322
 11
-98.2275
 21
-45.0305
  0
LINE
  8
0
 10
-98.2275
 20
-45.0305
 11
-98.0225
 21
-45.365
  0
LINE
  8
0
 10
-98.0225
 20
-45.365
 11
-97.8724
 21
-45.7275
  0
LINE
  8
0
 10
-97.8724
 20
-45.7275
 11
-97.7808
 21
-46.1089
  0
LINE
  8
0
 10
-97.7808
 20
-46.1089
 11
-97.75
 21
-46.5
  0
LINE
  8
0
 10
-97.75
 20
-46.5
 11
-97.7808
 21
-46.8911
  0
LINE
  8
0
 10
-97.7808
 20
-46.8911
 11
-97.8724
 21
-47.2725
  0
LINE
  8
0
 10
-97.8724
 20
-47.2725
 11
-98.0225
 21
-47.635
  0
LINE
  8
0
 10
-98.0225
 20
-47.635
 11
-98.2275
 21
-47.9695
  0
LINE
  8
0
 10
-98.2275
 20
-47.9695
 11
-98.4822
 21
-48.2678
  0
LINE
  8
0
 10
-98.4822
 20
-48.2678
 11
-98.7805
 21
-48.5225
  0
LINE
  8
0
 10
-98.7805
 20
-48.5225
 11
-99.115
 21
-48.7275
  0
LINE
  8
0
 10
-99.115
 20
-48.7275
 11
-99.4775
 21
-48.8776
  0
LINE
  8
0
 10
-99.4775
 20
-48.8776
 11
-99.8589
 21
-48.9692
  0
LINE
  8
0
 10
-99.8589
 20
-48.9692
 11
-100.25
 21
-49
  0
LINE
  8
0
 10
-100.25
 20
-49
 11
-100.641
 21
-48.9692
  0
LINE
  8
0
 10
-70.1411
 20
-48.9692
 11
-70.5225
 21
-48.8776
  0
LINE
  8
0
 10
-70.5225
 20
-48.8776
 11
-70.885
 21
-48.7275
  0
LINE
  8
0
 10
-70.885
 20
-48.7275
 11
-71.2195
 21
-48.5225
  0
LINE
  8
0
 10
-71.2195
 20
-48.5225
 11
-71.5178
 21
-48.2678
  0
LINE
  8
0
 10
-71.5178
 20
-48.2678
 11
-71.7725
 21
-47.9695
  0
LINE
  8
0
 10
-71.7725
 20
-47.9695
 11
-71.9775
 21
-47.635
  0
LINE
  8
0
 10
-71.9775
 20
-47.635
 11
-72.1276
 21
-47.2725
  0
LINE
  8
0
 10
-72.1276
 20
-47.2725
 11
-72.2192
 21
-46.8911
  0
LINE
  8
0
 10
-72.2192
 20
-46.8911
 11
-72.25
 21
-46.5
  0
LINE
  8
0
 10
-72.25
 20
-46.5
 11
-72.2192
 21
-46.1089
  0
LINE
  8
0
 10
-72.2192
 20
-46.1089
 11
-72.1276
 21
-45.7275
  0
LINE
  8
0
 10
-72.1276
 20
-45.7275
 11
-71.9775
 21
-45.365
  0
LINE
  8
0
 10
-71.9775
 20
-45.365
 11
-71.7725
 21
-45.0305
  0
LINE
  8
0
 10
-71.7725
 20
-45.0305
 11
-71.5178
 21
-44.7322
  0
LINE
  8
0
 10
-71.5178
 20
-44.7322
 11
-71.2195
 21
-44.4775
  0
LINE
  8
0
 10
-71.2195
 20
-44.4775
 11
-70.885
 21
-44.2725
  0
LINE
  8
0
 10
-70.885
 20
-44.2725
 11
-70.5225
 21
-44.1224
  0
LINE
  8
0
 10
-70.5225
 20
-44.1224
 11
-70.1411
 21
-44.0308
  0
LINE
  8
0
 10
-70.1411
 20
-44.0308
 11
-69.75
 21
-44
  0
LINE
  8
0
 10
-69.75
 20
-44
 11
-69.3589
 21
-44.0308
  0
LINE
  8
0
 10
-69.3589
 20
-44.0308
 11
-68.9775
 21
-44.1224
  0
LINE
  8
0
 10
-68.9775
 20
-44.1224
 11
-68.615
 21
-44.2725
  0
LINE
  8
0
 10
-68.615
 20
-44.2725
 11
-68.2805
 21
-44.4775
  0
LINE
  8
0
 10
-68.2805
 20
-44.4775
 11
-67.9822
 21
-44.7322
  0
LINE
  8
0
 10
-67.9822
 20
-44.7322
 11
-67.7275
 21
-45.0305
  0
LINE
  8
0
 10
-67.7275
 20
-45.0305
 11
-67.5225
 21
-45.365
  0
LINE
  8
0
 10
-67.5225
 20
-45.365
 11
-67.3724
 21
-45.7275
  0
LINE
  8
0
 10
-67.3724
 20
-45.7275
 11
-67.2808
 21
-46.1089
  0
LINE
  8
0
 10
-67.2808
 20
-46.1089
 11
-67.25
 21
-46.5
  0
LINE
  8
0
 10
-67.25
 20
-46.5
 11
-67.2808
 21
-46.8911
  0
LINE
  8
0
 10
-67.2808
 20
-46.8911
 11
-67.3724
 21
-47.2725
  0
LINE
  8
0
 10
-67.3724
 20
-47.2725
 11
-67.5225
 21
-47.635
  0
LINE
  8
0
 10
-67.5225
 20
-47.635
 11
-67.7275
 21
-47.9695
  0
LINE
  8
0
 10
-67.7275
 20
-47.9695
 11
-67.9822
 21
-48.2678
  0
LINE
  8
0
 10
-67.9822
 20
-48.2678
 11
-68.2805
 21
-48.5225
  0
LINE
  8
0
 10
-68.2805
 20
-48.5225
 11
-68.615
 21
-48.7275
  0
LINE
  8
0
 10
-68.615
 20
-48.7275
 11
-68.9775
 21
-48.8776
  0
LINE
  8
0
 10
-68.9775
 20
-48.8776
 11
-69.3589
 21
-48.9692
  0
LINE
  8
0
 10
-69.3589
 20
-48.9692
 11
-69.75
 21
-49
  0
LINE
  8
0
 10
-69.75
 20
-49
 11
-70.1411
 21
-48.9692
  0
LINE
  8
0
 10
-15.8911
 20
-50.9692
 11
-16.2725
 21
-50.8776
  0
LINE
  8
0
 10
-16.2725
 20
-50.8776
 11
-16.635
 21
-50.7275
  0
LINE
  8
0
 10
-16.635
 20
-50.7275
 11
-16.9695
 21
-50.5225
  0
LINE
  8
0
 10
-16.9695
 20
-50.5225
 11
-17.2678
 21
-50.2678
  0
LINE
  8
0
 10
-17.2678
 20
-50.2678
 11
-17.5225
 21
-49.9695
  0
LINE
  8
0
 10
-17.5225
 20
-49.9695
 11
-17.7275
 21
-49.635
  0
LINE
  8
0
 10
-17.7275
 20
-49.635
 11
-17.8776
 21
-49.2725
  0
LINE
  8
0
 10
-17.8776
 20
-49.2725
 11
-17.9692
 21
-48.8911
  0
LINE
  8
0
 10
-17.9692
 20
-48.8911
 11
-18
 21
-48.5
  0
LINE
  8
0
 10
-18
 20
-48.5
 11
-17.9692
 21
-48.1089
  0
LINE
  8
0
 10
-17.9692
 20
-48.1089
 11
-17.8776
 21
-47.7275
  0
LINE
  8
0
 10
-17.8776
 20
-47.7275
 11
-17.7275
 21
-47.365
  0
LINE
  8
0
 10
-17.7275
 20
-47.365
 11
-17.5225
 21
-47.0305
  0
LINE
  8
0
 10
-17.5225
 20
-47.0305
 11
-17.2678
 21
-46.7322
  0
LINE
  8
0
 10
-17.2678
 20
-46.7322
 11
-16.9695
 21
-46.4775
  0
LINE
  8
0
 10
-16.9695
 20
-46.4775
 11
-16.635
 21
-46.2725
  0
LINE
  8
0
 10
-16.635
 20
-46.2725
 11
-16.2725
 21
-46.1224
  0
LINE
  8
0
 10
-16.2725
 20
-46.1224
 11
-15.8911
 21
-46.0308
  0
LINE
  8
0
 10
-15.8911
 20
-46.0308
 11
-15.5
 21
-46
  0
LINE
  8
0
 10
-15.5
 20
-46
 11
-15.1089
 21
-46.0308
  0
LINE
  8
0
 10
-15.1089
 20
-46.0308
 11
-14.7275
 21
-46.1224
  0
LINE
  8
0
 10
-14.7275
 20
-46.1224
 11
-14.365
 21
-46.2725
  0
LINE
  8
0
 10
-14.365
 20
-46.2725
 11
-14.0305
 21
-46.4775
  0
LINE
  8
0
 10
-14.0305
 20
-46.4775
 11
-13.7322
 21
-46.7322
  0
LINE
  8
0
 10
-13.7322
 20
-46.7322
 11
-13.4775
 21
-47.0305
  0
LINE
  8
0
 10
-13.4775
 20
-47.0305
 11
-13.2725
 21
-47.365
  0
LINE
  8
0
 10
-13.2725
 20
-47.365
 11
-13.1224
 21
-47.7275
  0
LINE
  8
0
 10
-13.1224
 20
-47.7275
 11
-13.0308
 21
-48.1089
  0
LINE
  8
0
 10
-13.0308
 20
-48.1089
 11
-13
 21
-48.5
  0
LINE
  8
0
 10
-13
 20
-48.5
 11
-13.0308
 21
-48.8911
  0
LINE
  8
0
 10
-13.0308
 20
-48.8911
 11
-13.1224
 21
-49.2725
  0
LINE
  8
0
 10
-13.1224
 20
-49.2725
 11
-13.2725
 21
-49.635
  0
LINE
  8
0
 10
-13.2725
 20
-49.635
 11
-13.4775
 21
-49.9695
  0
LINE
  8
0
 10
-13.4775
 20
-49.9695
 11
-13.7322
 21
-50.2678
  0
LINE
  8
0
 10
-13.7322
 20
-50.2678
 11
-14.0305
 21
-50.5225
  0
LINE
  8
0
 10
-14.0305
 20
-50.5225
 11
-14.365
 21
-50.7275
  0
LINE
  8
0
 10
-14.365
 20
-50.7275
 11
-14.7275
 21
-50.8776
  0
LINE
  8
0
 10
-14.7275
 20
-50.8776
 11
-15.1089
 21
-50.9692
  0
LINE
  8
0
 10
-15.1089
 20
-50.9692
 11
-15.5
 21
-51
  0
LINE
  8
0
 10
-15.5
 20
-51
 11
-15.8911
 21
-50.9692
  0
LINE
  8
0
 10
106.802
 20
-108.587
 11
106.402
 21
-108.438
  0
LINE
  8
0
 10
106.402
 20
-108.438
 11
106.061
 21
-108.182
  0
LINE
  8
0
 10
106.061
 20
-108.182
 11
103.939
 21
-106.061
  0
LINE
  8
0
 10
103.939
 20
-106.061
 11
103.683
 21
-105.719
  0
LINE
  8
0
 10
103.683
 20
-105.719
 11
103.534
 21
-105.319
  0
LINE
  8
0
 10
103.534
 20
-105.319
 11
103.504
 21
-104.893
  0
LINE
  8
0
 10
103.504
 20
-104.893
 11
103.595
 21
-104.476
  0
LINE
  8
0
 10
103.595
 20
-104.476
 11
103.799
 21
-104.101
  0
LINE
  8
0
 10
103.799
 20
-104.101
 11
104.101
 21
-103.799
  0
LINE
  8
0
 10
104.101
 20
-103.799
 11
104.476
 21
-103.595
  0
LINE
  8
0
 10
104.476
 20
-103.595
 11
104.893
 21
-103.504
  0
LINE
  8
0
 10
104.893
 20
-103.504
 11
105.319
 21
-103.534
  0
LINE
  8
0
 10
105.319
 20
-103.534
 11
105.719
 21
-103.683
  0
LINE
  8
0
 10
105.719
 20
-103.683
 11
106.061
 21
-103.939
  0
LINE
  8
0
 10
106.061
 20
-103.939
 11
108.182
 21
-106.061
  0
LINE
  8
0
 10
108.182
 20
-106.061
 11
108.438
 21
-106.402
  0
LINE
  8
0
 10
108.438
 20
-106.402
 11
108.587
 21
-106.802
  0
LINE
  8
0
 10
108.587
 20
-106.802
 11
108.617
 21
-107.228
  0
LINE
  8
0
 10
108.617
 20
-107.228
 11
108.527
 21
-107.646
  0
LINE
  8
0
 10
108.527
 20
-107.646
 11
108.322
 21
-108.02
  0
LINE
  8
0
 10
108.322
 20
-108.02
 11
108.02
 21
-108.322
  0
LINE
  8
0
 10
108.02
 20
-108.322
 11
107.646
 21
-108.527
  0
LINE
  8
0
 10
107.646
 20
-108.527
 11
107.228
 21
-108.617
  0
LINE
  8
0
 10
107.228
 20
-108.617
 11
106.802
 21
-108.587
  0
LINE
  8
0
 10
-107.646
 20
-108.527
 11
-108.02
 21
-108.322
  0
LINE
  8
0
 10
-108.02
 20
-108.322
 11
-108.322
 21
-108.02
  0
LINE
  8
0
 10
-108.322
 20
-108.02
 11
-108.527
 21
-107.646
  0
LINE
  8
0
 10
-108.527
 20
-107.646
 11
-108.617
 21
-107.228
  0
LINE
  8
0
 10
-108.617
 20
-107.228
 11
-108.587
 21
-106.802
  0
LINE
  8
0
 10
-108.587
 20
-106.802
 11
-108.438
 21
-106.402
  0
LINE
  8
0
 10
-108.438
 20
-106.402
 11
-108.182
 21
-106.061
  0
LINE
  8
0
 10
-108.182
 20
-106.061
 11
-106.061
 21
-103.939
  0
LINE
  8
0
 10
-106.061
 20
-103.939
 11
-105.719
 21
-103.683
  0
LINE
  8
0
 10
-105.719
 20
-103.683
 11
-105.319
 21
-103.534
  0
LINE
  8
0
 10
-105.319
 20
-103.534
 11
-104.893
 21
-103.504
  0
LINE
  8
0
 10
-104.893
 20
-103.504
 11
-104.476
 21
-103.595
  0
LINE
  8
0
 10
-104.476
 20
-103.595
 11
-104.101
 21
-103.799
  0
LINE
  8
0
 10
-104.101
 20
-103.799
 11
-103.799
 21
-104.101
  0
LINE
  8
0
 10
-103.799
 20
-104.101
 11
-103.595
 21
-104.476
  0
LINE
  8
0
 10
-103.595
 20
-104.476
 11
-103.504
 21
-104.893
  0
LINE
  8
0
 10
-103.504
 20
-104.893
 11
-103.534
 21
-105.319
  0
LINE
  8
0
 10
-103.534
 20
-105.319
 11
-103.683
 21
-105.719
  0
LINE
  8
0
 10
-103.683
 20
-105.719
 11
-103.939
 21
-106.061
  0
LINE
  8
0
 10
-103.939
 20
-106.061
 11
-106.061
 21
-108.182
  0
LINE
  8
0
 10
-106.061
 20
-108.182
 11
-106.402
 21
-108.438
  0
LINE
  8
0
 10
-106.402
 20
-108.438
 11
-106.802
 21
-108.587
  0
LINE
  8
0
 10
-106.802
 20
-108.587
 11
-107.228
 21
-108.617
  0
LINE
  8
0
 10
-107.228
 20
-108.617
 11
-107.646
 21
-108.527
  0
ENDSEC
  0
SECTION
  2
OBJECTS
  0
DICTIONARY
  0
ENDSEC
  0
EOF
