  0
SECTION
  2
BLOCKS
  0
ENDSEC
  0
SECTION
  2
ENTITIES
  0
LINE
  8
0
 10
185
 20
20
 11
112.1
 21
20
  0
LINE
  8
0
 10
112.1
 20
20
 11
110.2
 21
18.1
  0
LINE
  8
0
 10
110.2
 20
18.1
 11
110.2
 21
-0.0999908
  0
LINE
  8
0
 10
110.2
 20
-0.0999908
 11
59.8
 21
-0.0999908
  0
LINE
  8
0
 10
59.8
 20
-0.0999908
 11
59.8
 21
18.1
  0
LINE
  8
0
 10
59.8
 20
18.1
 11
57.9
 21
20
  0
LINE
  8
0
 10
57.9
 20
20
 11
-57.9
 21
20
  0
LINE
  8
0
 10
-57.9
 20
20
 11
-59.8
 21
18.1
  0
LINE
  8
0
 10
-59.8
 20
18.1
 11
-59.8
 21
-0.0999908
  0
LINE
  8
0
 10
-59.8
 20
-0.0999908
 11
-110.2
 21
-0.0999908
  0
LINE
  8
0
 10
-110.2
 20
-0.0999908
 11
-110.2
 21
18.1
  0
LINE
  8
0
 10
-110.2
 20
18.1
 11
-112.1
 21
20
  0
LINE
  8
0
 10
-112.1
 20
20
 11
-185
 21
20
  0
LINE
  8
0
 10
-185
 20
20
 11
-185
 21
-20
  0
LINE
  8
0
 10
-185
 20
-20
 11
185
 21
-20
  0
LINE
  8
0
 10
185
 20
-20
 11
185
 21
20
  0
LINE
  8
0
 10
147.109
 20
7.53079
 11
146.727
 21
7.62236
  0
LINE
  8
0
 10
146.727
 20
7.62236
 11
146.365
 21
7.77249
  0
LINE
  8
0
 10
146.365
 20
7.77249
 11
146.031
 21
7.97746
  0
LINE
  8
0
 10
146.031
 20
7.97746
 11
145.732
 21
8.23224
  0
LINE
  8
0
 10
145.732
 20
8.23224
 11
145.477
 21
8.53055
  0
LINE
  8
0
 10
145.477
 20
8.53055
 11
145.272
 21
8.86504
  0
LINE
  8
0
 10
145.272
 20
8.86504
 11
145.122
 21
9.22746
  0
LINE
  8
0
 10
145.122
 20
9.22746
 11
145.031
 21
9.60892
  0
LINE
  8
0
 10
145.031
 20
9.60892
 11
145
 21
10
  0
LINE
  8
0
 10
145
 20
10
 11
145.031
 21
10.3911
  0
LINE
  8
0
 10
145.031
 20
10.3911
 11
145.122
 21
10.7725
  0
LINE
  8
0
 10
145.122
 20
10.7725
 11
145.272
 21
11.135
  0
LINE
  8
0
 10
145.272
 20
11.135
 11
145.477
 21
11.4695
  0
LINE
  8
0
 10
145.477
 20
11.4695
 11
145.732
 21
11.7678
  0
LINE
  8
0
 10
145.732
 20
11.7678
 11
146.031
 21
12.0225
  0
LINE
  8
0
 10
146.031
 20
12.0225
 11
146.365
 21
12.2275
  0
LINE
  8
0
 10
146.365
 20
12.2275
 11
146.727
 21
12.3776
  0
LINE
  8
0
 10
146.727
 20
12.3776
 11
147.109
 21
12.4692
  0
LINE
  8
0
 10
147.109
 20
12.4692
 11
147.5
 21
12.5
  0
LINE
  8
0
 10
147.5
 20
12.5
 11
147.891
 21
12.4692
  0
LINE
  8
0
 10
147.891
 20
12.4692
 11
148.273
 21
12.3776
  0
LINE
  8
0
 10
148.273
 20
12.3776
 11
148.635
 21
12.2275
  0
LINE
  8
0
 10
148.635
 20
12.2275
 11
148.969
 21
12.0225
  0
LINE
  8
0
 10
148.969
 20
12.0225
 11
149.268
 21
11.7678
  0
LINE
  8
0
 10
149.268
 20
11.7678
 11
149.523
 21
11.4695
  0
LINE
  8
0
 10
149.523
 20
11.4695
 11
149.728
 21
11.135
  0
LINE
  8
0
 10
149.728
 20
11.135
 11
149.878
 21
10.7725
  0
LINE
  8
0
 10
149.878
 20
10.7725
 11
149.969
 21
10.3911
  0
LINE
  8
0
 10
149.969
 20
10.3911
 11
150
 21
10
  0
LINE
  8
0
 10
150
 20
10
 11
149.969
 21
9.60892
  0
LINE
  8
0
 10
149.969
 20
9.60892
 11
149.878
 21
9.22746
  0
LINE
  8
0
 10
149.878
 20
9.22746
 11
149.728
 21
8.86504
  0
LINE
  8
0
 10
149.728
 20
8.86504
 11
149.523
 21
8.53055
  0
LINE
  8
0
 10
149.523
 20
8.53055
 11
149.268
 21
8.23224
  0
LINE
  8
0
 10
149.268
 20
8.23224
 11
148.969
 21
7.97746
  0
LINE
  8
0
 10
148.969
 20
7.97746
 11
148.635
 21
7.77249
  0
LINE
  8
0
 10
148.635
 20
7.77249
 11
148.273
 21
7.62236
  0
LINE
  8
0
 10
148.273
 20
7.62236
 11
147.891
 21
7.53079
  0
LINE
  8
0
 10
147.891
 20
7.53079
 11
147.5
 21
7.5
  0
LINE
  8
0
 10
147.5
 20
7.5
 11
147.109
 21
7.53079
  0
LINE
  8
0
 10
-147.891
 20
7.53079
 11
-148.273
 21
7.62236
  0
LINE
  8
0
 10
-148.273
 20
7.62236
 11
-148.635
 21
7.77249
  0
LINE
  8
0
 10
-148.635
 20
7.77249
 11
-148.969
 21
7.97746
  0
LINE
  8
0
 10
-148.969
 20
7.97746
 11
-149.268
 21
8.23224
  0
LINE
  8
0
 10
-149.268
 20
8.23224
 11
-149.523
 21
8.53055
  0
LINE
  8
0
 10
-149.523
 20
8.53055
 11
-149.728
 21
8.86504
  0
LINE
  8
0
 10
-149.728
 20
8.86504
 11
-149.878
 21
9.22746
  0
LINE
  8
0
 10
-149.878
 20
9.22746
 11
-149.969
 21
9.60892
  0
LINE
  8
0
 10
-149.969
 20
9.60892
 11
-150
 21
10
  0
LINE
  8
0
 10
-150
 20
10
 11
-149.969
 21
10.3911
  0
LINE
  8
0
 10
-149.969
 20
10.3911
 11
-149.878
 21
10.7725
  0
LINE
  8
0
 10
-149.878
 20
10.7725
 11
-149.728
 21
11.135
  0
LINE
  8
0
 10
-149.728
 20
11.135
 11
-149.523
 21
11.4695
  0
LINE
  8
0
 10
-149.523
 20
11.4695
 11
-149.268
 21
11.7678
  0
LINE
  8
0
 10
-149.268
 20
11.7678
 11
-148.969
 21
12.0225
  0
LINE
  8
0
 10
-148.969
 20
12.0225
 11
-148.635
 21
12.2275
  0
LINE
  8
0
 10
-148.635
 20
12.2275
 11
-148.273
 21
12.3776
  0
LINE
  8
0
 10
-148.273
 20
12.3776
 11
-147.891
 21
12.4692
  0
LINE
  8
0
 10
-147.891
 20
12.4692
 11
-147.5
 21
12.5
  0
LINE
  8
0
 10
-147.5
 20
12.5
 11
-147.109
 21
12.4692
  0
LINE
  8
0
 10
-147.109
 20
12.4692
 11
-146.727
 21
12.3776
  0
LINE
  8
0
 10
-146.727
 20
12.3776
 11
-146.365
 21
12.2275
  0
LINE
  8
0
 10
-146.365
 20
12.2275
 11
-146.031
 21
12.0225
  0
LINE
  8
0
 10
-146.031
 20
12.0225
 11
-145.732
 21
11.7678
  0
LINE
  8
0
 10
-145.732
 20
11.7678
 11
-145.477
 21
11.4695
  0
LINE
  8
0
 10
-145.477
 20
11.4695
 11
-145.272
 21
11.135
  0
LINE
  8
0
 10
-145.272
 20
11.135
 11
-145.122
 21
10.7725
  0
LINE
  8
0
 10
-145.122
 20
10.7725
 11
-145.031
 21
10.3911
  0
LINE
  8
0
 10
-145.031
 20
10.3911
 11
-145
 21
10
  0
LINE
  8
0
 10
-145
 20
10
 11
-145.031
 21
9.60892
  0
LINE
  8
0
 10
-145.031
 20
9.60892
 11
-145.122
 21
9.22746
  0
LINE
  8
0
 10
-145.122
 20
9.22746
 11
-145.272
 21
8.86504
  0
LINE
  8
0
 10
-145.272
 20
8.86504
 11
-145.477
 21
8.53055
  0
LINE
  8
0
 10
-145.477
 20
8.53055
 11
-145.732
 21
8.23224
  0
LINE
  8
0
 10
-145.732
 20
8.23224
 11
-146.031
 21
7.97746
  0
LINE
  8
0
 10
-146.031
 20
7.97746
 11
-146.365
 21
7.77249
  0
LINE
  8
0
 10
-146.365
 20
7.77249
 11
-146.727
 21
7.62236
  0
LINE
  8
0
 10
-146.727
 20
7.62236
 11
-147.109
 21
7.53079
  0
LINE
  8
0
 10
-147.109
 20
7.53079
 11
-147.5
 21
7.5
  0
LINE
  8
0
 10
-147.5
 20
7.5
 11
-147.891
 21
7.53079
  0
ENDSEC
  0
SECTION
  2
OBJECTS
  0
DICTIONARY
  0
ENDSEC
  0
EOF
