<?xml version="1.0" standalone="no"?>
<!DOCTYPE svg PUBLIC "-//W3C//DTD SVG 1.1//EN" "http://www.w3.org/Graphics/SVG/1.1/DTD/svg11.dtd">
<svg width="228mm" height="228mm" viewBox="-114 -114 228 228" xmlns="http://www.w3.org/2000/svg" version="1.1">
<title>OpenSCAD Model</title>
<path d="
M -95.3431,109 L 95.3431,109 L 100,113.657 L 108,113.657 L 113.657,108 L 113.657,100
 L 109,95.3431 L 109,8.65685 L 113.657,4 L 113.657,-4 L 109,-8.65685 L 109,-95.3431
 L 113.657,-100 L 113.657,-108 L 108,-113.657 L 100,-113.657 L 95.3431,-109 L -95.3431,-109
 L -100,-113.657 L -108,-113.657 L -113.657,-108 L -113.657,-100 L -109,-95.3431 L -109,95.3431
 L -113.657,100 L -113.657,108 L -108,113.657 L -100,113.657 z
M -104.319,-102.534 L -104.719,-102.683 L -105.061,-102.939 L -107.182,-105.061 L -107.438,-105.402 L -107.587,-105.802
 L -107.617,-106.228 L -107.527,-106.646 L -107.322,-107.02 L -107.02,-107.322 L -106.646,-107.527 L -106.228,-107.617
 L -105.802,-107.587 L -105.402,-107.438 L -105.061,-107.182 L -102.939,-105.061 L -102.683,-104.719 L -102.534,-104.319
 L -102.504,-103.893 L -102.595,-103.476 L -102.799,-103.101 L -103.101,-102.799 L -103.476,-102.595 L -103.893,-102.504
 z
M 103.476,-102.595 L 103.101,-102.799 L 102.799,-103.101 L 102.595,-103.476 L 102.504,-103.893 L 102.534,-104.319
 L 102.683,-104.719 L 102.939,-105.061 L 105.061,-107.182 L 105.402,-107.438 L 105.802,-107.587 L 106.228,-107.617
 L 106.646,-107.527 L 107.02,-107.322 L 107.322,-107.02 L 107.527,-106.646 L 107.617,-106.228 L 107.587,-105.802
 L 107.438,-105.402 L 107.182,-105.061 L 105.061,-102.939 L 104.719,-102.683 L 104.319,-102.534 L 103.893,-102.504
 z
M 99.8589,-46.5308 L 99.4775,-46.6224 L 99.115,-46.7725 L 98.7805,-46.9775 L 98.4822,-47.2322 L 98.2275,-47.5305
 L 98.0225,-47.865 L 97.8724,-48.2275 L 97.7808,-48.6089 L 97.75,-49 L 97.7808,-49.3911 L 97.8724,-49.7725
 L 98.0225,-50.135 L 98.2275,-50.4695 L 98.4822,-50.7678 L 98.7805,-51.0225 L 99.115,-51.2275 L 99.4775,-51.3776
 L 99.8589,-51.4692 L 100.25,-51.5 L 100.641,-51.4692 L 101.023,-51.3776 L 101.385,-51.2275 L 101.719,-51.0225
 L 102.018,-50.7678 L 102.273,-50.4695 L 102.478,-50.135 L 102.628,-49.7725 L 102.719,-49.3911 L 102.75,-49
 L 102.719,-48.6089 L 102.628,-48.2275 L 102.478,-47.865 L 102.273,-47.5305 L 102.018,-47.2322 L 101.719,-46.9775
 L 101.385,-46.7725 L 101.023,-46.6224 L 100.641,-46.5308 L 100.25,-46.5 z
M 69.3589,-46.5308 L 68.9775,-46.6224 L 68.615,-46.7725 L 68.2805,-46.9775 L 67.9822,-47.2322 L 67.7275,-47.5305
 L 67.5225,-47.865 L 67.3724,-48.2275 L 67.2808,-48.6089 L 67.25,-49 L 67.2808,-49.3911 L 67.3724,-49.7725
 L 67.5225,-50.135 L 67.7275,-50.4695 L 67.9822,-50.7678 L 68.2805,-51.0225 L 68.615,-51.2275 L 68.9775,-51.3776
 L 69.3589,-51.4692 L 69.75,-51.5 L 70.1411,-51.4692 L 70.5225,-51.3776 L 70.885,-51.2275 L 71.2195,-51.0225
 L 71.5178,-50.7678 L 71.7725,-50.4695 L 71.9775,-50.135 L 72.1276,-49.7725 L 72.2192,-49.3911 L 72.25,-49
 L 72.2192,-48.6089 L 72.1276,-48.2275 L 71.9775,-47.865 L 71.7725,-47.5305 L 71.5178,-47.2322 L 71.2195,-46.9775
 L 70.885,-46.7725 L 70.5225,-46.6224 L 70.1411,-46.5308 L 69.75,-46.5 z
M 99.8589,-28.5308 L 99.4775,-28.6224 L 99.115,-28.7725 L 98.7805,-28.9775 L 98.4822,-29.2322 L 98.2275,-29.5305
 L 98.0225,-29.865 L 97.8724,-30.2275 L 97.7808,-30.6089 L 97.75,-31 L 97.7808,-31.3911 L 97.8724,-31.7725
 L 98.0225,-32.135 L 98.2275,-32.4695 L 98.4822,-32.7678 L 98.7805,-33.0225 L 99.115,-33.2275 L 99.4775,-33.3776
 L 99.8589,-33.4692 L 100.25,-33.5 L 100.641,-33.4692 L 101.023,-33.3776 L 101.385,-33.2275 L 101.719,-33.0225
 L 102.018,-32.7678 L 102.273,-32.4695 L 102.478,-32.135 L 102.628,-31.7725 L 102.719,-31.3911 L 102.75,-31
 L 102.719,-30.6089 L 102.628,-30.2275 L 102.478,-29.865 L 102.273,-29.5305 L 102.018,-29.2322 L 101.719,-28.9775
 L 101.385,-28.7725 L 101.023,-28.6224 L 100.641,-28.5308 L 100.25,-28.5 z
M 69.3589,-28.5308 L 68.9775,-28.6224 L 68.615,-28.7725 L 68.2805,-28.9775 L 67.9822,-29.2322 L 67.7275,-29.5305
 L 67.5225,-29.865 L 67.3724,-30.2275 L 67.2808,-30.6089 L 67.25,-31 L 67.2808,-31.3911 L 67.3724,-31.7725
 L 67.5225,-32.135 L 67.7275,-32.4695 L 67.9822,-32.7678 L 68.2805,-33.0225 L 68.615,-33.2275 L 68.9775,-33.3776
 L 69.3589,-33.4692 L 69.75,-33.5 L 70.1411,-33.4692 L 70.5225,-33.3776 L 70.885,-33.2275 L 71.2195,-33.0225
 L 71.5178,-32.7678 L 71.7725,-32.4695 L 71.9775,-32.135 L 72.1276,-31.7725 L 72.2192,-31.3911 L 72.25,-31
 L 72.2192,-30.6089 L 72.1276,-30.2275 L 71.9775,-29.865 L 71.7725,-29.5305 L 71.5178,-29.2322 L 71.2195,-28.9775
 L 70.885,-28.7725 L 70.5225,-28.6224 L 70.1411,-28.5308 L 69.75,-28.5 z
M 15.6089,-10.5308 L 15.2275,-10.6224 L 14.865,-10.7725 L 14.5305,-10.9775 L 14.2322,-11.2322 L 13.9775,-11.5305
 L 13.7725,-11.865 L 13.6224,-12.2275 L 13.5308,-12.6089 L 13.5,-13 L 13.5308,-13.3911 L 13.6224,-13.7725
 L 13.7725,-14.135 L 13.9775,-14.4695 L 14.2322,-14.7678 L 14.5305,-15.0225 L 14.865,-15.2275 L 15.2275,-15.3776
 L 15.6089,-15.4692 L 16,-15.5 L 16.3911,-15.4692 L 16.7725,-15.3776 L 17.135,-15.2275 L 17.4695,-15.0225
 L 17.7678,-14.7678 L 18.0225,-14.4695 L 18.2275,-14.135 L 18.3776,-13.7725 L 18.4692,-13.3911 L 18.5,-13
 L 18.4692,-12.6089 L 18.3776,-12.2275 L 18.2275,-11.865 L 18.0225,-11.5305 L 17.7678,-11.2322 L 17.4695,-10.9775
 L 17.135,-10.7725 L 16.7725,-10.6224 L 16.3911,-10.5308 L 16,-10.5 z
M -100.641,-6.53079 L -101.023,-6.62236 L -101.385,-6.77249 L -101.719,-6.97746 L -102.018,-7.23224 L -102.273,-7.53055
 L -102.478,-7.86504 L -102.628,-8.22746 L -102.719,-8.60892 L -102.75,-9 L -102.719,-9.39108 L -102.628,-9.77254
 L -102.478,-10.135 L -102.273,-10.4695 L -102.018,-10.7678 L -101.719,-11.0225 L -101.385,-11.2275 L -101.023,-11.3776
 L -100.641,-11.4692 L -100.25,-11.5 L -99.8589,-11.4692 L -99.4775,-11.3776 L -99.115,-11.2275 L -98.7805,-11.0225
 L -98.4822,-10.7678 L -98.2275,-10.4695 L -98.0225,-10.135 L -97.8724,-9.77254 L -97.7808,-9.39108 L -97.75,-9
 L -97.7808,-8.60892 L -97.8724,-8.22746 L -98.0225,-7.86504 L -98.2275,-7.53055 L -98.4822,-7.23224 L -98.7805,-6.97746
 L -99.115,-6.77249 L -99.4775,-6.62236 L -99.8589,-6.53079 L -100.25,-6.5 z
M -70.1411,-6.53079 L -70.5225,-6.62236 L -70.885,-6.77249 L -71.2195,-6.97746 L -71.5178,-7.23224 L -71.7725,-7.53055
 L -71.9775,-7.86504 L -72.1276,-8.22746 L -72.2192,-8.60892 L -72.25,-9 L -72.2192,-9.39108 L -72.1276,-9.77254
 L -71.9775,-10.135 L -71.7725,-10.4695 L -71.5178,-10.7678 L -71.2195,-11.0225 L -70.885,-11.2275 L -70.5225,-11.3776
 L -70.1411,-11.4692 L -69.75,-11.5 L -69.3589,-11.4692 L -68.9775,-11.3776 L -68.615,-11.2275 L -68.2805,-11.0225
 L -67.9822,-10.7678 L -67.7275,-10.4695 L -67.5225,-10.135 L -67.3724,-9.77254 L -67.2808,-9.39108 L -67.25,-9
 L -67.2808,-8.60892 L -67.3724,-8.22746 L -67.5225,-7.86504 L -67.7275,-7.53055 L -67.9822,-7.23224 L -68.2805,-6.97746
 L -68.615,-6.77249 L -68.9775,-6.62236 L -69.3589,-6.53079 L -69.75,-6.5 z
M 104,1.5 L 103.577,1.43922 L 103.189,1.26187 L 102.866,0.982285 L 102.636,0.623108 L 102.515,0.21347
 L 102.515,-0.21347 L 102.636,-0.623108 L 102.866,-0.982285 L 103.189,-1.26187 L 103.577,-1.43922 L 104,-1.5
 L 107,-1.5 L 107.423,-1.43922 L 107.811,-1.26187 L 108.134,-0.982285 L 108.364,-0.623108 L 108.485,-0.21347
 L 108.485,0.21347 L 108.364,0.623108 L 108.134,0.982285 L 107.811,1.26187 L 107.423,1.43922 L 107,1.5
 z
M -100.641,11.4692 L -101.023,11.3776 L -101.385,11.2275 L -101.719,11.0225 L -102.018,10.7678 L -102.273,10.4695
 L -102.478,10.135 L -102.628,9.77254 L -102.719,9.39108 L -102.75,9 L -102.719,8.60892 L -102.628,8.22746
 L -102.478,7.86504 L -102.273,7.53055 L -102.018,7.23224 L -101.719,6.97746 L -101.385,6.77249 L -101.023,6.62236
 L -100.641,6.53079 L -100.25,6.5 L -99.8589,6.53079 L -99.4775,6.62236 L -99.115,6.77249 L -98.7805,6.97746
 L -98.4822,7.23224 L -98.2275,7.53055 L -98.0225,7.86504 L -97.8724,8.22746 L -97.7808,8.60892 L -97.75,9
 L -97.7808,9.39108 L -97.8724,9.77254 L -98.0225,10.135 L -98.2275,10.4695 L -98.4822,10.7678 L -98.7805,11.0225
 L -99.115,11.2275 L -99.4775,11.3776 L -99.8589,11.4692 L -100.25,11.5 z
M -70.1411,11.4692 L -70.5225,11.3776 L -70.885,11.2275 L -71.2195,11.0225 L -71.5178,10.7678 L -71.7725,10.4695
 L -71.9775,10.135 L -72.1276,9.77254 L -72.2192,9.39108 L -72.25,9 L -72.2192,8.60892 L -72.1276,8.22746
 L -71.9775,7.86504 L -71.7725,7.53055 L -71.5178,7.23224 L -71.2195,6.97746 L -70.885,6.77249 L -70.5225,6.62236
 L -70.1411,6.53079 L -69.75,6.5 L -69.3589,6.53079 L -68.9775,6.62236 L -68.615,6.77249 L -68.2805,6.97746
 L -67.9822,7.23224 L -67.7275,7.53055 L -67.5225,7.86504 L -67.3724,8.22746 L -67.2808,8.60892 L -67.25,9
 L -67.2808,9.39108 L -67.3724,9.77254 L -67.5225,10.135 L -67.7275,10.4695 L -67.9822,10.7678 L -68.2805,11.0225
 L -68.615,11.2275 L -68.9775,11.3776 L -69.3589,11.4692 L -69.75,11.5 z
M 15.6089,15.4692 L 15.2275,15.3776 L 14.865,15.2275 L 14.5305,15.0225 L 14.2322,14.7678 L 13.9775,14.4695
 L 13.7725,14.135 L 13.6224,13.7725 L 13.5308,13.3911 L 13.5,13 L 13.5308,12.6089 L 13.6224,12.2275
 L 13.7725,11.865 L 13.9775,11.5305 L 14.2322,11.2322 L 14.5305,10.9775 L 14.865,10.7725 L 15.2275,10.6224
 L 15.6089,10.5308 L 16,10.5 L 16.3911,10.5308 L 16.7725,10.6224 L 17.135,10.7725 L 17.4695,10.9775
 L 17.7678,11.2322 L 18.0225,11.5305 L 18.2275,11.865 L 18.3776,12.2275 L 18.4692,12.6089 L 18.5,13
 L 18.4692,13.3911 L 18.3776,13.7725 L 18.2275,14.135 L 18.0225,14.4695 L 17.7678,14.7678 L 17.4695,15.0225
 L 17.135,15.2275 L 16.7725,15.3776 L 16.3911,15.4692 L 16,15.5 z
M 69.3589,33.4692 L 68.9775,33.3776 L 68.615,33.2275 L 68.2805,33.0225 L 67.9822,32.7678 L 67.7275,32.4695
 L 67.5225,32.135 L 67.3724,31.7725 L 67.2808,31.3911 L 67.25,31 L 67.2808,30.6089 L 67.3724,30.2275
 L 67.5225,29.865 L 67.7275,29.5305 L 67.9822,29.2322 L 68.2805,28.9775 L 68.615,28.7725 L 68.9775,28.6224
 L 69.3589,28.5308 L 69.75,28.5 L 70.1411,28.5308 L 70.5225,28.6224 L 70.885,28.7725 L 71.2195,28.9775
 L 71.5178,29.2322 L 71.7725,29.5305 L 71.9775,29.865 L 72.1276,30.2275 L 72.2192,30.6089 L 72.25,31
 L 72.2192,31.3911 L 72.1276,31.7725 L 71.9775,32.135 L 71.7725,32.4695 L 71.5178,32.7678 L 71.2195,33.0225
 L 70.885,33.2275 L 70.5225,33.3776 L 70.1411,33.4692 L 69.75,33.5 z
M 99.8589,33.4692 L 99.4775,33.3776 L 99.115,33.2275 L 98.7805,33.0225 L 98.4822,32.7678 L 98.2275,32.4695
 L 98.0225,32.135 L 97.8724,31.7725 L 97.7808,31.3911 L 97.75,31 L 97.7808,30.6089 L 97.8724,30.2275
 L 98.0225,29.865 L 98.2275,29.5305 L 98.4822,29.2322 L 98.7805,28.9775 L 99.115,28.7725 L 99.4775,28.6224
 L 99.8589,28.5308 L 100.25,28.5 L 100.641,28.5308 L 101.023,28.6224 L 101.385,28.7725 L 101.719,28.9775
 L 102.018,29.2322 L 102.273,29.5305 L 102.478,29.865 L 102.628,30.2275 L 102.719,30.6089 L 102.75,31
 L 102.719,31.3911 L 102.628,31.7725 L 102.478,32.135 L 102.273,32.4695 L 102.018,32.7678 L 101.719,33.0225
 L 101.385,33.2275 L 101.023,33.3776 L 100.641,33.4692 L 100.25,33.5 z
M -100.641,33.7192 L -101.023,33.6276 L -101.385,33.4775 L -101.719,33.2725 L -102.018,33.0178 L -102.273,32.7195
 L -102.478,32.385 L -102.628,32.0225 L -102.719,31.6411 L -102.75,31.25 L -102.719,30.8589 L -102.628,30.4775
 L -102.478,30.115 L -102.273,29.7805 L -102.018,29.4822 L -101.719,29.2275 L -101.385,29.0225 L -101.023,28.8724
 L -100.641,28.7808 L -100.25,28.75 L -99.8589,28.7808 L -99.4775,28.8724 L -99.115,29.0225 L -98.7805,29.2275
 L -98.4822,29.4822 L -98.2275,29.7805 L -98.0225,30.115 L -97.8724,30.4775 L -97.7808,30.8589 L -97.75,31.25
 L -97.7808,31.6411 L -97.8724,32.0225 L -98.0225,32.385 L -98.2275,32.7195 L -98.4822,33.0178 L -98.7805,33.2725
 L -99.115,33.4775 L -99.4775,33.6276 L -99.8589,33.7192 L -100.25,33.75 z
M 69.3589,51.4692 L 68.9775,51.3776 L 68.615,51.2275 L 68.2805,51.0225 L 67.9822,50.7678 L 67.7275,50.4695
 L 67.5225,50.135 L 67.3724,49.7725 L 67.2808,49.3911 L 67.25,49 L 67.2808,48.6089 L 67.3724,48.2275
 L 67.5225,47.865 L 67.7275,47.5305 L 67.9822,47.2322 L 68.2805,46.9775 L 68.615,46.7725 L 68.9775,46.6224
 L 69.3589,46.5308 L 69.75,46.5 L 70.1411,46.5308 L 70.5225,46.6224 L 70.885,46.7725 L 71.2195,46.9775
 L 71.5178,47.2322 L 71.7725,47.5305 L 71.9775,47.865 L 72.1276,48.2275 L 72.2192,48.6089 L 72.25,49
 L 72.2192,49.3911 L 72.1276,49.7725 L 71.9775,50.135 L 71.7725,50.4695 L 71.5178,50.7678 L 71.2195,51.0225
 L 70.885,51.2275 L 70.5225,51.3776 L 70.1411,51.4692 L 69.75,51.5 z
M 99.8589,51.4692 L 99.4775,51.3776 L 99.115,51.2275 L 98.7805,51.0225 L 98.4822,50.7678 L 98.2275,50.4695
 L 98.0225,50.135 L 97.8724,49.7725 L 97.7808,49.3911 L 97.75,49 L 97.7808,48.6089 L 97.8724,48.2275
 L 98.0225,47.865 L 98.2275,47.5305 L 98.4822,47.2322 L 98.7805,46.9775 L 99.115,46.7725 L 99.4775,46.6224
 L 99.8589,46.5308 L 100.25,46.5 L 100.641,46.5308 L 101.023,46.6224 L 101.385,46.7725 L 101.719,46.9775
 L 102.018,47.2322 L 102.273,47.5305 L 102.478,47.865 L 102.628,48.2275 L 102.719,48.6089 L 102.75,49
 L 102.719,49.3911 L 102.628,49.7725 L 102.478,50.135 L 102.273,50.4695 L 102.018,50.7678 L 101.719,51.0225
 L 101.385,51.2275 L 101.023,51.3776 L 100.641,51.4692 L 100.25,51.5 z
M 105.802,107.587 L 105.402,107.438 L 105.061,107.182 L 102.939,105.061 L 102.683,104.719 L 102.534,104.319
 L 102.504,103.893 L 102.595,103.476 L 102.799,103.101 L 103.101,102.799 L 103.476,102.595 L 103.893,102.504
 L 104.319,102.534 L 104.719,102.683 L 105.061,102.939 L 107.182,105.061 L 107.438,105.402 L 107.587,105.802
 L 107.617,106.228 L 107.527,106.646 L 107.322,107.02 L 107.02,107.322 L 106.646,107.527 L 106.228,107.617
 z
M -106.646,107.527 L -107.02,107.322 L -107.322,107.02 L -107.527,106.646 L -107.617,106.228 L -107.587,105.802
 L -107.438,105.402 L -107.182,105.061 L -105.061,102.939 L -104.719,102.683 L -104.319,102.534 L -103.893,102.504
 L -103.476,102.595 L -103.101,102.799 L -102.799,103.101 L -102.595,103.476 L -102.504,103.893 L -102.534,104.319
 L -102.683,104.719 L -102.939,105.061 L -105.061,107.182 L -105.402,107.438 L -105.802,107.587 L -106.228,107.617
 z
" stroke="black" fill="lightgray" stroke-width="0.5"/>
</svg>
