<?xml version="1.0" standalone="no"?>
<!DOCTYPE svg PUBLIC "-//W3C//DTD SVG 1.1//EN" "http://www.w3.org/Graphics/SVG/1.1/DTD/svg11.dtd">
<svg width="370mm" height="40mm" viewBox="-185 -20 370 40" xmlns="http://www.w3.org/2000/svg" version="1.1">
<title>OpenSCAD Model</title>
<path d="
M 185,-20 L 112.1,-20 L 110.2,-18.1 L 110.2,0.0999908 L 59.8,0.0999908 L 59.8,-18.1
 L 57.9,-20 L -57.9,-20 L -59.8,-18.1 L -59.8,0.0999908 L -110.2,0.0999908 L -110.2,-18.1
 L -112.1,-20 L -185,-20 L -185,20 L 185,20 z
M 147.109,-7.53079 L 146.727,-7.62236 L 146.365,-7.77249 L 146.031,-7.97746 L 145.732,-8.23224 L 145.477,-8.53055
 L 145.272,-8.86504 L 145.122,-9.22746 L 145.031,-9.60892 L 145,-10 L 145.031,-10.3911 L 145.122,-10.7725
 L 145.272,-11.135 L 145.477,-11.4695 L 145.732,-11.7678 L 146.031,-12.0225 L 146.365,-12.2275 L 146.727,-12.3776
 L 147.109,-12.4692 L 147.5,-12.5 L 147.891,-12.4692 L 148.273,-12.3776 L 148.635,-12.2275 L 148.969,-12.0225
 L 149.268,-11.7678 L 149.523,-11.4695 L 149.728,-11.135 L 149.878,-10.7725 L 149.969,-10.3911 L 150,-10
 L 149.969,-9.60892 L 149.878,-9.22746 L 149.728,-8.86504 L 149.523,-8.53055 L 149.268,-8.23224 L 148.969,-7.97746
 L 148.635,-7.77249 L 148.273,-7.62236 L 147.891,-7.53079 L 147.5,-7.5 z
M -147.891,-7.53079 L -148.273,-7.62236 L -148.635,-7.77249 L -148.969,-7.97746 L -149.268,-8.23224 L -149.523,-8.53055
 L -149.728,-8.86504 L -149.878,-9.22746 L -149.969,-9.60892 L -150,-10 L -149.969,-10.3911 L -149.878,-10.7725
 L -149.728,-11.135 L -149.523,-11.4695 L -149.268,-11.7678 L -148.969,-12.0225 L -148.635,-12.2275 L -148.273,-12.3776
 L -147.891,-12.4692 L -147.5,-12.5 L -147.109,-12.4692 L -146.727,-12.3776 L -146.365,-12.2275 L -146.031,-12.0225
 L -145.732,-11.7678 L -145.477,-11.4695 L -145.272,-11.135 L -145.122,-10.7725 L -145.031,-10.3911 L -145,-10
 L -145.031,-9.60892 L -145.122,-9.22746 L -145.272,-8.86504 L -145.477,-8.53055 L -145.732,-8.23224 L -146.031,-7.97746
 L -146.365,-7.77249 L -146.727,-7.62236 L -147.109,-7.53079 L -147.5,-7.5 z
" stroke="black" fill="lightgray" stroke-width="0.5"/>
</svg>
